G04 #@! TF.GenerationSoftware,KiCad,Pcbnew,(5.1.5)-3*
G04 #@! TF.CreationDate,2021-05-27T15:59:13+09:00*
G04 #@! TF.ProjectId,MyESP-WROOM-02(Mentsuke2x2),4d794553-502d-4575-924f-4f4d2d303228,rev?*
G04 #@! TF.SameCoordinates,Original*
G04 #@! TF.FileFunction,Profile,NP*
%FSLAX46Y46*%
G04 Gerber Fmt 4.6, Leading zero omitted, Abs format (unit mm)*
G04 Created by KiCad (PCBNEW (5.1.5)-3) date 2021-05-27 15:59:13*
%MOMM*%
%LPD*%
G04 APERTURE LIST*
%ADD10C,0.050000*%
G04 APERTURE END LIST*
D10*
X73000000Y-135000000D02*
X73000000Y-131000000D01*
X71000000Y-135000000D02*
X73000000Y-135000000D01*
X70000000Y-132000000D02*
X70000000Y-131000000D01*
X65000000Y-133000000D02*
X67000000Y-133000000D01*
X75000000Y-131000000D02*
X75000000Y-135000000D01*
X74000000Y-131000000D02*
X76000000Y-131000000D01*
X71000000Y-131000000D02*
X71000000Y-135000000D01*
X70000000Y-135000000D02*
X70000000Y-134000000D01*
X70000000Y-131000000D02*
X68000000Y-131000000D01*
X68000000Y-135000000D02*
X70000000Y-135000000D01*
X68000000Y-131000000D02*
X68000000Y-135000000D01*
X63000000Y-131000000D02*
X64000000Y-135000000D01*
X64000000Y-135000000D02*
X65000000Y-131000000D01*
X143000000Y-68000000D02*
X143000000Y-72000000D01*
X142000000Y-68000000D02*
X144000000Y-68000000D01*
X141000000Y-72000000D02*
X141000000Y-68000000D01*
X139000000Y-72000000D02*
X141000000Y-72000000D01*
X139000000Y-68000000D02*
X139000000Y-72000000D01*
X138000000Y-72000000D02*
X138000000Y-71000000D01*
X136000000Y-72000000D02*
X138000000Y-72000000D01*
X136000000Y-68000000D02*
X136000000Y-72000000D01*
X138000000Y-68000000D02*
X136000000Y-68000000D01*
X138000000Y-69000000D02*
X138000000Y-68000000D01*
X133000000Y-70000000D02*
X135000000Y-70000000D01*
X132000000Y-72000000D02*
X133000000Y-68000000D01*
X131000000Y-68000000D02*
X132000000Y-72000000D01*
X21666666Y-120000000D02*
G75*
G03X21666666Y-120000000I-1666666J0D01*
G01*
X17500000Y-120000000D02*
X22500000Y-120000000D01*
X20000000Y-117500000D02*
X20000000Y-122500000D01*
X70000000Y-20000000D02*
X70000000Y-130000000D01*
X20000000Y-70000000D02*
X130000000Y-70000000D01*
X120000000Y-20000000D02*
X20000000Y-20000000D01*
X120000000Y-120000000D02*
X120000000Y-20000000D01*
X20000000Y-120000000D02*
X120000000Y-120000000D01*
X20000000Y-20000000D02*
X20000000Y-120000000D01*
M02*
