G04 #@! TF.GenerationSoftware,KiCad,Pcbnew,(5.1.5)-3*
G04 #@! TF.CreationDate,2021-05-27T15:59:12+09:00*
G04 #@! TF.ProjectId,MyESP-WROOM-02(Mentsuke2x2),4d794553-502d-4575-924f-4f4d2d303228,rev?*
G04 #@! TF.SameCoordinates,Original*
G04 #@! TF.FileFunction,Legend,Top*
G04 #@! TF.FilePolarity,Positive*
%FSLAX46Y46*%
G04 Gerber Fmt 4.6, Leading zero omitted, Abs format (unit mm)*
G04 Created by KiCad (PCBNEW (5.1.5)-3) date 2021-05-27 15:59:12*
%MOMM*%
%LPD*%
G04 APERTURE LIST*
%ADD10C,0.120000*%
%ADD11C,0.150000*%
%ADD12C,0.300000*%
%ADD13C,0.100000*%
G04 APERTURE END LIST*
D10*
X74500000Y-104500000D02*
X74500000Y-101000000D01*
X103500000Y-119500000D02*
X115500000Y-119500000D01*
X86500000Y-101000000D02*
X86500000Y-104500000D01*
X103500000Y-104500000D02*
X103500000Y-119500000D01*
X115500000Y-119500000D02*
X115500000Y-104500000D01*
X86500000Y-119500000D02*
X86500000Y-104500000D01*
X74500000Y-101000000D02*
X86500000Y-101000000D01*
X115500000Y-101000000D02*
X115500000Y-104500000D01*
X103500000Y-104500000D02*
X103500000Y-101000000D01*
X74500000Y-119500000D02*
X86500000Y-119500000D01*
D11*
X82252380Y-106385714D02*
X81252380Y-106385714D01*
X82252380Y-105814285D01*
X81252380Y-105814285D01*
X82157142Y-104766666D02*
X82204761Y-104814285D01*
X82252380Y-104957142D01*
X82252380Y-105052380D01*
X82204761Y-105195238D01*
X82109523Y-105290476D01*
X82014285Y-105338095D01*
X81823809Y-105385714D01*
X81680952Y-105385714D01*
X81490476Y-105338095D01*
X81395238Y-105290476D01*
X81300000Y-105195238D01*
X81252380Y-105052380D01*
X81252380Y-104957142D01*
X81300000Y-104814285D01*
X81347619Y-104766666D01*
D12*
X105976190Y-118392857D02*
X107500000Y-118392857D01*
X111500000Y-118392857D02*
X113023809Y-118392857D01*
X112261904Y-119154761D02*
X112261904Y-117630952D01*
D11*
X72833333Y-80857142D02*
X72785714Y-80904761D01*
X72642857Y-80952380D01*
X72547619Y-80952380D01*
X72404761Y-80904761D01*
X72309523Y-80809523D01*
X72261904Y-80714285D01*
X72214285Y-80523809D01*
X72214285Y-80380952D01*
X72261904Y-80190476D01*
X72309523Y-80095238D01*
X72404761Y-80000000D01*
X72547619Y-79952380D01*
X72642857Y-79952380D01*
X72785714Y-80000000D01*
X72833333Y-80047619D01*
X73214285Y-80904761D02*
X73357142Y-80952380D01*
X73595238Y-80952380D01*
X73690476Y-80904761D01*
X73738095Y-80857142D01*
X73785714Y-80761904D01*
X73785714Y-80666666D01*
X73738095Y-80571428D01*
X73690476Y-80523809D01*
X73595238Y-80476190D01*
X73404761Y-80428571D01*
X73309523Y-80380952D01*
X73261904Y-80333333D01*
X73214285Y-80238095D01*
X73214285Y-80142857D01*
X73261904Y-80047619D01*
X73309523Y-80000000D01*
X73404761Y-79952380D01*
X73642857Y-79952380D01*
X73785714Y-80000000D01*
X71738095Y-81500000D02*
X71642857Y-81452380D01*
X71500000Y-81452380D01*
X71357142Y-81500000D01*
X71261904Y-81595238D01*
X71214285Y-81690476D01*
X71166666Y-81880952D01*
X71166666Y-82023809D01*
X71214285Y-82214285D01*
X71261904Y-82309523D01*
X71357142Y-82404761D01*
X71500000Y-82452380D01*
X71595238Y-82452380D01*
X71738095Y-82404761D01*
X71785714Y-82357142D01*
X71785714Y-82023809D01*
X71595238Y-82023809D01*
X72214285Y-82452380D02*
X72214285Y-81452380D01*
X72785714Y-82452380D01*
X72785714Y-81452380D01*
X73261904Y-82452380D02*
X73261904Y-81452380D01*
X73500000Y-81452380D01*
X73642857Y-81500000D01*
X73738095Y-81595238D01*
X73785714Y-81690476D01*
X73833333Y-81880952D01*
X73833333Y-82023809D01*
X73785714Y-82214285D01*
X73738095Y-82309523D01*
X73642857Y-82404761D01*
X73500000Y-82452380D01*
X73261904Y-82452380D01*
X79685714Y-77952380D02*
X79780952Y-77952380D01*
X79876190Y-78000000D01*
X79923809Y-78047619D01*
X79971428Y-78142857D01*
X80019047Y-78333333D01*
X80019047Y-78571428D01*
X79971428Y-78761904D01*
X79923809Y-78857142D01*
X79876190Y-78904761D01*
X79780952Y-78952380D01*
X79685714Y-78952380D01*
X79590476Y-78904761D01*
X79542857Y-78857142D01*
X79495238Y-78761904D01*
X79447619Y-78571428D01*
X79447619Y-78333333D01*
X79495238Y-78142857D01*
X79542857Y-78047619D01*
X79590476Y-78000000D01*
X79685714Y-77952380D01*
X80447619Y-78857142D02*
X80495238Y-78904761D01*
X80447619Y-78952380D01*
X80400000Y-78904761D01*
X80447619Y-78857142D01*
X80447619Y-78952380D01*
X81447619Y-78952380D02*
X80876190Y-78952380D01*
X81161904Y-78952380D02*
X81161904Y-77952380D01*
X81066666Y-78095238D01*
X80971428Y-78190476D01*
X80876190Y-78238095D01*
X82304761Y-78285714D02*
X82304761Y-78952380D01*
X81876190Y-78285714D02*
X81876190Y-78809523D01*
X81923809Y-78904761D01*
X82019047Y-78952380D01*
X82161904Y-78952380D01*
X82257142Y-78904761D01*
X82304761Y-78857142D01*
X111927380Y-83642857D02*
X110927380Y-83642857D01*
X111927380Y-83071428D01*
X110927380Y-83071428D01*
X110927380Y-82309523D02*
X111641666Y-82309523D01*
X111784523Y-82357142D01*
X111879761Y-82452380D01*
X111927380Y-82595238D01*
X111927380Y-82690476D01*
X111927380Y-81833333D02*
X110927380Y-81833333D01*
X111641666Y-81500000D01*
X110927380Y-81166666D01*
X111927380Y-81166666D01*
X111022619Y-80738095D02*
X110975000Y-80690476D01*
X110927380Y-80595238D01*
X110927380Y-80357142D01*
X110975000Y-80261904D01*
X111022619Y-80214285D01*
X111117857Y-80166666D01*
X111213095Y-80166666D01*
X111355952Y-80214285D01*
X111927380Y-80785714D01*
X111927380Y-80166666D01*
X111355952Y-79595238D02*
X111308333Y-79690476D01*
X111260714Y-79738095D01*
X111165476Y-79785714D01*
X111117857Y-79785714D01*
X111022619Y-79738095D01*
X110975000Y-79690476D01*
X110927380Y-79595238D01*
X110927380Y-79404761D01*
X110975000Y-79309523D01*
X111022619Y-79261904D01*
X111117857Y-79214285D01*
X111165476Y-79214285D01*
X111260714Y-79261904D01*
X111308333Y-79309523D01*
X111355952Y-79404761D01*
X111355952Y-79595238D01*
X111403571Y-79690476D01*
X111451190Y-79738095D01*
X111546428Y-79785714D01*
X111736904Y-79785714D01*
X111832142Y-79738095D01*
X111879761Y-79690476D01*
X111927380Y-79595238D01*
X111927380Y-79404761D01*
X111879761Y-79309523D01*
X111832142Y-79261904D01*
X111736904Y-79214285D01*
X111546428Y-79214285D01*
X111451190Y-79261904D01*
X111403571Y-79309523D01*
X111355952Y-79404761D01*
X111260714Y-78357142D02*
X111927380Y-78357142D01*
X110879761Y-78595238D02*
X111594047Y-78833333D01*
X111594047Y-78214285D01*
X110927380Y-77357142D02*
X110927380Y-77833333D01*
X111403571Y-77880952D01*
X111355952Y-77833333D01*
X111308333Y-77738095D01*
X111308333Y-77500000D01*
X111355952Y-77404761D01*
X111403571Y-77357142D01*
X111498809Y-77309523D01*
X111736904Y-77309523D01*
X111832142Y-77357142D01*
X111879761Y-77404761D01*
X111927380Y-77500000D01*
X111927380Y-77738095D01*
X111879761Y-77833333D01*
X111832142Y-77880952D01*
X113577380Y-83214285D02*
X112577380Y-83214285D01*
X112577380Y-82976190D01*
X112625000Y-82833333D01*
X112720238Y-82738095D01*
X112815476Y-82690476D01*
X113005952Y-82642857D01*
X113148809Y-82642857D01*
X113339285Y-82690476D01*
X113434523Y-82738095D01*
X113529761Y-82833333D01*
X113577380Y-82976190D01*
X113577380Y-83214285D01*
X113577380Y-81738095D02*
X113577380Y-82214285D01*
X112577380Y-82214285D01*
X113577380Y-80880952D02*
X113577380Y-81452380D01*
X113577380Y-81166666D02*
X112577380Y-81166666D01*
X112720238Y-81261904D01*
X112815476Y-81357142D01*
X112863095Y-81452380D01*
X113196428Y-80452380D02*
X113196428Y-79690476D01*
X112577380Y-79309523D02*
X112577380Y-78690476D01*
X112958333Y-79023809D01*
X112958333Y-78880952D01*
X113005952Y-78785714D01*
X113053571Y-78738095D01*
X113148809Y-78690476D01*
X113386904Y-78690476D01*
X113482142Y-78738095D01*
X113529761Y-78785714D01*
X113577380Y-78880952D01*
X113577380Y-79166666D01*
X113529761Y-79261904D01*
X113482142Y-79309523D01*
X112577380Y-78357142D02*
X112577380Y-77738095D01*
X112958333Y-78071428D01*
X112958333Y-77928571D01*
X113005952Y-77833333D01*
X113053571Y-77785714D01*
X113148809Y-77738095D01*
X113386904Y-77738095D01*
X113482142Y-77785714D01*
X113529761Y-77833333D01*
X113577380Y-77928571D01*
X113577380Y-78214285D01*
X113529761Y-78309523D01*
X113482142Y-78357142D01*
X78757142Y-83919047D02*
X78804761Y-83966666D01*
X78852380Y-84109523D01*
X78852380Y-84204761D01*
X78804761Y-84347619D01*
X78709523Y-84442857D01*
X78614285Y-84490476D01*
X78423809Y-84538095D01*
X78280952Y-84538095D01*
X78090476Y-84490476D01*
X77995238Y-84442857D01*
X77900000Y-84347619D01*
X77852380Y-84204761D01*
X77852380Y-84109523D01*
X77900000Y-83966666D01*
X77947619Y-83919047D01*
X78852380Y-83061904D02*
X77852380Y-83061904D01*
X78804761Y-83061904D02*
X78852380Y-83157142D01*
X78852380Y-83347619D01*
X78804761Y-83442857D01*
X78757142Y-83490476D01*
X78661904Y-83538095D01*
X78376190Y-83538095D01*
X78280952Y-83490476D01*
X78233333Y-83442857D01*
X78185714Y-83347619D01*
X78185714Y-83157142D01*
X78233333Y-83061904D01*
X78804761Y-82633333D02*
X78852380Y-82490476D01*
X78852380Y-82252380D01*
X78804761Y-82157142D01*
X78757142Y-82109523D01*
X78661904Y-82061904D01*
X78566666Y-82061904D01*
X78471428Y-82109523D01*
X78423809Y-82157142D01*
X78376190Y-82252380D01*
X78328571Y-82442857D01*
X78280952Y-82538095D01*
X78233333Y-82585714D01*
X78138095Y-82633333D01*
X78042857Y-82633333D01*
X77947619Y-82585714D01*
X77900000Y-82538095D01*
X77852380Y-82442857D01*
X77852380Y-82204761D01*
X77900000Y-82061904D01*
X87323809Y-116352380D02*
X87323809Y-115352380D01*
X87704761Y-115352380D01*
X87800000Y-115400000D01*
X87847619Y-115447619D01*
X87895238Y-115542857D01*
X87895238Y-115685714D01*
X87847619Y-115780952D01*
X87800000Y-115828571D01*
X87704761Y-115876190D01*
X87323809Y-115876190D01*
X88323809Y-116352380D02*
X88323809Y-115685714D01*
X88323809Y-115876190D02*
X88371428Y-115780952D01*
X88419047Y-115733333D01*
X88514285Y-115685714D01*
X88609523Y-115685714D01*
X89085714Y-116352380D02*
X88990476Y-116304761D01*
X88942857Y-116257142D01*
X88895238Y-116161904D01*
X88895238Y-115876190D01*
X88942857Y-115780952D01*
X88990476Y-115733333D01*
X89085714Y-115685714D01*
X89228571Y-115685714D01*
X89323809Y-115733333D01*
X89371428Y-115780952D01*
X89419047Y-115876190D01*
X89419047Y-116161904D01*
X89371428Y-116257142D01*
X89323809Y-116304761D01*
X89228571Y-116352380D01*
X89085714Y-116352380D01*
X90276190Y-115685714D02*
X90276190Y-116495238D01*
X90228571Y-116590476D01*
X90180952Y-116638095D01*
X90085714Y-116685714D01*
X89942857Y-116685714D01*
X89847619Y-116638095D01*
X90276190Y-116304761D02*
X90180952Y-116352380D01*
X89990476Y-116352380D01*
X89895238Y-116304761D01*
X89847619Y-116257142D01*
X89800000Y-116161904D01*
X89800000Y-115876190D01*
X89847619Y-115780952D01*
X89895238Y-115733333D01*
X89990476Y-115685714D01*
X90180952Y-115685714D01*
X90276190Y-115733333D01*
X70500000Y-112261904D02*
X70452380Y-112357142D01*
X70452380Y-112500000D01*
X70500000Y-112642857D01*
X70595238Y-112738095D01*
X70690476Y-112785714D01*
X70880952Y-112833333D01*
X71023809Y-112833333D01*
X71214285Y-112785714D01*
X71309523Y-112738095D01*
X71404761Y-112642857D01*
X71452380Y-112500000D01*
X71452380Y-112404761D01*
X71404761Y-112261904D01*
X71357142Y-112214285D01*
X71023809Y-112214285D01*
X71023809Y-112404761D01*
X71452380Y-111785714D02*
X70452380Y-111785714D01*
X71452380Y-111214285D01*
X70452380Y-111214285D01*
X71452380Y-110738095D02*
X70452380Y-110738095D01*
X70452380Y-110500000D01*
X70500000Y-110357142D01*
X70595238Y-110261904D01*
X70690476Y-110214285D01*
X70880952Y-110166666D01*
X71023809Y-110166666D01*
X71214285Y-110214285D01*
X71309523Y-110261904D01*
X71404761Y-110357142D01*
X71452380Y-110500000D01*
X71452380Y-110738095D01*
X116752380Y-84638095D02*
X116752380Y-84542857D01*
X116800000Y-84447619D01*
X116847619Y-84400000D01*
X116942857Y-84352380D01*
X117133333Y-84304761D01*
X117371428Y-84304761D01*
X117561904Y-84352380D01*
X117657142Y-84400000D01*
X117704761Y-84447619D01*
X117752380Y-84542857D01*
X117752380Y-84638095D01*
X117704761Y-84733333D01*
X117657142Y-84780952D01*
X117561904Y-84828571D01*
X117371428Y-84876190D01*
X117133333Y-84876190D01*
X116942857Y-84828571D01*
X116847619Y-84780952D01*
X116800000Y-84733333D01*
X116752380Y-84638095D01*
X117657142Y-83876190D02*
X117704761Y-83828571D01*
X117752380Y-83876190D01*
X117704761Y-83923809D01*
X117657142Y-83876190D01*
X117752380Y-83876190D01*
X116752380Y-83495238D02*
X116752380Y-82876190D01*
X117133333Y-83209523D01*
X117133333Y-83066666D01*
X117180952Y-82971428D01*
X117228571Y-82923809D01*
X117323809Y-82876190D01*
X117561904Y-82876190D01*
X117657142Y-82923809D01*
X117704761Y-82971428D01*
X117752380Y-83066666D01*
X117752380Y-83352380D01*
X117704761Y-83447619D01*
X117657142Y-83495238D01*
X116752380Y-82542857D02*
X116752380Y-81923809D01*
X117133333Y-82257142D01*
X117133333Y-82114285D01*
X117180952Y-82019047D01*
X117228571Y-81971428D01*
X117323809Y-81923809D01*
X117561904Y-81923809D01*
X117657142Y-81971428D01*
X117704761Y-82019047D01*
X117752380Y-82114285D01*
X117752380Y-82400000D01*
X117704761Y-82495238D01*
X117657142Y-82542857D01*
D12*
X81404761Y-117838095D02*
X79404761Y-117838095D01*
X79404761Y-117361904D01*
X79500000Y-117076190D01*
X79690476Y-116885714D01*
X79880952Y-116790476D01*
X80261904Y-116695238D01*
X80547619Y-116695238D01*
X80928571Y-116790476D01*
X81119047Y-116885714D01*
X81309523Y-117076190D01*
X81404761Y-117361904D01*
X81404761Y-117838095D01*
X81404761Y-115838095D02*
X79404761Y-115838095D01*
X80357142Y-115838095D02*
X80357142Y-114695238D01*
X81404761Y-114695238D02*
X79404761Y-114695238D01*
X79404761Y-114028571D02*
X79404761Y-112885714D01*
X81404761Y-113457142D02*
X79404761Y-113457142D01*
X81404761Y-111171428D02*
X81404761Y-112314285D01*
X81404761Y-111742857D02*
X79404761Y-111742857D01*
X79690476Y-111933333D01*
X79880952Y-112123809D01*
X79976190Y-112314285D01*
X81404761Y-109266666D02*
X81404761Y-110409523D01*
X81404761Y-109838095D02*
X79404761Y-109838095D01*
X79690476Y-110028571D01*
X79880952Y-110219047D01*
X79976190Y-110409523D01*
D11*
X70728571Y-74952380D02*
X70728571Y-73952380D01*
X71061904Y-74666666D01*
X71395238Y-73952380D01*
X71395238Y-74952380D01*
X71871428Y-74952380D02*
X71871428Y-73952380D01*
X72300000Y-74904761D02*
X72442857Y-74952380D01*
X72680952Y-74952380D01*
X72776190Y-74904761D01*
X72823809Y-74857142D01*
X72871428Y-74761904D01*
X72871428Y-74666666D01*
X72823809Y-74571428D01*
X72776190Y-74523809D01*
X72680952Y-74476190D01*
X72490476Y-74428571D01*
X72395238Y-74380952D01*
X72347619Y-74333333D01*
X72300000Y-74238095D01*
X72300000Y-74142857D01*
X72347619Y-74047619D01*
X72395238Y-74000000D01*
X72490476Y-73952380D01*
X72728571Y-73952380D01*
X72871428Y-74000000D01*
X73490476Y-73952380D02*
X73680952Y-73952380D01*
X73776190Y-74000000D01*
X73871428Y-74095238D01*
X73919047Y-74285714D01*
X73919047Y-74619047D01*
X73871428Y-74809523D01*
X73776190Y-74904761D01*
X73680952Y-74952380D01*
X73490476Y-74952380D01*
X73395238Y-74904761D01*
X73300000Y-74809523D01*
X73252380Y-74619047D01*
X73252380Y-74285714D01*
X73300000Y-74095238D01*
X73395238Y-74000000D01*
X73490476Y-73952380D01*
X88928571Y-72928571D02*
X89261904Y-72928571D01*
X89404761Y-73452380D02*
X88928571Y-73452380D01*
X88928571Y-72452380D01*
X89404761Y-72452380D01*
X89785714Y-73404761D02*
X89928571Y-73452380D01*
X90166666Y-73452380D01*
X90261904Y-73404761D01*
X90309523Y-73357142D01*
X90357142Y-73261904D01*
X90357142Y-73166666D01*
X90309523Y-73071428D01*
X90261904Y-73023809D01*
X90166666Y-72976190D01*
X89976190Y-72928571D01*
X89880952Y-72880952D01*
X89833333Y-72833333D01*
X89785714Y-72738095D01*
X89785714Y-72642857D01*
X89833333Y-72547619D01*
X89880952Y-72500000D01*
X89976190Y-72452380D01*
X90214285Y-72452380D01*
X90357142Y-72500000D01*
X90785714Y-73452380D02*
X90785714Y-72452380D01*
X91166666Y-72452380D01*
X91261904Y-72500000D01*
X91309523Y-72547619D01*
X91357142Y-72642857D01*
X91357142Y-72785714D01*
X91309523Y-72880952D01*
X91261904Y-72928571D01*
X91166666Y-72976190D01*
X90785714Y-72976190D01*
X91785714Y-73071428D02*
X92547619Y-73071428D01*
X92928571Y-72452380D02*
X93166666Y-73452380D01*
X93357142Y-72738095D01*
X93547619Y-73452380D01*
X93785714Y-72452380D01*
X94738095Y-73452380D02*
X94404761Y-72976190D01*
X94166666Y-73452380D02*
X94166666Y-72452380D01*
X94547619Y-72452380D01*
X94642857Y-72500000D01*
X94690476Y-72547619D01*
X94738095Y-72642857D01*
X94738095Y-72785714D01*
X94690476Y-72880952D01*
X94642857Y-72928571D01*
X94547619Y-72976190D01*
X94166666Y-72976190D01*
X95357142Y-72452380D02*
X95547619Y-72452380D01*
X95642857Y-72500000D01*
X95738095Y-72595238D01*
X95785714Y-72785714D01*
X95785714Y-73119047D01*
X95738095Y-73309523D01*
X95642857Y-73404761D01*
X95547619Y-73452380D01*
X95357142Y-73452380D01*
X95261904Y-73404761D01*
X95166666Y-73309523D01*
X95119047Y-73119047D01*
X95119047Y-72785714D01*
X95166666Y-72595238D01*
X95261904Y-72500000D01*
X95357142Y-72452380D01*
X96404761Y-72452380D02*
X96595238Y-72452380D01*
X96690476Y-72500000D01*
X96785714Y-72595238D01*
X96833333Y-72785714D01*
X96833333Y-73119047D01*
X96785714Y-73309523D01*
X96690476Y-73404761D01*
X96595238Y-73452380D01*
X96404761Y-73452380D01*
X96309523Y-73404761D01*
X96214285Y-73309523D01*
X96166666Y-73119047D01*
X96166666Y-72785714D01*
X96214285Y-72595238D01*
X96309523Y-72500000D01*
X96404761Y-72452380D01*
X97261904Y-73452380D02*
X97261904Y-72452380D01*
X97595238Y-73166666D01*
X97928571Y-72452380D01*
X97928571Y-73452380D01*
X98404761Y-73071428D02*
X99166666Y-73071428D01*
X99833333Y-72452380D02*
X99928571Y-72452380D01*
X100023809Y-72500000D01*
X100071428Y-72547619D01*
X100119047Y-72642857D01*
X100166666Y-72833333D01*
X100166666Y-73071428D01*
X100119047Y-73261904D01*
X100071428Y-73357142D01*
X100023809Y-73404761D01*
X99928571Y-73452380D01*
X99833333Y-73452380D01*
X99738095Y-73404761D01*
X99690476Y-73357142D01*
X99642857Y-73261904D01*
X99595238Y-73071428D01*
X99595238Y-72833333D01*
X99642857Y-72642857D01*
X99690476Y-72547619D01*
X99738095Y-72500000D01*
X99833333Y-72452380D01*
X100547619Y-72547619D02*
X100595238Y-72500000D01*
X100690476Y-72452380D01*
X100928571Y-72452380D01*
X101023809Y-72500000D01*
X101071428Y-72547619D01*
X101119047Y-72642857D01*
X101119047Y-72738095D01*
X101071428Y-72880952D01*
X100500000Y-73452380D01*
X101119047Y-73452380D01*
X79119047Y-87471428D02*
X79880952Y-87471428D01*
X79500000Y-87852380D02*
X79500000Y-87090476D01*
X79752380Y-106800000D02*
X78752380Y-106800000D01*
X78752380Y-106133333D02*
X78752380Y-105942857D01*
X78800000Y-105847619D01*
X78895238Y-105752380D01*
X79085714Y-105704761D01*
X79419047Y-105704761D01*
X79609523Y-105752380D01*
X79704761Y-105847619D01*
X79752380Y-105942857D01*
X79752380Y-106133333D01*
X79704761Y-106228571D01*
X79609523Y-106323809D01*
X79419047Y-106371428D01*
X79085714Y-106371428D01*
X78895238Y-106323809D01*
X78800000Y-106228571D01*
X78752380Y-106133333D01*
X79085714Y-104847619D02*
X79752380Y-104847619D01*
X78704761Y-105085714D02*
X79419047Y-105323809D01*
X79419047Y-104704761D01*
X110238095Y-70302380D02*
X110238095Y-71111904D01*
X110285714Y-71207142D01*
X110333333Y-71254761D01*
X110428571Y-71302380D01*
X110619047Y-71302380D01*
X110714285Y-71254761D01*
X110761904Y-71207142D01*
X110809523Y-71111904D01*
X110809523Y-70302380D01*
X111238095Y-71254761D02*
X111380952Y-71302380D01*
X111619047Y-71302380D01*
X111714285Y-71254761D01*
X111761904Y-71207142D01*
X111809523Y-71111904D01*
X111809523Y-71016666D01*
X111761904Y-70921428D01*
X111714285Y-70873809D01*
X111619047Y-70826190D01*
X111428571Y-70778571D01*
X111333333Y-70730952D01*
X111285714Y-70683333D01*
X111238095Y-70588095D01*
X111238095Y-70492857D01*
X111285714Y-70397619D01*
X111333333Y-70350000D01*
X111428571Y-70302380D01*
X111666666Y-70302380D01*
X111809523Y-70350000D01*
X112571428Y-70778571D02*
X112714285Y-70826190D01*
X112761904Y-70873809D01*
X112809523Y-70969047D01*
X112809523Y-71111904D01*
X112761904Y-71207142D01*
X112714285Y-71254761D01*
X112619047Y-71302380D01*
X112238095Y-71302380D01*
X112238095Y-70302380D01*
X112571428Y-70302380D01*
X112666666Y-70350000D01*
X112714285Y-70397619D01*
X112761904Y-70492857D01*
X112761904Y-70588095D01*
X112714285Y-70683333D01*
X112666666Y-70730952D01*
X112571428Y-70778571D01*
X112238095Y-70778571D01*
X109738095Y-72952380D02*
X109738095Y-71952380D01*
X110071428Y-72666666D01*
X110404761Y-71952380D01*
X110404761Y-72952380D01*
X110880952Y-72952380D02*
X110880952Y-72285714D01*
X110880952Y-71952380D02*
X110833333Y-72000000D01*
X110880952Y-72047619D01*
X110928571Y-72000000D01*
X110880952Y-71952380D01*
X110880952Y-72047619D01*
X111785714Y-72904761D02*
X111690476Y-72952380D01*
X111500000Y-72952380D01*
X111404761Y-72904761D01*
X111357142Y-72857142D01*
X111309523Y-72761904D01*
X111309523Y-72476190D01*
X111357142Y-72380952D01*
X111404761Y-72333333D01*
X111500000Y-72285714D01*
X111690476Y-72285714D01*
X111785714Y-72333333D01*
X112214285Y-72952380D02*
X112214285Y-72285714D01*
X112214285Y-72476190D02*
X112261904Y-72380952D01*
X112309523Y-72333333D01*
X112404761Y-72285714D01*
X112500000Y-72285714D01*
X112976190Y-72952380D02*
X112880952Y-72904761D01*
X112833333Y-72857142D01*
X112785714Y-72761904D01*
X112785714Y-72476190D01*
X112833333Y-72380952D01*
X112880952Y-72333333D01*
X112976190Y-72285714D01*
X113119047Y-72285714D01*
X113214285Y-72333333D01*
X113261904Y-72380952D01*
X113309523Y-72476190D01*
X113309523Y-72761904D01*
X113261904Y-72857142D01*
X113214285Y-72904761D01*
X113119047Y-72952380D01*
X112976190Y-72952380D01*
X107214285Y-74983333D02*
X107166666Y-74935714D01*
X107071428Y-74792857D01*
X107023809Y-74697619D01*
X106976190Y-74554761D01*
X106928571Y-74316666D01*
X106928571Y-74126190D01*
X106976190Y-73888095D01*
X107023809Y-73745238D01*
X107071428Y-73650000D01*
X107166666Y-73507142D01*
X107214285Y-73459523D01*
X107595238Y-74602380D02*
X107595238Y-73602380D01*
X107976190Y-73602380D01*
X108071428Y-73650000D01*
X108119047Y-73697619D01*
X108166666Y-73792857D01*
X108166666Y-73935714D01*
X108119047Y-74030952D01*
X108071428Y-74078571D01*
X107976190Y-74126190D01*
X107595238Y-74126190D01*
X108738095Y-74602380D02*
X108642857Y-74554761D01*
X108595238Y-74507142D01*
X108547619Y-74411904D01*
X108547619Y-74126190D01*
X108595238Y-74030952D01*
X108642857Y-73983333D01*
X108738095Y-73935714D01*
X108880952Y-73935714D01*
X108976190Y-73983333D01*
X109023809Y-74030952D01*
X109071428Y-74126190D01*
X109071428Y-74411904D01*
X109023809Y-74507142D01*
X108976190Y-74554761D01*
X108880952Y-74602380D01*
X108738095Y-74602380D01*
X109404761Y-73935714D02*
X109595238Y-74602380D01*
X109785714Y-74126190D01*
X109976190Y-74602380D01*
X110166666Y-73935714D01*
X110928571Y-74554761D02*
X110833333Y-74602380D01*
X110642857Y-74602380D01*
X110547619Y-74554761D01*
X110500000Y-74459523D01*
X110500000Y-74078571D01*
X110547619Y-73983333D01*
X110642857Y-73935714D01*
X110833333Y-73935714D01*
X110928571Y-73983333D01*
X110976190Y-74078571D01*
X110976190Y-74173809D01*
X110500000Y-74269047D01*
X111404761Y-74602380D02*
X111404761Y-73935714D01*
X111404761Y-74126190D02*
X111452380Y-74030952D01*
X111500000Y-73983333D01*
X111595238Y-73935714D01*
X111690476Y-73935714D01*
X112928571Y-74602380D02*
X112833333Y-74554761D01*
X112785714Y-74507142D01*
X112738095Y-74411904D01*
X112738095Y-74126190D01*
X112785714Y-74030952D01*
X112833333Y-73983333D01*
X112928571Y-73935714D01*
X113071428Y-73935714D01*
X113166666Y-73983333D01*
X113214285Y-74030952D01*
X113261904Y-74126190D01*
X113261904Y-74411904D01*
X113214285Y-74507142D01*
X113166666Y-74554761D01*
X113071428Y-74602380D01*
X112928571Y-74602380D01*
X113690476Y-73935714D02*
X113690476Y-74602380D01*
X113690476Y-74030952D02*
X113738095Y-73983333D01*
X113833333Y-73935714D01*
X113976190Y-73935714D01*
X114071428Y-73983333D01*
X114119047Y-74078571D01*
X114119047Y-74602380D01*
X114738095Y-74602380D02*
X114642857Y-74554761D01*
X114595238Y-74459523D01*
X114595238Y-73602380D01*
X115023809Y-73935714D02*
X115261904Y-74602380D01*
X115500000Y-73935714D02*
X115261904Y-74602380D01*
X115166666Y-74840476D01*
X115119047Y-74888095D01*
X115023809Y-74935714D01*
X115785714Y-74983333D02*
X115833333Y-74935714D01*
X115928571Y-74792857D01*
X115976190Y-74697619D01*
X116023809Y-74554761D01*
X116071428Y-74316666D01*
X116071428Y-74126190D01*
X116023809Y-73888095D01*
X115976190Y-73745238D01*
X115928571Y-73650000D01*
X115833333Y-73507142D01*
X115785714Y-73459523D01*
X76252380Y-107676190D02*
X76252380Y-107057142D01*
X76633333Y-107390476D01*
X76633333Y-107247619D01*
X76680952Y-107152380D01*
X76728571Y-107104761D01*
X76823809Y-107057142D01*
X77061904Y-107057142D01*
X77157142Y-107104761D01*
X77204761Y-107152380D01*
X77252380Y-107247619D01*
X77252380Y-107533333D01*
X77204761Y-107628571D01*
X77157142Y-107676190D01*
X77157142Y-106628571D02*
X77204761Y-106580952D01*
X77252380Y-106628571D01*
X77204761Y-106676190D01*
X77157142Y-106628571D01*
X77252380Y-106628571D01*
X76252380Y-106247619D02*
X76252380Y-105628571D01*
X76633333Y-105961904D01*
X76633333Y-105819047D01*
X76680952Y-105723809D01*
X76728571Y-105676190D01*
X76823809Y-105628571D01*
X77061904Y-105628571D01*
X77157142Y-105676190D01*
X77204761Y-105723809D01*
X77252380Y-105819047D01*
X77252380Y-106104761D01*
X77204761Y-106200000D01*
X77157142Y-106247619D01*
X76252380Y-105342857D02*
X77252380Y-105009523D01*
X76252380Y-104676190D01*
X108066666Y-116152380D02*
X107590476Y-116152380D01*
X107542857Y-116628571D01*
X107590476Y-116580952D01*
X107685714Y-116533333D01*
X107923809Y-116533333D01*
X108019047Y-116580952D01*
X108066666Y-116628571D01*
X108114285Y-116723809D01*
X108114285Y-116961904D01*
X108066666Y-117057142D01*
X108019047Y-117104761D01*
X107923809Y-117152380D01*
X107685714Y-117152380D01*
X107590476Y-117104761D01*
X107542857Y-117057142D01*
X108400000Y-116152380D02*
X108733333Y-117152380D01*
X109066666Y-116152380D01*
X110161904Y-117152380D02*
X110161904Y-116152380D01*
X110638095Y-117152380D02*
X110638095Y-116152380D01*
X111209523Y-117152380D01*
X111209523Y-116152380D01*
X108752380Y-106800000D02*
X107752380Y-106800000D01*
X107752380Y-106133333D02*
X107752380Y-105942857D01*
X107800000Y-105847619D01*
X107895238Y-105752380D01*
X108085714Y-105704761D01*
X108419047Y-105704761D01*
X108609523Y-105752380D01*
X108704761Y-105847619D01*
X108752380Y-105942857D01*
X108752380Y-106133333D01*
X108704761Y-106228571D01*
X108609523Y-106323809D01*
X108419047Y-106371428D01*
X108085714Y-106371428D01*
X107895238Y-106323809D01*
X107800000Y-106228571D01*
X107752380Y-106133333D01*
X107752380Y-104800000D02*
X107752380Y-105276190D01*
X108228571Y-105323809D01*
X108180952Y-105276190D01*
X108133333Y-105180952D01*
X108133333Y-104942857D01*
X108180952Y-104847619D01*
X108228571Y-104800000D01*
X108323809Y-104752380D01*
X108561904Y-104752380D01*
X108657142Y-104800000D01*
X108704761Y-104847619D01*
X108752380Y-104942857D01*
X108752380Y-105180952D01*
X108704761Y-105276190D01*
X108657142Y-105323809D01*
X70728571Y-76952380D02*
X70728571Y-75952380D01*
X71061904Y-76666666D01*
X71395238Y-75952380D01*
X71395238Y-76952380D01*
X72061904Y-75952380D02*
X72252380Y-75952380D01*
X72347619Y-76000000D01*
X72442857Y-76095238D01*
X72490476Y-76285714D01*
X72490476Y-76619047D01*
X72442857Y-76809523D01*
X72347619Y-76904761D01*
X72252380Y-76952380D01*
X72061904Y-76952380D01*
X71966666Y-76904761D01*
X71871428Y-76809523D01*
X71823809Y-76619047D01*
X71823809Y-76285714D01*
X71871428Y-76095238D01*
X71966666Y-76000000D01*
X72061904Y-75952380D01*
X72871428Y-76904761D02*
X73014285Y-76952380D01*
X73252380Y-76952380D01*
X73347619Y-76904761D01*
X73395238Y-76857142D01*
X73442857Y-76761904D01*
X73442857Y-76666666D01*
X73395238Y-76571428D01*
X73347619Y-76523809D01*
X73252380Y-76476190D01*
X73061904Y-76428571D01*
X72966666Y-76380952D01*
X72919047Y-76333333D01*
X72871428Y-76238095D01*
X72871428Y-76142857D01*
X72919047Y-76047619D01*
X72966666Y-76000000D01*
X73061904Y-75952380D01*
X73300000Y-75952380D01*
X73442857Y-76000000D01*
X73871428Y-76952380D02*
X73871428Y-75952380D01*
X83800000Y-106861904D02*
X83752380Y-106957142D01*
X83752380Y-107100000D01*
X83800000Y-107242857D01*
X83895238Y-107338095D01*
X83990476Y-107385714D01*
X84180952Y-107433333D01*
X84323809Y-107433333D01*
X84514285Y-107385714D01*
X84609523Y-107338095D01*
X84704761Y-107242857D01*
X84752380Y-107100000D01*
X84752380Y-107004761D01*
X84704761Y-106861904D01*
X84657142Y-106814285D01*
X84323809Y-106814285D01*
X84323809Y-107004761D01*
X84752380Y-106385714D02*
X83752380Y-106385714D01*
X84752380Y-105814285D01*
X83752380Y-105814285D01*
X84752380Y-105338095D02*
X83752380Y-105338095D01*
X83752380Y-105100000D01*
X83800000Y-104957142D01*
X83895238Y-104861904D01*
X83990476Y-104814285D01*
X84180952Y-104766666D01*
X84323809Y-104766666D01*
X84514285Y-104814285D01*
X84609523Y-104861904D01*
X84704761Y-104957142D01*
X84752380Y-105100000D01*
X84752380Y-105338095D01*
X105280952Y-109952380D02*
X105852380Y-109952380D01*
X105566666Y-110952380D02*
X105566666Y-109952380D01*
X106566666Y-110904761D02*
X106471428Y-110952380D01*
X106280952Y-110952380D01*
X106185714Y-110904761D01*
X106138095Y-110809523D01*
X106138095Y-110428571D01*
X106185714Y-110333333D01*
X106280952Y-110285714D01*
X106471428Y-110285714D01*
X106566666Y-110333333D01*
X106614285Y-110428571D01*
X106614285Y-110523809D01*
X106138095Y-110619047D01*
X107042857Y-110952380D02*
X107042857Y-110285714D01*
X107042857Y-110476190D02*
X107090476Y-110380952D01*
X107138095Y-110333333D01*
X107233333Y-110285714D01*
X107328571Y-110285714D01*
X107661904Y-110952380D02*
X107661904Y-110285714D01*
X107661904Y-110380952D02*
X107709523Y-110333333D01*
X107804761Y-110285714D01*
X107947619Y-110285714D01*
X108042857Y-110333333D01*
X108090476Y-110428571D01*
X108090476Y-110952380D01*
X108090476Y-110428571D02*
X108138095Y-110333333D01*
X108233333Y-110285714D01*
X108376190Y-110285714D01*
X108471428Y-110333333D01*
X108519047Y-110428571D01*
X108519047Y-110952380D01*
X110090476Y-110428571D02*
X110233333Y-110476190D01*
X110280952Y-110523809D01*
X110328571Y-110619047D01*
X110328571Y-110761904D01*
X110280952Y-110857142D01*
X110233333Y-110904761D01*
X110138095Y-110952380D01*
X109757142Y-110952380D01*
X109757142Y-109952380D01*
X110090476Y-109952380D01*
X110185714Y-110000000D01*
X110233333Y-110047619D01*
X110280952Y-110142857D01*
X110280952Y-110238095D01*
X110233333Y-110333333D01*
X110185714Y-110380952D01*
X110090476Y-110428571D01*
X109757142Y-110428571D01*
X110900000Y-110952380D02*
X110804761Y-110904761D01*
X110757142Y-110809523D01*
X110757142Y-109952380D01*
X111423809Y-110952380D02*
X111328571Y-110904761D01*
X111280952Y-110857142D01*
X111233333Y-110761904D01*
X111233333Y-110476190D01*
X111280952Y-110380952D01*
X111328571Y-110333333D01*
X111423809Y-110285714D01*
X111566666Y-110285714D01*
X111661904Y-110333333D01*
X111709523Y-110380952D01*
X111757142Y-110476190D01*
X111757142Y-110761904D01*
X111709523Y-110857142D01*
X111661904Y-110904761D01*
X111566666Y-110952380D01*
X111423809Y-110952380D01*
X112614285Y-110904761D02*
X112519047Y-110952380D01*
X112328571Y-110952380D01*
X112233333Y-110904761D01*
X112185714Y-110857142D01*
X112138095Y-110761904D01*
X112138095Y-110476190D01*
X112185714Y-110380952D01*
X112233333Y-110333333D01*
X112328571Y-110285714D01*
X112519047Y-110285714D01*
X112614285Y-110333333D01*
X113042857Y-110952380D02*
X113042857Y-109952380D01*
X113138095Y-110571428D02*
X113423809Y-110952380D01*
X113423809Y-110285714D02*
X113042857Y-110666666D01*
X81047619Y-100452380D02*
X80714285Y-99976190D01*
X80476190Y-100452380D02*
X80476190Y-99452380D01*
X80857142Y-99452380D01*
X80952380Y-99500000D01*
X81000000Y-99547619D01*
X81047619Y-99642857D01*
X81047619Y-99785714D01*
X81000000Y-99880952D01*
X80952380Y-99928571D01*
X80857142Y-99976190D01*
X80476190Y-99976190D01*
X81476190Y-99928571D02*
X81809523Y-99928571D01*
X81952380Y-100452380D02*
X81476190Y-100452380D01*
X81476190Y-99452380D01*
X81952380Y-99452380D01*
X82333333Y-100404761D02*
X82476190Y-100452380D01*
X82714285Y-100452380D01*
X82809523Y-100404761D01*
X82857142Y-100357142D01*
X82904761Y-100261904D01*
X82904761Y-100166666D01*
X82857142Y-100071428D01*
X82809523Y-100023809D01*
X82714285Y-99976190D01*
X82523809Y-99928571D01*
X82428571Y-99880952D01*
X82380952Y-99833333D01*
X82333333Y-99738095D01*
X82333333Y-99642857D01*
X82380952Y-99547619D01*
X82428571Y-99500000D01*
X82523809Y-99452380D01*
X82761904Y-99452380D01*
X82904761Y-99500000D01*
X83333333Y-99928571D02*
X83666666Y-99928571D01*
X83809523Y-100452380D02*
X83333333Y-100452380D01*
X83333333Y-99452380D01*
X83809523Y-99452380D01*
X84095238Y-99452380D02*
X84666666Y-99452380D01*
X84380952Y-100452380D02*
X84380952Y-99452380D01*
X111252380Y-106385714D02*
X110252380Y-106385714D01*
X111252380Y-105814285D01*
X110252380Y-105814285D01*
X111157142Y-104766666D02*
X111204761Y-104814285D01*
X111252380Y-104957142D01*
X111252380Y-105052380D01*
X111204761Y-105195238D01*
X111109523Y-105290476D01*
X111014285Y-105338095D01*
X110823809Y-105385714D01*
X110680952Y-105385714D01*
X110490476Y-105338095D01*
X110395238Y-105290476D01*
X110300000Y-105195238D01*
X110252380Y-105052380D01*
X110252380Y-104957142D01*
X110300000Y-104814285D01*
X110347619Y-104766666D01*
X70823809Y-83952380D02*
X71442857Y-83952380D01*
X71109523Y-84333333D01*
X71252380Y-84333333D01*
X71347619Y-84380952D01*
X71395238Y-84428571D01*
X71442857Y-84523809D01*
X71442857Y-84761904D01*
X71395238Y-84857142D01*
X71347619Y-84904761D01*
X71252380Y-84952380D01*
X70966666Y-84952380D01*
X70871428Y-84904761D01*
X70823809Y-84857142D01*
X71871428Y-84857142D02*
X71919047Y-84904761D01*
X71871428Y-84952380D01*
X71823809Y-84904761D01*
X71871428Y-84857142D01*
X71871428Y-84952380D01*
X72252380Y-83952380D02*
X72871428Y-83952380D01*
X72538095Y-84333333D01*
X72680952Y-84333333D01*
X72776190Y-84380952D01*
X72823809Y-84428571D01*
X72871428Y-84523809D01*
X72871428Y-84761904D01*
X72823809Y-84857142D01*
X72776190Y-84904761D01*
X72680952Y-84952380D01*
X72395238Y-84952380D01*
X72300000Y-84904761D01*
X72252380Y-84857142D01*
X73157142Y-83952380D02*
X73490476Y-84952380D01*
X73823809Y-83952380D01*
X78852380Y-89942857D02*
X78852380Y-90419047D01*
X77852380Y-90419047D01*
X78328571Y-89609523D02*
X78328571Y-89276190D01*
X78852380Y-89133333D02*
X78852380Y-89609523D01*
X77852380Y-89609523D01*
X77852380Y-89133333D01*
X78852380Y-88704761D02*
X77852380Y-88704761D01*
X77852380Y-88466666D01*
X77900000Y-88323809D01*
X77995238Y-88228571D01*
X78090476Y-88180952D01*
X78280952Y-88133333D01*
X78423809Y-88133333D01*
X78614285Y-88180952D01*
X78709523Y-88228571D01*
X78804761Y-88323809D01*
X78852380Y-88466666D01*
X78852380Y-88704761D01*
X118452380Y-78690476D02*
X118452380Y-79166666D01*
X118928571Y-79214285D01*
X118880952Y-79166666D01*
X118833333Y-79071428D01*
X118833333Y-78833333D01*
X118880952Y-78738095D01*
X118928571Y-78690476D01*
X119023809Y-78642857D01*
X119261904Y-78642857D01*
X119357142Y-78690476D01*
X119404761Y-78738095D01*
X119452380Y-78833333D01*
X119452380Y-79071428D01*
X119404761Y-79166666D01*
X119357142Y-79214285D01*
X118452380Y-78357142D02*
X119452380Y-78023809D01*
X118452380Y-77690476D01*
X74476190Y-87104761D02*
X74619047Y-87152380D01*
X74857142Y-87152380D01*
X74952380Y-87104761D01*
X75000000Y-87057142D01*
X75047619Y-86961904D01*
X75047619Y-86866666D01*
X75000000Y-86771428D01*
X74952380Y-86723809D01*
X74857142Y-86676190D01*
X74666666Y-86628571D01*
X74571428Y-86580952D01*
X74523809Y-86533333D01*
X74476190Y-86438095D01*
X74476190Y-86342857D01*
X74523809Y-86247619D01*
X74571428Y-86200000D01*
X74666666Y-86152380D01*
X74904761Y-86152380D01*
X75047619Y-86200000D01*
X75476190Y-87152380D02*
X75476190Y-86152380D01*
X75857142Y-86152380D01*
X75952380Y-86200000D01*
X76000000Y-86247619D01*
X76047619Y-86342857D01*
X76047619Y-86485714D01*
X76000000Y-86580952D01*
X75952380Y-86628571D01*
X75857142Y-86676190D01*
X75476190Y-86676190D01*
X76476190Y-87152380D02*
X76476190Y-86152380D01*
X93642857Y-99928571D02*
X93785714Y-99976190D01*
X93833333Y-100023809D01*
X93880952Y-100119047D01*
X93880952Y-100261904D01*
X93833333Y-100357142D01*
X93785714Y-100404761D01*
X93690476Y-100452380D01*
X93309523Y-100452380D01*
X93309523Y-99452380D01*
X93642857Y-99452380D01*
X93738095Y-99500000D01*
X93785714Y-99547619D01*
X93833333Y-99642857D01*
X93833333Y-99738095D01*
X93785714Y-99833333D01*
X93738095Y-99880952D01*
X93642857Y-99928571D01*
X93309523Y-99928571D01*
X94500000Y-99452380D02*
X94690476Y-99452380D01*
X94785714Y-99500000D01*
X94880952Y-99595238D01*
X94928571Y-99785714D01*
X94928571Y-100119047D01*
X94880952Y-100309523D01*
X94785714Y-100404761D01*
X94690476Y-100452380D01*
X94500000Y-100452380D01*
X94404761Y-100404761D01*
X94309523Y-100309523D01*
X94261904Y-100119047D01*
X94261904Y-99785714D01*
X94309523Y-99595238D01*
X94404761Y-99500000D01*
X94500000Y-99452380D01*
X95547619Y-99452380D02*
X95738095Y-99452380D01*
X95833333Y-99500000D01*
X95928571Y-99595238D01*
X95976190Y-99785714D01*
X95976190Y-100119047D01*
X95928571Y-100309523D01*
X95833333Y-100404761D01*
X95738095Y-100452380D01*
X95547619Y-100452380D01*
X95452380Y-100404761D01*
X95357142Y-100309523D01*
X95309523Y-100119047D01*
X95309523Y-99785714D01*
X95357142Y-99595238D01*
X95452380Y-99500000D01*
X95547619Y-99452380D01*
X96261904Y-99452380D02*
X96833333Y-99452380D01*
X96547619Y-100452380D02*
X96547619Y-99452380D01*
X72104761Y-72357142D02*
X72057142Y-72404761D01*
X71914285Y-72452380D01*
X71819047Y-72452380D01*
X71676190Y-72404761D01*
X71580952Y-72309523D01*
X71533333Y-72214285D01*
X71485714Y-72023809D01*
X71485714Y-71880952D01*
X71533333Y-71690476D01*
X71580952Y-71595238D01*
X71676190Y-71500000D01*
X71819047Y-71452380D01*
X71914285Y-71452380D01*
X72057142Y-71500000D01*
X72104761Y-71547619D01*
X73009523Y-72452380D02*
X72533333Y-72452380D01*
X72533333Y-71452380D01*
X73342857Y-72452380D02*
X73342857Y-71452380D01*
X73914285Y-72452380D02*
X73485714Y-71880952D01*
X73914285Y-71452380D02*
X73342857Y-72023809D01*
D12*
X101078571Y-118500000D02*
X101078571Y-119214285D01*
X101792857Y-119285714D01*
X101721428Y-119214285D01*
X101650000Y-119071428D01*
X101650000Y-118714285D01*
X101721428Y-118571428D01*
X101792857Y-118500000D01*
X101935714Y-118428571D01*
X102292857Y-118428571D01*
X102435714Y-118500000D01*
X102507142Y-118571428D01*
X102578571Y-118714285D01*
X102578571Y-119071428D01*
X102507142Y-119214285D01*
X102435714Y-119285714D01*
X101078571Y-118000000D02*
X102578571Y-117500000D01*
X101078571Y-117000000D01*
X102578571Y-115357142D02*
X101078571Y-115357142D01*
X102578571Y-114642857D02*
X101078571Y-114642857D01*
X102578571Y-113785714D01*
X101078571Y-113785714D01*
D11*
X106647619Y-84952380D02*
X106600000Y-84904761D01*
X106552380Y-84809523D01*
X106552380Y-84571428D01*
X106600000Y-84476190D01*
X106647619Y-84428571D01*
X106742857Y-84380952D01*
X106838095Y-84380952D01*
X106980952Y-84428571D01*
X107552380Y-85000000D01*
X107552380Y-84380952D01*
X107457142Y-83952380D02*
X107504761Y-83904761D01*
X107552380Y-83952380D01*
X107504761Y-84000000D01*
X107457142Y-83952380D01*
X107552380Y-83952380D01*
X106647619Y-83523809D02*
X106600000Y-83476190D01*
X106552380Y-83380952D01*
X106552380Y-83142857D01*
X106600000Y-83047619D01*
X106647619Y-83000000D01*
X106742857Y-82952380D01*
X106838095Y-82952380D01*
X106980952Y-83000000D01*
X107552380Y-83571428D01*
X107552380Y-82952380D01*
X106885714Y-82095238D02*
X107552380Y-82095238D01*
X106885714Y-82523809D02*
X107409523Y-82523809D01*
X107504761Y-82476190D01*
X107552380Y-82380952D01*
X107552380Y-82238095D01*
X107504761Y-82142857D01*
X107457142Y-82095238D01*
X105152380Y-107676190D02*
X105152380Y-107057142D01*
X105533333Y-107390476D01*
X105533333Y-107247619D01*
X105580952Y-107152380D01*
X105628571Y-107104761D01*
X105723809Y-107057142D01*
X105961904Y-107057142D01*
X106057142Y-107104761D01*
X106104761Y-107152380D01*
X106152380Y-107247619D01*
X106152380Y-107533333D01*
X106104761Y-107628571D01*
X106057142Y-107676190D01*
X106057142Y-106628571D02*
X106104761Y-106580952D01*
X106152380Y-106628571D01*
X106104761Y-106676190D01*
X106057142Y-106628571D01*
X106152380Y-106628571D01*
X105152380Y-106247619D02*
X105152380Y-105628571D01*
X105533333Y-105961904D01*
X105533333Y-105819047D01*
X105580952Y-105723809D01*
X105628571Y-105676190D01*
X105723809Y-105628571D01*
X105961904Y-105628571D01*
X106057142Y-105676190D01*
X106104761Y-105723809D01*
X106152380Y-105819047D01*
X106152380Y-106104761D01*
X106104761Y-106200000D01*
X106057142Y-106247619D01*
X105152380Y-105342857D02*
X106152380Y-105009523D01*
X105152380Y-104676190D01*
X90838095Y-104202380D02*
X90361904Y-104202380D01*
X90314285Y-104678571D01*
X90361904Y-104630952D01*
X90457142Y-104583333D01*
X90695238Y-104583333D01*
X90790476Y-104630952D01*
X90838095Y-104678571D01*
X90885714Y-104773809D01*
X90885714Y-105011904D01*
X90838095Y-105107142D01*
X90790476Y-105154761D01*
X90695238Y-105202380D01*
X90457142Y-105202380D01*
X90361904Y-105154761D01*
X90314285Y-105107142D01*
X90861904Y-107550000D02*
X90766666Y-107502380D01*
X90623809Y-107502380D01*
X90480952Y-107550000D01*
X90385714Y-107645238D01*
X90338095Y-107740476D01*
X90290476Y-107930952D01*
X90290476Y-108073809D01*
X90338095Y-108264285D01*
X90385714Y-108359523D01*
X90480952Y-108454761D01*
X90623809Y-108502380D01*
X90719047Y-108502380D01*
X90861904Y-108454761D01*
X90909523Y-108407142D01*
X90909523Y-108073809D01*
X90719047Y-108073809D01*
X90909523Y-111802380D02*
X90576190Y-111326190D01*
X90338095Y-111802380D02*
X90338095Y-110802380D01*
X90719047Y-110802380D01*
X90814285Y-110850000D01*
X90861904Y-110897619D01*
X90909523Y-110992857D01*
X90909523Y-111135714D01*
X90861904Y-111230952D01*
X90814285Y-111278571D01*
X90719047Y-111326190D01*
X90338095Y-111326190D01*
X90314285Y-114102380D02*
X90885714Y-114102380D01*
X90600000Y-115102380D02*
X90600000Y-114102380D01*
X112900000Y-106861904D02*
X112852380Y-106957142D01*
X112852380Y-107100000D01*
X112900000Y-107242857D01*
X112995238Y-107338095D01*
X113090476Y-107385714D01*
X113280952Y-107433333D01*
X113423809Y-107433333D01*
X113614285Y-107385714D01*
X113709523Y-107338095D01*
X113804761Y-107242857D01*
X113852380Y-107100000D01*
X113852380Y-107004761D01*
X113804761Y-106861904D01*
X113757142Y-106814285D01*
X113423809Y-106814285D01*
X113423809Y-107004761D01*
X113852380Y-106385714D02*
X112852380Y-106385714D01*
X113852380Y-105814285D01*
X112852380Y-105814285D01*
X113852380Y-105338095D02*
X112852380Y-105338095D01*
X112852380Y-105100000D01*
X112900000Y-104957142D01*
X112995238Y-104861904D01*
X113090476Y-104814285D01*
X113280952Y-104766666D01*
X113423809Y-104766666D01*
X113614285Y-104814285D01*
X113709523Y-104861904D01*
X113804761Y-104957142D01*
X113852380Y-105100000D01*
X113852380Y-105338095D01*
X105785714Y-99452380D02*
X105785714Y-100261904D01*
X105833333Y-100357142D01*
X105880952Y-100404761D01*
X105976190Y-100452380D01*
X106166666Y-100452380D01*
X106261904Y-100404761D01*
X106309523Y-100357142D01*
X106357142Y-100261904D01*
X106357142Y-99452380D01*
X106785714Y-100404761D02*
X106928571Y-100452380D01*
X107166666Y-100452380D01*
X107261904Y-100404761D01*
X107309523Y-100357142D01*
X107357142Y-100261904D01*
X107357142Y-100166666D01*
X107309523Y-100071428D01*
X107261904Y-100023809D01*
X107166666Y-99976190D01*
X106976190Y-99928571D01*
X106880952Y-99880952D01*
X106833333Y-99833333D01*
X106785714Y-99738095D01*
X106785714Y-99642857D01*
X106833333Y-99547619D01*
X106880952Y-99500000D01*
X106976190Y-99452380D01*
X107214285Y-99452380D01*
X107357142Y-99500000D01*
X107785714Y-99928571D02*
X108119047Y-99928571D01*
X108261904Y-100452380D02*
X107785714Y-100452380D01*
X107785714Y-99452380D01*
X108261904Y-99452380D01*
X109261904Y-100452380D02*
X108928571Y-99976190D01*
X108690476Y-100452380D02*
X108690476Y-99452380D01*
X109071428Y-99452380D01*
X109166666Y-99500000D01*
X109214285Y-99547619D01*
X109261904Y-99642857D01*
X109261904Y-99785714D01*
X109214285Y-99880952D01*
X109166666Y-99928571D01*
X109071428Y-99976190D01*
X108690476Y-99976190D01*
D10*
X103500000Y-101000000D02*
X115500000Y-101000000D01*
X115500000Y-104500000D02*
X103500000Y-104500000D01*
X86500000Y-104500000D02*
X74500000Y-104500000D01*
X74500000Y-104500000D02*
X74500000Y-119500000D01*
D11*
X28757142Y-83919047D02*
X28804761Y-83966666D01*
X28852380Y-84109523D01*
X28852380Y-84204761D01*
X28804761Y-84347619D01*
X28709523Y-84442857D01*
X28614285Y-84490476D01*
X28423809Y-84538095D01*
X28280952Y-84538095D01*
X28090476Y-84490476D01*
X27995238Y-84442857D01*
X27900000Y-84347619D01*
X27852380Y-84204761D01*
X27852380Y-84109523D01*
X27900000Y-83966666D01*
X27947619Y-83919047D01*
X28852380Y-83061904D02*
X27852380Y-83061904D01*
X28804761Y-83061904D02*
X28852380Y-83157142D01*
X28852380Y-83347619D01*
X28804761Y-83442857D01*
X28757142Y-83490476D01*
X28661904Y-83538095D01*
X28376190Y-83538095D01*
X28280952Y-83490476D01*
X28233333Y-83442857D01*
X28185714Y-83347619D01*
X28185714Y-83157142D01*
X28233333Y-83061904D01*
X28804761Y-82633333D02*
X28852380Y-82490476D01*
X28852380Y-82252380D01*
X28804761Y-82157142D01*
X28757142Y-82109523D01*
X28661904Y-82061904D01*
X28566666Y-82061904D01*
X28471428Y-82109523D01*
X28423809Y-82157142D01*
X28376190Y-82252380D01*
X28328571Y-82442857D01*
X28280952Y-82538095D01*
X28233333Y-82585714D01*
X28138095Y-82633333D01*
X28042857Y-82633333D01*
X27947619Y-82585714D01*
X27900000Y-82538095D01*
X27852380Y-82442857D01*
X27852380Y-82204761D01*
X27900000Y-82061904D01*
X20728571Y-74952380D02*
X20728571Y-73952380D01*
X21061904Y-74666666D01*
X21395238Y-73952380D01*
X21395238Y-74952380D01*
X21871428Y-74952380D02*
X21871428Y-73952380D01*
X22300000Y-74904761D02*
X22442857Y-74952380D01*
X22680952Y-74952380D01*
X22776190Y-74904761D01*
X22823809Y-74857142D01*
X22871428Y-74761904D01*
X22871428Y-74666666D01*
X22823809Y-74571428D01*
X22776190Y-74523809D01*
X22680952Y-74476190D01*
X22490476Y-74428571D01*
X22395238Y-74380952D01*
X22347619Y-74333333D01*
X22300000Y-74238095D01*
X22300000Y-74142857D01*
X22347619Y-74047619D01*
X22395238Y-74000000D01*
X22490476Y-73952380D01*
X22728571Y-73952380D01*
X22871428Y-74000000D01*
X23490476Y-73952380D02*
X23680952Y-73952380D01*
X23776190Y-74000000D01*
X23871428Y-74095238D01*
X23919047Y-74285714D01*
X23919047Y-74619047D01*
X23871428Y-74809523D01*
X23776190Y-74904761D01*
X23680952Y-74952380D01*
X23490476Y-74952380D01*
X23395238Y-74904761D01*
X23300000Y-74809523D01*
X23252380Y-74619047D01*
X23252380Y-74285714D01*
X23300000Y-74095238D01*
X23395238Y-74000000D01*
X23490476Y-73952380D01*
X43642857Y-99928571D02*
X43785714Y-99976190D01*
X43833333Y-100023809D01*
X43880952Y-100119047D01*
X43880952Y-100261904D01*
X43833333Y-100357142D01*
X43785714Y-100404761D01*
X43690476Y-100452380D01*
X43309523Y-100452380D01*
X43309523Y-99452380D01*
X43642857Y-99452380D01*
X43738095Y-99500000D01*
X43785714Y-99547619D01*
X43833333Y-99642857D01*
X43833333Y-99738095D01*
X43785714Y-99833333D01*
X43738095Y-99880952D01*
X43642857Y-99928571D01*
X43309523Y-99928571D01*
X44500000Y-99452380D02*
X44690476Y-99452380D01*
X44785714Y-99500000D01*
X44880952Y-99595238D01*
X44928571Y-99785714D01*
X44928571Y-100119047D01*
X44880952Y-100309523D01*
X44785714Y-100404761D01*
X44690476Y-100452380D01*
X44500000Y-100452380D01*
X44404761Y-100404761D01*
X44309523Y-100309523D01*
X44261904Y-100119047D01*
X44261904Y-99785714D01*
X44309523Y-99595238D01*
X44404761Y-99500000D01*
X44500000Y-99452380D01*
X45547619Y-99452380D02*
X45738095Y-99452380D01*
X45833333Y-99500000D01*
X45928571Y-99595238D01*
X45976190Y-99785714D01*
X45976190Y-100119047D01*
X45928571Y-100309523D01*
X45833333Y-100404761D01*
X45738095Y-100452380D01*
X45547619Y-100452380D01*
X45452380Y-100404761D01*
X45357142Y-100309523D01*
X45309523Y-100119047D01*
X45309523Y-99785714D01*
X45357142Y-99595238D01*
X45452380Y-99500000D01*
X45547619Y-99452380D01*
X46261904Y-99452380D02*
X46833333Y-99452380D01*
X46547619Y-100452380D02*
X46547619Y-99452380D01*
X22833333Y-80857142D02*
X22785714Y-80904761D01*
X22642857Y-80952380D01*
X22547619Y-80952380D01*
X22404761Y-80904761D01*
X22309523Y-80809523D01*
X22261904Y-80714285D01*
X22214285Y-80523809D01*
X22214285Y-80380952D01*
X22261904Y-80190476D01*
X22309523Y-80095238D01*
X22404761Y-80000000D01*
X22547619Y-79952380D01*
X22642857Y-79952380D01*
X22785714Y-80000000D01*
X22833333Y-80047619D01*
X23214285Y-80904761D02*
X23357142Y-80952380D01*
X23595238Y-80952380D01*
X23690476Y-80904761D01*
X23738095Y-80857142D01*
X23785714Y-80761904D01*
X23785714Y-80666666D01*
X23738095Y-80571428D01*
X23690476Y-80523809D01*
X23595238Y-80476190D01*
X23404761Y-80428571D01*
X23309523Y-80380952D01*
X23261904Y-80333333D01*
X23214285Y-80238095D01*
X23214285Y-80142857D01*
X23261904Y-80047619D01*
X23309523Y-80000000D01*
X23404761Y-79952380D01*
X23642857Y-79952380D01*
X23785714Y-80000000D01*
X22104761Y-72357142D02*
X22057142Y-72404761D01*
X21914285Y-72452380D01*
X21819047Y-72452380D01*
X21676190Y-72404761D01*
X21580952Y-72309523D01*
X21533333Y-72214285D01*
X21485714Y-72023809D01*
X21485714Y-71880952D01*
X21533333Y-71690476D01*
X21580952Y-71595238D01*
X21676190Y-71500000D01*
X21819047Y-71452380D01*
X21914285Y-71452380D01*
X22057142Y-71500000D01*
X22104761Y-71547619D01*
X23009523Y-72452380D02*
X22533333Y-72452380D01*
X22533333Y-71452380D01*
X23342857Y-72452380D02*
X23342857Y-71452380D01*
X23914285Y-72452380D02*
X23485714Y-71880952D01*
X23914285Y-71452380D02*
X23342857Y-72023809D01*
X29119047Y-87471428D02*
X29880952Y-87471428D01*
X29500000Y-87852380D02*
X29500000Y-87090476D01*
X26252380Y-107676190D02*
X26252380Y-107057142D01*
X26633333Y-107390476D01*
X26633333Y-107247619D01*
X26680952Y-107152380D01*
X26728571Y-107104761D01*
X26823809Y-107057142D01*
X27061904Y-107057142D01*
X27157142Y-107104761D01*
X27204761Y-107152380D01*
X27252380Y-107247619D01*
X27252380Y-107533333D01*
X27204761Y-107628571D01*
X27157142Y-107676190D01*
X27157142Y-106628571D02*
X27204761Y-106580952D01*
X27252380Y-106628571D01*
X27204761Y-106676190D01*
X27157142Y-106628571D01*
X27252380Y-106628571D01*
X26252380Y-106247619D02*
X26252380Y-105628571D01*
X26633333Y-105961904D01*
X26633333Y-105819047D01*
X26680952Y-105723809D01*
X26728571Y-105676190D01*
X26823809Y-105628571D01*
X27061904Y-105628571D01*
X27157142Y-105676190D01*
X27204761Y-105723809D01*
X27252380Y-105819047D01*
X27252380Y-106104761D01*
X27204761Y-106200000D01*
X27157142Y-106247619D01*
X26252380Y-105342857D02*
X27252380Y-105009523D01*
X26252380Y-104676190D01*
X68452380Y-78690476D02*
X68452380Y-79166666D01*
X68928571Y-79214285D01*
X68880952Y-79166666D01*
X68833333Y-79071428D01*
X68833333Y-78833333D01*
X68880952Y-78738095D01*
X68928571Y-78690476D01*
X69023809Y-78642857D01*
X69261904Y-78642857D01*
X69357142Y-78690476D01*
X69404761Y-78738095D01*
X69452380Y-78833333D01*
X69452380Y-79071428D01*
X69404761Y-79166666D01*
X69357142Y-79214285D01*
X68452380Y-78357142D02*
X69452380Y-78023809D01*
X68452380Y-77690476D01*
D12*
X55976190Y-118392857D02*
X57500000Y-118392857D01*
X61500000Y-118392857D02*
X63023809Y-118392857D01*
X62261904Y-119154761D02*
X62261904Y-117630952D01*
D11*
X58752380Y-106800000D02*
X57752380Y-106800000D01*
X57752380Y-106133333D02*
X57752380Y-105942857D01*
X57800000Y-105847619D01*
X57895238Y-105752380D01*
X58085714Y-105704761D01*
X58419047Y-105704761D01*
X58609523Y-105752380D01*
X58704761Y-105847619D01*
X58752380Y-105942857D01*
X58752380Y-106133333D01*
X58704761Y-106228571D01*
X58609523Y-106323809D01*
X58419047Y-106371428D01*
X58085714Y-106371428D01*
X57895238Y-106323809D01*
X57800000Y-106228571D01*
X57752380Y-106133333D01*
X57752380Y-104800000D02*
X57752380Y-105276190D01*
X58228571Y-105323809D01*
X58180952Y-105276190D01*
X58133333Y-105180952D01*
X58133333Y-104942857D01*
X58180952Y-104847619D01*
X58228571Y-104800000D01*
X58323809Y-104752380D01*
X58561904Y-104752380D01*
X58657142Y-104800000D01*
X58704761Y-104847619D01*
X58752380Y-104942857D01*
X58752380Y-105180952D01*
X58704761Y-105276190D01*
X58657142Y-105323809D01*
X29752380Y-106800000D02*
X28752380Y-106800000D01*
X28752380Y-106133333D02*
X28752380Y-105942857D01*
X28800000Y-105847619D01*
X28895238Y-105752380D01*
X29085714Y-105704761D01*
X29419047Y-105704761D01*
X29609523Y-105752380D01*
X29704761Y-105847619D01*
X29752380Y-105942857D01*
X29752380Y-106133333D01*
X29704761Y-106228571D01*
X29609523Y-106323809D01*
X29419047Y-106371428D01*
X29085714Y-106371428D01*
X28895238Y-106323809D01*
X28800000Y-106228571D01*
X28752380Y-106133333D01*
X29085714Y-104847619D02*
X29752380Y-104847619D01*
X28704761Y-105085714D02*
X29419047Y-105323809D01*
X29419047Y-104704761D01*
X60238095Y-70302380D02*
X60238095Y-71111904D01*
X60285714Y-71207142D01*
X60333333Y-71254761D01*
X60428571Y-71302380D01*
X60619047Y-71302380D01*
X60714285Y-71254761D01*
X60761904Y-71207142D01*
X60809523Y-71111904D01*
X60809523Y-70302380D01*
X61238095Y-71254761D02*
X61380952Y-71302380D01*
X61619047Y-71302380D01*
X61714285Y-71254761D01*
X61761904Y-71207142D01*
X61809523Y-71111904D01*
X61809523Y-71016666D01*
X61761904Y-70921428D01*
X61714285Y-70873809D01*
X61619047Y-70826190D01*
X61428571Y-70778571D01*
X61333333Y-70730952D01*
X61285714Y-70683333D01*
X61238095Y-70588095D01*
X61238095Y-70492857D01*
X61285714Y-70397619D01*
X61333333Y-70350000D01*
X61428571Y-70302380D01*
X61666666Y-70302380D01*
X61809523Y-70350000D01*
X62571428Y-70778571D02*
X62714285Y-70826190D01*
X62761904Y-70873809D01*
X62809523Y-70969047D01*
X62809523Y-71111904D01*
X62761904Y-71207142D01*
X62714285Y-71254761D01*
X62619047Y-71302380D01*
X62238095Y-71302380D01*
X62238095Y-70302380D01*
X62571428Y-70302380D01*
X62666666Y-70350000D01*
X62714285Y-70397619D01*
X62761904Y-70492857D01*
X62761904Y-70588095D01*
X62714285Y-70683333D01*
X62666666Y-70730952D01*
X62571428Y-70778571D01*
X62238095Y-70778571D01*
X59738095Y-72952380D02*
X59738095Y-71952380D01*
X60071428Y-72666666D01*
X60404761Y-71952380D01*
X60404761Y-72952380D01*
X60880952Y-72952380D02*
X60880952Y-72285714D01*
X60880952Y-71952380D02*
X60833333Y-72000000D01*
X60880952Y-72047619D01*
X60928571Y-72000000D01*
X60880952Y-71952380D01*
X60880952Y-72047619D01*
X61785714Y-72904761D02*
X61690476Y-72952380D01*
X61500000Y-72952380D01*
X61404761Y-72904761D01*
X61357142Y-72857142D01*
X61309523Y-72761904D01*
X61309523Y-72476190D01*
X61357142Y-72380952D01*
X61404761Y-72333333D01*
X61500000Y-72285714D01*
X61690476Y-72285714D01*
X61785714Y-72333333D01*
X62214285Y-72952380D02*
X62214285Y-72285714D01*
X62214285Y-72476190D02*
X62261904Y-72380952D01*
X62309523Y-72333333D01*
X62404761Y-72285714D01*
X62500000Y-72285714D01*
X62976190Y-72952380D02*
X62880952Y-72904761D01*
X62833333Y-72857142D01*
X62785714Y-72761904D01*
X62785714Y-72476190D01*
X62833333Y-72380952D01*
X62880952Y-72333333D01*
X62976190Y-72285714D01*
X63119047Y-72285714D01*
X63214285Y-72333333D01*
X63261904Y-72380952D01*
X63309523Y-72476190D01*
X63309523Y-72761904D01*
X63261904Y-72857142D01*
X63214285Y-72904761D01*
X63119047Y-72952380D01*
X62976190Y-72952380D01*
X57214285Y-74983333D02*
X57166666Y-74935714D01*
X57071428Y-74792857D01*
X57023809Y-74697619D01*
X56976190Y-74554761D01*
X56928571Y-74316666D01*
X56928571Y-74126190D01*
X56976190Y-73888095D01*
X57023809Y-73745238D01*
X57071428Y-73650000D01*
X57166666Y-73507142D01*
X57214285Y-73459523D01*
X57595238Y-74602380D02*
X57595238Y-73602380D01*
X57976190Y-73602380D01*
X58071428Y-73650000D01*
X58119047Y-73697619D01*
X58166666Y-73792857D01*
X58166666Y-73935714D01*
X58119047Y-74030952D01*
X58071428Y-74078571D01*
X57976190Y-74126190D01*
X57595238Y-74126190D01*
X58738095Y-74602380D02*
X58642857Y-74554761D01*
X58595238Y-74507142D01*
X58547619Y-74411904D01*
X58547619Y-74126190D01*
X58595238Y-74030952D01*
X58642857Y-73983333D01*
X58738095Y-73935714D01*
X58880952Y-73935714D01*
X58976190Y-73983333D01*
X59023809Y-74030952D01*
X59071428Y-74126190D01*
X59071428Y-74411904D01*
X59023809Y-74507142D01*
X58976190Y-74554761D01*
X58880952Y-74602380D01*
X58738095Y-74602380D01*
X59404761Y-73935714D02*
X59595238Y-74602380D01*
X59785714Y-74126190D01*
X59976190Y-74602380D01*
X60166666Y-73935714D01*
X60928571Y-74554761D02*
X60833333Y-74602380D01*
X60642857Y-74602380D01*
X60547619Y-74554761D01*
X60500000Y-74459523D01*
X60500000Y-74078571D01*
X60547619Y-73983333D01*
X60642857Y-73935714D01*
X60833333Y-73935714D01*
X60928571Y-73983333D01*
X60976190Y-74078571D01*
X60976190Y-74173809D01*
X60500000Y-74269047D01*
X61404761Y-74602380D02*
X61404761Y-73935714D01*
X61404761Y-74126190D02*
X61452380Y-74030952D01*
X61500000Y-73983333D01*
X61595238Y-73935714D01*
X61690476Y-73935714D01*
X62928571Y-74602380D02*
X62833333Y-74554761D01*
X62785714Y-74507142D01*
X62738095Y-74411904D01*
X62738095Y-74126190D01*
X62785714Y-74030952D01*
X62833333Y-73983333D01*
X62928571Y-73935714D01*
X63071428Y-73935714D01*
X63166666Y-73983333D01*
X63214285Y-74030952D01*
X63261904Y-74126190D01*
X63261904Y-74411904D01*
X63214285Y-74507142D01*
X63166666Y-74554761D01*
X63071428Y-74602380D01*
X62928571Y-74602380D01*
X63690476Y-73935714D02*
X63690476Y-74602380D01*
X63690476Y-74030952D02*
X63738095Y-73983333D01*
X63833333Y-73935714D01*
X63976190Y-73935714D01*
X64071428Y-73983333D01*
X64119047Y-74078571D01*
X64119047Y-74602380D01*
X64738095Y-74602380D02*
X64642857Y-74554761D01*
X64595238Y-74459523D01*
X64595238Y-73602380D01*
X65023809Y-73935714D02*
X65261904Y-74602380D01*
X65500000Y-73935714D02*
X65261904Y-74602380D01*
X65166666Y-74840476D01*
X65119047Y-74888095D01*
X65023809Y-74935714D01*
X65785714Y-74983333D02*
X65833333Y-74935714D01*
X65928571Y-74792857D01*
X65976190Y-74697619D01*
X66023809Y-74554761D01*
X66071428Y-74316666D01*
X66071428Y-74126190D01*
X66023809Y-73888095D01*
X65976190Y-73745238D01*
X65928571Y-73650000D01*
X65833333Y-73507142D01*
X65785714Y-73459523D01*
X58066666Y-116152380D02*
X57590476Y-116152380D01*
X57542857Y-116628571D01*
X57590476Y-116580952D01*
X57685714Y-116533333D01*
X57923809Y-116533333D01*
X58019047Y-116580952D01*
X58066666Y-116628571D01*
X58114285Y-116723809D01*
X58114285Y-116961904D01*
X58066666Y-117057142D01*
X58019047Y-117104761D01*
X57923809Y-117152380D01*
X57685714Y-117152380D01*
X57590476Y-117104761D01*
X57542857Y-117057142D01*
X58400000Y-116152380D02*
X58733333Y-117152380D01*
X59066666Y-116152380D01*
X60161904Y-117152380D02*
X60161904Y-116152380D01*
X60638095Y-117152380D02*
X60638095Y-116152380D01*
X61209523Y-117152380D01*
X61209523Y-116152380D01*
X24476190Y-87104761D02*
X24619047Y-87152380D01*
X24857142Y-87152380D01*
X24952380Y-87104761D01*
X25000000Y-87057142D01*
X25047619Y-86961904D01*
X25047619Y-86866666D01*
X25000000Y-86771428D01*
X24952380Y-86723809D01*
X24857142Y-86676190D01*
X24666666Y-86628571D01*
X24571428Y-86580952D01*
X24523809Y-86533333D01*
X24476190Y-86438095D01*
X24476190Y-86342857D01*
X24523809Y-86247619D01*
X24571428Y-86200000D01*
X24666666Y-86152380D01*
X24904761Y-86152380D01*
X25047619Y-86200000D01*
X25476190Y-87152380D02*
X25476190Y-86152380D01*
X25857142Y-86152380D01*
X25952380Y-86200000D01*
X26000000Y-86247619D01*
X26047619Y-86342857D01*
X26047619Y-86485714D01*
X26000000Y-86580952D01*
X25952380Y-86628571D01*
X25857142Y-86676190D01*
X25476190Y-86676190D01*
X26476190Y-87152380D02*
X26476190Y-86152380D01*
X61252380Y-106385714D02*
X60252380Y-106385714D01*
X61252380Y-105814285D01*
X60252380Y-105814285D01*
X61157142Y-104766666D02*
X61204761Y-104814285D01*
X61252380Y-104957142D01*
X61252380Y-105052380D01*
X61204761Y-105195238D01*
X61109523Y-105290476D01*
X61014285Y-105338095D01*
X60823809Y-105385714D01*
X60680952Y-105385714D01*
X60490476Y-105338095D01*
X60395238Y-105290476D01*
X60300000Y-105195238D01*
X60252380Y-105052380D01*
X60252380Y-104957142D01*
X60300000Y-104814285D01*
X60347619Y-104766666D01*
X20500000Y-112261904D02*
X20452380Y-112357142D01*
X20452380Y-112500000D01*
X20500000Y-112642857D01*
X20595238Y-112738095D01*
X20690476Y-112785714D01*
X20880952Y-112833333D01*
X21023809Y-112833333D01*
X21214285Y-112785714D01*
X21309523Y-112738095D01*
X21404761Y-112642857D01*
X21452380Y-112500000D01*
X21452380Y-112404761D01*
X21404761Y-112261904D01*
X21357142Y-112214285D01*
X21023809Y-112214285D01*
X21023809Y-112404761D01*
X21452380Y-111785714D02*
X20452380Y-111785714D01*
X21452380Y-111214285D01*
X20452380Y-111214285D01*
X21452380Y-110738095D02*
X20452380Y-110738095D01*
X20452380Y-110500000D01*
X20500000Y-110357142D01*
X20595238Y-110261904D01*
X20690476Y-110214285D01*
X20880952Y-110166666D01*
X21023809Y-110166666D01*
X21214285Y-110214285D01*
X21309523Y-110261904D01*
X21404761Y-110357142D01*
X21452380Y-110500000D01*
X21452380Y-110738095D01*
D12*
X31404761Y-117838095D02*
X29404761Y-117838095D01*
X29404761Y-117361904D01*
X29500000Y-117076190D01*
X29690476Y-116885714D01*
X29880952Y-116790476D01*
X30261904Y-116695238D01*
X30547619Y-116695238D01*
X30928571Y-116790476D01*
X31119047Y-116885714D01*
X31309523Y-117076190D01*
X31404761Y-117361904D01*
X31404761Y-117838095D01*
X31404761Y-115838095D02*
X29404761Y-115838095D01*
X30357142Y-115838095D02*
X30357142Y-114695238D01*
X31404761Y-114695238D02*
X29404761Y-114695238D01*
X29404761Y-114028571D02*
X29404761Y-112885714D01*
X31404761Y-113457142D02*
X29404761Y-113457142D01*
X31404761Y-111171428D02*
X31404761Y-112314285D01*
X31404761Y-111742857D02*
X29404761Y-111742857D01*
X29690476Y-111933333D01*
X29880952Y-112123809D01*
X29976190Y-112314285D01*
X31404761Y-109266666D02*
X31404761Y-110409523D01*
X31404761Y-109838095D02*
X29404761Y-109838095D01*
X29690476Y-110028571D01*
X29880952Y-110219047D01*
X29976190Y-110409523D01*
D11*
X55280952Y-109952380D02*
X55852380Y-109952380D01*
X55566666Y-110952380D02*
X55566666Y-109952380D01*
X56566666Y-110904761D02*
X56471428Y-110952380D01*
X56280952Y-110952380D01*
X56185714Y-110904761D01*
X56138095Y-110809523D01*
X56138095Y-110428571D01*
X56185714Y-110333333D01*
X56280952Y-110285714D01*
X56471428Y-110285714D01*
X56566666Y-110333333D01*
X56614285Y-110428571D01*
X56614285Y-110523809D01*
X56138095Y-110619047D01*
X57042857Y-110952380D02*
X57042857Y-110285714D01*
X57042857Y-110476190D02*
X57090476Y-110380952D01*
X57138095Y-110333333D01*
X57233333Y-110285714D01*
X57328571Y-110285714D01*
X57661904Y-110952380D02*
X57661904Y-110285714D01*
X57661904Y-110380952D02*
X57709523Y-110333333D01*
X57804761Y-110285714D01*
X57947619Y-110285714D01*
X58042857Y-110333333D01*
X58090476Y-110428571D01*
X58090476Y-110952380D01*
X58090476Y-110428571D02*
X58138095Y-110333333D01*
X58233333Y-110285714D01*
X58376190Y-110285714D01*
X58471428Y-110333333D01*
X58519047Y-110428571D01*
X58519047Y-110952380D01*
X60090476Y-110428571D02*
X60233333Y-110476190D01*
X60280952Y-110523809D01*
X60328571Y-110619047D01*
X60328571Y-110761904D01*
X60280952Y-110857142D01*
X60233333Y-110904761D01*
X60138095Y-110952380D01*
X59757142Y-110952380D01*
X59757142Y-109952380D01*
X60090476Y-109952380D01*
X60185714Y-110000000D01*
X60233333Y-110047619D01*
X60280952Y-110142857D01*
X60280952Y-110238095D01*
X60233333Y-110333333D01*
X60185714Y-110380952D01*
X60090476Y-110428571D01*
X59757142Y-110428571D01*
X60900000Y-110952380D02*
X60804761Y-110904761D01*
X60757142Y-110809523D01*
X60757142Y-109952380D01*
X61423809Y-110952380D02*
X61328571Y-110904761D01*
X61280952Y-110857142D01*
X61233333Y-110761904D01*
X61233333Y-110476190D01*
X61280952Y-110380952D01*
X61328571Y-110333333D01*
X61423809Y-110285714D01*
X61566666Y-110285714D01*
X61661904Y-110333333D01*
X61709523Y-110380952D01*
X61757142Y-110476190D01*
X61757142Y-110761904D01*
X61709523Y-110857142D01*
X61661904Y-110904761D01*
X61566666Y-110952380D01*
X61423809Y-110952380D01*
X62614285Y-110904761D02*
X62519047Y-110952380D01*
X62328571Y-110952380D01*
X62233333Y-110904761D01*
X62185714Y-110857142D01*
X62138095Y-110761904D01*
X62138095Y-110476190D01*
X62185714Y-110380952D01*
X62233333Y-110333333D01*
X62328571Y-110285714D01*
X62519047Y-110285714D01*
X62614285Y-110333333D01*
X63042857Y-110952380D02*
X63042857Y-109952380D01*
X63138095Y-110571428D02*
X63423809Y-110952380D01*
X63423809Y-110285714D02*
X63042857Y-110666666D01*
X38928571Y-72928571D02*
X39261904Y-72928571D01*
X39404761Y-73452380D02*
X38928571Y-73452380D01*
X38928571Y-72452380D01*
X39404761Y-72452380D01*
X39785714Y-73404761D02*
X39928571Y-73452380D01*
X40166666Y-73452380D01*
X40261904Y-73404761D01*
X40309523Y-73357142D01*
X40357142Y-73261904D01*
X40357142Y-73166666D01*
X40309523Y-73071428D01*
X40261904Y-73023809D01*
X40166666Y-72976190D01*
X39976190Y-72928571D01*
X39880952Y-72880952D01*
X39833333Y-72833333D01*
X39785714Y-72738095D01*
X39785714Y-72642857D01*
X39833333Y-72547619D01*
X39880952Y-72500000D01*
X39976190Y-72452380D01*
X40214285Y-72452380D01*
X40357142Y-72500000D01*
X40785714Y-73452380D02*
X40785714Y-72452380D01*
X41166666Y-72452380D01*
X41261904Y-72500000D01*
X41309523Y-72547619D01*
X41357142Y-72642857D01*
X41357142Y-72785714D01*
X41309523Y-72880952D01*
X41261904Y-72928571D01*
X41166666Y-72976190D01*
X40785714Y-72976190D01*
X41785714Y-73071428D02*
X42547619Y-73071428D01*
X42928571Y-72452380D02*
X43166666Y-73452380D01*
X43357142Y-72738095D01*
X43547619Y-73452380D01*
X43785714Y-72452380D01*
X44738095Y-73452380D02*
X44404761Y-72976190D01*
X44166666Y-73452380D02*
X44166666Y-72452380D01*
X44547619Y-72452380D01*
X44642857Y-72500000D01*
X44690476Y-72547619D01*
X44738095Y-72642857D01*
X44738095Y-72785714D01*
X44690476Y-72880952D01*
X44642857Y-72928571D01*
X44547619Y-72976190D01*
X44166666Y-72976190D01*
X45357142Y-72452380D02*
X45547619Y-72452380D01*
X45642857Y-72500000D01*
X45738095Y-72595238D01*
X45785714Y-72785714D01*
X45785714Y-73119047D01*
X45738095Y-73309523D01*
X45642857Y-73404761D01*
X45547619Y-73452380D01*
X45357142Y-73452380D01*
X45261904Y-73404761D01*
X45166666Y-73309523D01*
X45119047Y-73119047D01*
X45119047Y-72785714D01*
X45166666Y-72595238D01*
X45261904Y-72500000D01*
X45357142Y-72452380D01*
X46404761Y-72452380D02*
X46595238Y-72452380D01*
X46690476Y-72500000D01*
X46785714Y-72595238D01*
X46833333Y-72785714D01*
X46833333Y-73119047D01*
X46785714Y-73309523D01*
X46690476Y-73404761D01*
X46595238Y-73452380D01*
X46404761Y-73452380D01*
X46309523Y-73404761D01*
X46214285Y-73309523D01*
X46166666Y-73119047D01*
X46166666Y-72785714D01*
X46214285Y-72595238D01*
X46309523Y-72500000D01*
X46404761Y-72452380D01*
X47261904Y-73452380D02*
X47261904Y-72452380D01*
X47595238Y-73166666D01*
X47928571Y-72452380D01*
X47928571Y-73452380D01*
X48404761Y-73071428D02*
X49166666Y-73071428D01*
X49833333Y-72452380D02*
X49928571Y-72452380D01*
X50023809Y-72500000D01*
X50071428Y-72547619D01*
X50119047Y-72642857D01*
X50166666Y-72833333D01*
X50166666Y-73071428D01*
X50119047Y-73261904D01*
X50071428Y-73357142D01*
X50023809Y-73404761D01*
X49928571Y-73452380D01*
X49833333Y-73452380D01*
X49738095Y-73404761D01*
X49690476Y-73357142D01*
X49642857Y-73261904D01*
X49595238Y-73071428D01*
X49595238Y-72833333D01*
X49642857Y-72642857D01*
X49690476Y-72547619D01*
X49738095Y-72500000D01*
X49833333Y-72452380D01*
X50547619Y-72547619D02*
X50595238Y-72500000D01*
X50690476Y-72452380D01*
X50928571Y-72452380D01*
X51023809Y-72500000D01*
X51071428Y-72547619D01*
X51119047Y-72642857D01*
X51119047Y-72738095D01*
X51071428Y-72880952D01*
X50500000Y-73452380D01*
X51119047Y-73452380D01*
X33800000Y-106861904D02*
X33752380Y-106957142D01*
X33752380Y-107100000D01*
X33800000Y-107242857D01*
X33895238Y-107338095D01*
X33990476Y-107385714D01*
X34180952Y-107433333D01*
X34323809Y-107433333D01*
X34514285Y-107385714D01*
X34609523Y-107338095D01*
X34704761Y-107242857D01*
X34752380Y-107100000D01*
X34752380Y-107004761D01*
X34704761Y-106861904D01*
X34657142Y-106814285D01*
X34323809Y-106814285D01*
X34323809Y-107004761D01*
X34752380Y-106385714D02*
X33752380Y-106385714D01*
X34752380Y-105814285D01*
X33752380Y-105814285D01*
X34752380Y-105338095D02*
X33752380Y-105338095D01*
X33752380Y-105100000D01*
X33800000Y-104957142D01*
X33895238Y-104861904D01*
X33990476Y-104814285D01*
X34180952Y-104766666D01*
X34323809Y-104766666D01*
X34514285Y-104814285D01*
X34609523Y-104861904D01*
X34704761Y-104957142D01*
X34752380Y-105100000D01*
X34752380Y-105338095D01*
X20728571Y-76952380D02*
X20728571Y-75952380D01*
X21061904Y-76666666D01*
X21395238Y-75952380D01*
X21395238Y-76952380D01*
X22061904Y-75952380D02*
X22252380Y-75952380D01*
X22347619Y-76000000D01*
X22442857Y-76095238D01*
X22490476Y-76285714D01*
X22490476Y-76619047D01*
X22442857Y-76809523D01*
X22347619Y-76904761D01*
X22252380Y-76952380D01*
X22061904Y-76952380D01*
X21966666Y-76904761D01*
X21871428Y-76809523D01*
X21823809Y-76619047D01*
X21823809Y-76285714D01*
X21871428Y-76095238D01*
X21966666Y-76000000D01*
X22061904Y-75952380D01*
X22871428Y-76904761D02*
X23014285Y-76952380D01*
X23252380Y-76952380D01*
X23347619Y-76904761D01*
X23395238Y-76857142D01*
X23442857Y-76761904D01*
X23442857Y-76666666D01*
X23395238Y-76571428D01*
X23347619Y-76523809D01*
X23252380Y-76476190D01*
X23061904Y-76428571D01*
X22966666Y-76380952D01*
X22919047Y-76333333D01*
X22871428Y-76238095D01*
X22871428Y-76142857D01*
X22919047Y-76047619D01*
X22966666Y-76000000D01*
X23061904Y-75952380D01*
X23300000Y-75952380D01*
X23442857Y-76000000D01*
X23871428Y-76952380D02*
X23871428Y-75952380D01*
X66752380Y-84638095D02*
X66752380Y-84542857D01*
X66800000Y-84447619D01*
X66847619Y-84400000D01*
X66942857Y-84352380D01*
X67133333Y-84304761D01*
X67371428Y-84304761D01*
X67561904Y-84352380D01*
X67657142Y-84400000D01*
X67704761Y-84447619D01*
X67752380Y-84542857D01*
X67752380Y-84638095D01*
X67704761Y-84733333D01*
X67657142Y-84780952D01*
X67561904Y-84828571D01*
X67371428Y-84876190D01*
X67133333Y-84876190D01*
X66942857Y-84828571D01*
X66847619Y-84780952D01*
X66800000Y-84733333D01*
X66752380Y-84638095D01*
X67657142Y-83876190D02*
X67704761Y-83828571D01*
X67752380Y-83876190D01*
X67704761Y-83923809D01*
X67657142Y-83876190D01*
X67752380Y-83876190D01*
X66752380Y-83495238D02*
X66752380Y-82876190D01*
X67133333Y-83209523D01*
X67133333Y-83066666D01*
X67180952Y-82971428D01*
X67228571Y-82923809D01*
X67323809Y-82876190D01*
X67561904Y-82876190D01*
X67657142Y-82923809D01*
X67704761Y-82971428D01*
X67752380Y-83066666D01*
X67752380Y-83352380D01*
X67704761Y-83447619D01*
X67657142Y-83495238D01*
X66752380Y-82542857D02*
X66752380Y-81923809D01*
X67133333Y-82257142D01*
X67133333Y-82114285D01*
X67180952Y-82019047D01*
X67228571Y-81971428D01*
X67323809Y-81923809D01*
X67561904Y-81923809D01*
X67657142Y-81971428D01*
X67704761Y-82019047D01*
X67752380Y-82114285D01*
X67752380Y-82400000D01*
X67704761Y-82495238D01*
X67657142Y-82542857D01*
X21738095Y-81500000D02*
X21642857Y-81452380D01*
X21500000Y-81452380D01*
X21357142Y-81500000D01*
X21261904Y-81595238D01*
X21214285Y-81690476D01*
X21166666Y-81880952D01*
X21166666Y-82023809D01*
X21214285Y-82214285D01*
X21261904Y-82309523D01*
X21357142Y-82404761D01*
X21500000Y-82452380D01*
X21595238Y-82452380D01*
X21738095Y-82404761D01*
X21785714Y-82357142D01*
X21785714Y-82023809D01*
X21595238Y-82023809D01*
X22214285Y-82452380D02*
X22214285Y-81452380D01*
X22785714Y-82452380D01*
X22785714Y-81452380D01*
X23261904Y-82452380D02*
X23261904Y-81452380D01*
X23500000Y-81452380D01*
X23642857Y-81500000D01*
X23738095Y-81595238D01*
X23785714Y-81690476D01*
X23833333Y-81880952D01*
X23833333Y-82023809D01*
X23785714Y-82214285D01*
X23738095Y-82309523D01*
X23642857Y-82404761D01*
X23500000Y-82452380D01*
X23261904Y-82452380D01*
X61927380Y-83642857D02*
X60927380Y-83642857D01*
X61927380Y-83071428D01*
X60927380Y-83071428D01*
X60927380Y-82309523D02*
X61641666Y-82309523D01*
X61784523Y-82357142D01*
X61879761Y-82452380D01*
X61927380Y-82595238D01*
X61927380Y-82690476D01*
X61927380Y-81833333D02*
X60927380Y-81833333D01*
X61641666Y-81500000D01*
X60927380Y-81166666D01*
X61927380Y-81166666D01*
X61022619Y-80738095D02*
X60975000Y-80690476D01*
X60927380Y-80595238D01*
X60927380Y-80357142D01*
X60975000Y-80261904D01*
X61022619Y-80214285D01*
X61117857Y-80166666D01*
X61213095Y-80166666D01*
X61355952Y-80214285D01*
X61927380Y-80785714D01*
X61927380Y-80166666D01*
X61355952Y-79595238D02*
X61308333Y-79690476D01*
X61260714Y-79738095D01*
X61165476Y-79785714D01*
X61117857Y-79785714D01*
X61022619Y-79738095D01*
X60975000Y-79690476D01*
X60927380Y-79595238D01*
X60927380Y-79404761D01*
X60975000Y-79309523D01*
X61022619Y-79261904D01*
X61117857Y-79214285D01*
X61165476Y-79214285D01*
X61260714Y-79261904D01*
X61308333Y-79309523D01*
X61355952Y-79404761D01*
X61355952Y-79595238D01*
X61403571Y-79690476D01*
X61451190Y-79738095D01*
X61546428Y-79785714D01*
X61736904Y-79785714D01*
X61832142Y-79738095D01*
X61879761Y-79690476D01*
X61927380Y-79595238D01*
X61927380Y-79404761D01*
X61879761Y-79309523D01*
X61832142Y-79261904D01*
X61736904Y-79214285D01*
X61546428Y-79214285D01*
X61451190Y-79261904D01*
X61403571Y-79309523D01*
X61355952Y-79404761D01*
X61260714Y-78357142D02*
X61927380Y-78357142D01*
X60879761Y-78595238D02*
X61594047Y-78833333D01*
X61594047Y-78214285D01*
X60927380Y-77357142D02*
X60927380Y-77833333D01*
X61403571Y-77880952D01*
X61355952Y-77833333D01*
X61308333Y-77738095D01*
X61308333Y-77500000D01*
X61355952Y-77404761D01*
X61403571Y-77357142D01*
X61498809Y-77309523D01*
X61736904Y-77309523D01*
X61832142Y-77357142D01*
X61879761Y-77404761D01*
X61927380Y-77500000D01*
X61927380Y-77738095D01*
X61879761Y-77833333D01*
X61832142Y-77880952D01*
X63577380Y-83214285D02*
X62577380Y-83214285D01*
X62577380Y-82976190D01*
X62625000Y-82833333D01*
X62720238Y-82738095D01*
X62815476Y-82690476D01*
X63005952Y-82642857D01*
X63148809Y-82642857D01*
X63339285Y-82690476D01*
X63434523Y-82738095D01*
X63529761Y-82833333D01*
X63577380Y-82976190D01*
X63577380Y-83214285D01*
X63577380Y-81738095D02*
X63577380Y-82214285D01*
X62577380Y-82214285D01*
X63577380Y-80880952D02*
X63577380Y-81452380D01*
X63577380Y-81166666D02*
X62577380Y-81166666D01*
X62720238Y-81261904D01*
X62815476Y-81357142D01*
X62863095Y-81452380D01*
X63196428Y-80452380D02*
X63196428Y-79690476D01*
X62577380Y-79309523D02*
X62577380Y-78690476D01*
X62958333Y-79023809D01*
X62958333Y-78880952D01*
X63005952Y-78785714D01*
X63053571Y-78738095D01*
X63148809Y-78690476D01*
X63386904Y-78690476D01*
X63482142Y-78738095D01*
X63529761Y-78785714D01*
X63577380Y-78880952D01*
X63577380Y-79166666D01*
X63529761Y-79261904D01*
X63482142Y-79309523D01*
X62577380Y-78357142D02*
X62577380Y-77738095D01*
X62958333Y-78071428D01*
X62958333Y-77928571D01*
X63005952Y-77833333D01*
X63053571Y-77785714D01*
X63148809Y-77738095D01*
X63386904Y-77738095D01*
X63482142Y-77785714D01*
X63529761Y-77833333D01*
X63577380Y-77928571D01*
X63577380Y-78214285D01*
X63529761Y-78309523D01*
X63482142Y-78357142D01*
X20823809Y-83952380D02*
X21442857Y-83952380D01*
X21109523Y-84333333D01*
X21252380Y-84333333D01*
X21347619Y-84380952D01*
X21395238Y-84428571D01*
X21442857Y-84523809D01*
X21442857Y-84761904D01*
X21395238Y-84857142D01*
X21347619Y-84904761D01*
X21252380Y-84952380D01*
X20966666Y-84952380D01*
X20871428Y-84904761D01*
X20823809Y-84857142D01*
X21871428Y-84857142D02*
X21919047Y-84904761D01*
X21871428Y-84952380D01*
X21823809Y-84904761D01*
X21871428Y-84857142D01*
X21871428Y-84952380D01*
X22252380Y-83952380D02*
X22871428Y-83952380D01*
X22538095Y-84333333D01*
X22680952Y-84333333D01*
X22776190Y-84380952D01*
X22823809Y-84428571D01*
X22871428Y-84523809D01*
X22871428Y-84761904D01*
X22823809Y-84857142D01*
X22776190Y-84904761D01*
X22680952Y-84952380D01*
X22395238Y-84952380D01*
X22300000Y-84904761D01*
X22252380Y-84857142D01*
X23157142Y-83952380D02*
X23490476Y-84952380D01*
X23823809Y-83952380D01*
X32252380Y-106385714D02*
X31252380Y-106385714D01*
X32252380Y-105814285D01*
X31252380Y-105814285D01*
X32157142Y-104766666D02*
X32204761Y-104814285D01*
X32252380Y-104957142D01*
X32252380Y-105052380D01*
X32204761Y-105195238D01*
X32109523Y-105290476D01*
X32014285Y-105338095D01*
X31823809Y-105385714D01*
X31680952Y-105385714D01*
X31490476Y-105338095D01*
X31395238Y-105290476D01*
X31300000Y-105195238D01*
X31252380Y-105052380D01*
X31252380Y-104957142D01*
X31300000Y-104814285D01*
X31347619Y-104766666D01*
X31047619Y-100452380D02*
X30714285Y-99976190D01*
X30476190Y-100452380D02*
X30476190Y-99452380D01*
X30857142Y-99452380D01*
X30952380Y-99500000D01*
X31000000Y-99547619D01*
X31047619Y-99642857D01*
X31047619Y-99785714D01*
X31000000Y-99880952D01*
X30952380Y-99928571D01*
X30857142Y-99976190D01*
X30476190Y-99976190D01*
X31476190Y-99928571D02*
X31809523Y-99928571D01*
X31952380Y-100452380D02*
X31476190Y-100452380D01*
X31476190Y-99452380D01*
X31952380Y-99452380D01*
X32333333Y-100404761D02*
X32476190Y-100452380D01*
X32714285Y-100452380D01*
X32809523Y-100404761D01*
X32857142Y-100357142D01*
X32904761Y-100261904D01*
X32904761Y-100166666D01*
X32857142Y-100071428D01*
X32809523Y-100023809D01*
X32714285Y-99976190D01*
X32523809Y-99928571D01*
X32428571Y-99880952D01*
X32380952Y-99833333D01*
X32333333Y-99738095D01*
X32333333Y-99642857D01*
X32380952Y-99547619D01*
X32428571Y-99500000D01*
X32523809Y-99452380D01*
X32761904Y-99452380D01*
X32904761Y-99500000D01*
X33333333Y-99928571D02*
X33666666Y-99928571D01*
X33809523Y-100452380D02*
X33333333Y-100452380D01*
X33333333Y-99452380D01*
X33809523Y-99452380D01*
X34095238Y-99452380D02*
X34666666Y-99452380D01*
X34380952Y-100452380D02*
X34380952Y-99452380D01*
X28852380Y-89942857D02*
X28852380Y-90419047D01*
X27852380Y-90419047D01*
X28328571Y-89609523D02*
X28328571Y-89276190D01*
X28852380Y-89133333D02*
X28852380Y-89609523D01*
X27852380Y-89609523D01*
X27852380Y-89133333D01*
X28852380Y-88704761D02*
X27852380Y-88704761D01*
X27852380Y-88466666D01*
X27900000Y-88323809D01*
X27995238Y-88228571D01*
X28090476Y-88180952D01*
X28280952Y-88133333D01*
X28423809Y-88133333D01*
X28614285Y-88180952D01*
X28709523Y-88228571D01*
X28804761Y-88323809D01*
X28852380Y-88466666D01*
X28852380Y-88704761D01*
X37323809Y-116352380D02*
X37323809Y-115352380D01*
X37704761Y-115352380D01*
X37800000Y-115400000D01*
X37847619Y-115447619D01*
X37895238Y-115542857D01*
X37895238Y-115685714D01*
X37847619Y-115780952D01*
X37800000Y-115828571D01*
X37704761Y-115876190D01*
X37323809Y-115876190D01*
X38323809Y-116352380D02*
X38323809Y-115685714D01*
X38323809Y-115876190D02*
X38371428Y-115780952D01*
X38419047Y-115733333D01*
X38514285Y-115685714D01*
X38609523Y-115685714D01*
X39085714Y-116352380D02*
X38990476Y-116304761D01*
X38942857Y-116257142D01*
X38895238Y-116161904D01*
X38895238Y-115876190D01*
X38942857Y-115780952D01*
X38990476Y-115733333D01*
X39085714Y-115685714D01*
X39228571Y-115685714D01*
X39323809Y-115733333D01*
X39371428Y-115780952D01*
X39419047Y-115876190D01*
X39419047Y-116161904D01*
X39371428Y-116257142D01*
X39323809Y-116304761D01*
X39228571Y-116352380D01*
X39085714Y-116352380D01*
X40276190Y-115685714D02*
X40276190Y-116495238D01*
X40228571Y-116590476D01*
X40180952Y-116638095D01*
X40085714Y-116685714D01*
X39942857Y-116685714D01*
X39847619Y-116638095D01*
X40276190Y-116304761D02*
X40180952Y-116352380D01*
X39990476Y-116352380D01*
X39895238Y-116304761D01*
X39847619Y-116257142D01*
X39800000Y-116161904D01*
X39800000Y-115876190D01*
X39847619Y-115780952D01*
X39895238Y-115733333D01*
X39990476Y-115685714D01*
X40180952Y-115685714D01*
X40276190Y-115733333D01*
X29685714Y-77952380D02*
X29780952Y-77952380D01*
X29876190Y-78000000D01*
X29923809Y-78047619D01*
X29971428Y-78142857D01*
X30019047Y-78333333D01*
X30019047Y-78571428D01*
X29971428Y-78761904D01*
X29923809Y-78857142D01*
X29876190Y-78904761D01*
X29780952Y-78952380D01*
X29685714Y-78952380D01*
X29590476Y-78904761D01*
X29542857Y-78857142D01*
X29495238Y-78761904D01*
X29447619Y-78571428D01*
X29447619Y-78333333D01*
X29495238Y-78142857D01*
X29542857Y-78047619D01*
X29590476Y-78000000D01*
X29685714Y-77952380D01*
X30447619Y-78857142D02*
X30495238Y-78904761D01*
X30447619Y-78952380D01*
X30400000Y-78904761D01*
X30447619Y-78857142D01*
X30447619Y-78952380D01*
X31447619Y-78952380D02*
X30876190Y-78952380D01*
X31161904Y-78952380D02*
X31161904Y-77952380D01*
X31066666Y-78095238D01*
X30971428Y-78190476D01*
X30876190Y-78238095D01*
X32304761Y-78285714D02*
X32304761Y-78952380D01*
X31876190Y-78285714D02*
X31876190Y-78809523D01*
X31923809Y-78904761D01*
X32019047Y-78952380D01*
X32161904Y-78952380D01*
X32257142Y-78904761D01*
X32304761Y-78857142D01*
X56647619Y-84952380D02*
X56600000Y-84904761D01*
X56552380Y-84809523D01*
X56552380Y-84571428D01*
X56600000Y-84476190D01*
X56647619Y-84428571D01*
X56742857Y-84380952D01*
X56838095Y-84380952D01*
X56980952Y-84428571D01*
X57552380Y-85000000D01*
X57552380Y-84380952D01*
X57457142Y-83952380D02*
X57504761Y-83904761D01*
X57552380Y-83952380D01*
X57504761Y-84000000D01*
X57457142Y-83952380D01*
X57552380Y-83952380D01*
X56647619Y-83523809D02*
X56600000Y-83476190D01*
X56552380Y-83380952D01*
X56552380Y-83142857D01*
X56600000Y-83047619D01*
X56647619Y-83000000D01*
X56742857Y-82952380D01*
X56838095Y-82952380D01*
X56980952Y-83000000D01*
X57552380Y-83571428D01*
X57552380Y-82952380D01*
X56885714Y-82095238D02*
X57552380Y-82095238D01*
X56885714Y-82523809D02*
X57409523Y-82523809D01*
X57504761Y-82476190D01*
X57552380Y-82380952D01*
X57552380Y-82238095D01*
X57504761Y-82142857D01*
X57457142Y-82095238D01*
X40838095Y-104202380D02*
X40361904Y-104202380D01*
X40314285Y-104678571D01*
X40361904Y-104630952D01*
X40457142Y-104583333D01*
X40695238Y-104583333D01*
X40790476Y-104630952D01*
X40838095Y-104678571D01*
X40885714Y-104773809D01*
X40885714Y-105011904D01*
X40838095Y-105107142D01*
X40790476Y-105154761D01*
X40695238Y-105202380D01*
X40457142Y-105202380D01*
X40361904Y-105154761D01*
X40314285Y-105107142D01*
X40861904Y-107550000D02*
X40766666Y-107502380D01*
X40623809Y-107502380D01*
X40480952Y-107550000D01*
X40385714Y-107645238D01*
X40338095Y-107740476D01*
X40290476Y-107930952D01*
X40290476Y-108073809D01*
X40338095Y-108264285D01*
X40385714Y-108359523D01*
X40480952Y-108454761D01*
X40623809Y-108502380D01*
X40719047Y-108502380D01*
X40861904Y-108454761D01*
X40909523Y-108407142D01*
X40909523Y-108073809D01*
X40719047Y-108073809D01*
X40909523Y-111802380D02*
X40576190Y-111326190D01*
X40338095Y-111802380D02*
X40338095Y-110802380D01*
X40719047Y-110802380D01*
X40814285Y-110850000D01*
X40861904Y-110897619D01*
X40909523Y-110992857D01*
X40909523Y-111135714D01*
X40861904Y-111230952D01*
X40814285Y-111278571D01*
X40719047Y-111326190D01*
X40338095Y-111326190D01*
X40314285Y-114102380D02*
X40885714Y-114102380D01*
X40600000Y-115102380D02*
X40600000Y-114102380D01*
X55152380Y-107676190D02*
X55152380Y-107057142D01*
X55533333Y-107390476D01*
X55533333Y-107247619D01*
X55580952Y-107152380D01*
X55628571Y-107104761D01*
X55723809Y-107057142D01*
X55961904Y-107057142D01*
X56057142Y-107104761D01*
X56104761Y-107152380D01*
X56152380Y-107247619D01*
X56152380Y-107533333D01*
X56104761Y-107628571D01*
X56057142Y-107676190D01*
X56057142Y-106628571D02*
X56104761Y-106580952D01*
X56152380Y-106628571D01*
X56104761Y-106676190D01*
X56057142Y-106628571D01*
X56152380Y-106628571D01*
X55152380Y-106247619D02*
X55152380Y-105628571D01*
X55533333Y-105961904D01*
X55533333Y-105819047D01*
X55580952Y-105723809D01*
X55628571Y-105676190D01*
X55723809Y-105628571D01*
X55961904Y-105628571D01*
X56057142Y-105676190D01*
X56104761Y-105723809D01*
X56152380Y-105819047D01*
X56152380Y-106104761D01*
X56104761Y-106200000D01*
X56057142Y-106247619D01*
X55152380Y-105342857D02*
X56152380Y-105009523D01*
X55152380Y-104676190D01*
D12*
X51078571Y-118500000D02*
X51078571Y-119214285D01*
X51792857Y-119285714D01*
X51721428Y-119214285D01*
X51650000Y-119071428D01*
X51650000Y-118714285D01*
X51721428Y-118571428D01*
X51792857Y-118500000D01*
X51935714Y-118428571D01*
X52292857Y-118428571D01*
X52435714Y-118500000D01*
X52507142Y-118571428D01*
X52578571Y-118714285D01*
X52578571Y-119071428D01*
X52507142Y-119214285D01*
X52435714Y-119285714D01*
X51078571Y-118000000D02*
X52578571Y-117500000D01*
X51078571Y-117000000D01*
X52578571Y-115357142D02*
X51078571Y-115357142D01*
X52578571Y-114642857D02*
X51078571Y-114642857D01*
X52578571Y-113785714D01*
X51078571Y-113785714D01*
D11*
X62900000Y-106861904D02*
X62852380Y-106957142D01*
X62852380Y-107100000D01*
X62900000Y-107242857D01*
X62995238Y-107338095D01*
X63090476Y-107385714D01*
X63280952Y-107433333D01*
X63423809Y-107433333D01*
X63614285Y-107385714D01*
X63709523Y-107338095D01*
X63804761Y-107242857D01*
X63852380Y-107100000D01*
X63852380Y-107004761D01*
X63804761Y-106861904D01*
X63757142Y-106814285D01*
X63423809Y-106814285D01*
X63423809Y-107004761D01*
X63852380Y-106385714D02*
X62852380Y-106385714D01*
X63852380Y-105814285D01*
X62852380Y-105814285D01*
X63852380Y-105338095D02*
X62852380Y-105338095D01*
X62852380Y-105100000D01*
X62900000Y-104957142D01*
X62995238Y-104861904D01*
X63090476Y-104814285D01*
X63280952Y-104766666D01*
X63423809Y-104766666D01*
X63614285Y-104814285D01*
X63709523Y-104861904D01*
X63804761Y-104957142D01*
X63852380Y-105100000D01*
X63852380Y-105338095D01*
X55785714Y-99452380D02*
X55785714Y-100261904D01*
X55833333Y-100357142D01*
X55880952Y-100404761D01*
X55976190Y-100452380D01*
X56166666Y-100452380D01*
X56261904Y-100404761D01*
X56309523Y-100357142D01*
X56357142Y-100261904D01*
X56357142Y-99452380D01*
X56785714Y-100404761D02*
X56928571Y-100452380D01*
X57166666Y-100452380D01*
X57261904Y-100404761D01*
X57309523Y-100357142D01*
X57357142Y-100261904D01*
X57357142Y-100166666D01*
X57309523Y-100071428D01*
X57261904Y-100023809D01*
X57166666Y-99976190D01*
X56976190Y-99928571D01*
X56880952Y-99880952D01*
X56833333Y-99833333D01*
X56785714Y-99738095D01*
X56785714Y-99642857D01*
X56833333Y-99547619D01*
X56880952Y-99500000D01*
X56976190Y-99452380D01*
X57214285Y-99452380D01*
X57357142Y-99500000D01*
X57785714Y-99928571D02*
X58119047Y-99928571D01*
X58261904Y-100452380D02*
X57785714Y-100452380D01*
X57785714Y-99452380D01*
X58261904Y-99452380D01*
X59261904Y-100452380D02*
X58928571Y-99976190D01*
X58690476Y-100452380D02*
X58690476Y-99452380D01*
X59071428Y-99452380D01*
X59166666Y-99500000D01*
X59214285Y-99547619D01*
X59261904Y-99642857D01*
X59261904Y-99785714D01*
X59214285Y-99880952D01*
X59166666Y-99928571D01*
X59071428Y-99976190D01*
X58690476Y-99976190D01*
D10*
X24500000Y-104500000D02*
X24500000Y-119500000D01*
X24500000Y-101000000D02*
X36500000Y-101000000D01*
X65500000Y-119500000D02*
X65500000Y-104500000D01*
X53500000Y-104500000D02*
X53500000Y-119500000D01*
X36500000Y-119500000D02*
X36500000Y-104500000D01*
X36500000Y-101000000D02*
X36500000Y-104500000D01*
X24500000Y-104500000D02*
X24500000Y-101000000D01*
X53500000Y-119500000D02*
X65500000Y-119500000D01*
X24500000Y-119500000D02*
X36500000Y-119500000D01*
X53500000Y-104500000D02*
X53500000Y-101000000D01*
X65500000Y-101000000D02*
X65500000Y-104500000D01*
X53500000Y-101000000D02*
X65500000Y-101000000D01*
X36500000Y-104500000D02*
X24500000Y-104500000D01*
X65500000Y-104500000D02*
X53500000Y-104500000D01*
X74500000Y-54500000D02*
X74500000Y-69500000D01*
D11*
X82252380Y-56385714D02*
X81252380Y-56385714D01*
X82252380Y-55814285D01*
X81252380Y-55814285D01*
X82157142Y-54766666D02*
X82204761Y-54814285D01*
X82252380Y-54957142D01*
X82252380Y-55052380D01*
X82204761Y-55195238D01*
X82109523Y-55290476D01*
X82014285Y-55338095D01*
X81823809Y-55385714D01*
X81680952Y-55385714D01*
X81490476Y-55338095D01*
X81395238Y-55290476D01*
X81300000Y-55195238D01*
X81252380Y-55052380D01*
X81252380Y-54957142D01*
X81300000Y-54814285D01*
X81347619Y-54766666D01*
X81047619Y-50452380D02*
X80714285Y-49976190D01*
X80476190Y-50452380D02*
X80476190Y-49452380D01*
X80857142Y-49452380D01*
X80952380Y-49500000D01*
X81000000Y-49547619D01*
X81047619Y-49642857D01*
X81047619Y-49785714D01*
X81000000Y-49880952D01*
X80952380Y-49928571D01*
X80857142Y-49976190D01*
X80476190Y-49976190D01*
X81476190Y-49928571D02*
X81809523Y-49928571D01*
X81952380Y-50452380D02*
X81476190Y-50452380D01*
X81476190Y-49452380D01*
X81952380Y-49452380D01*
X82333333Y-50404761D02*
X82476190Y-50452380D01*
X82714285Y-50452380D01*
X82809523Y-50404761D01*
X82857142Y-50357142D01*
X82904761Y-50261904D01*
X82904761Y-50166666D01*
X82857142Y-50071428D01*
X82809523Y-50023809D01*
X82714285Y-49976190D01*
X82523809Y-49928571D01*
X82428571Y-49880952D01*
X82380952Y-49833333D01*
X82333333Y-49738095D01*
X82333333Y-49642857D01*
X82380952Y-49547619D01*
X82428571Y-49500000D01*
X82523809Y-49452380D01*
X82761904Y-49452380D01*
X82904761Y-49500000D01*
X83333333Y-49928571D02*
X83666666Y-49928571D01*
X83809523Y-50452380D02*
X83333333Y-50452380D01*
X83333333Y-49452380D01*
X83809523Y-49452380D01*
X84095238Y-49452380D02*
X84666666Y-49452380D01*
X84380952Y-50452380D02*
X84380952Y-49452380D01*
X118452380Y-28690476D02*
X118452380Y-29166666D01*
X118928571Y-29214285D01*
X118880952Y-29166666D01*
X118833333Y-29071428D01*
X118833333Y-28833333D01*
X118880952Y-28738095D01*
X118928571Y-28690476D01*
X119023809Y-28642857D01*
X119261904Y-28642857D01*
X119357142Y-28690476D01*
X119404761Y-28738095D01*
X119452380Y-28833333D01*
X119452380Y-29071428D01*
X119404761Y-29166666D01*
X119357142Y-29214285D01*
X118452380Y-28357142D02*
X119452380Y-28023809D01*
X118452380Y-27690476D01*
D12*
X105976190Y-68392857D02*
X107500000Y-68392857D01*
X111500000Y-68392857D02*
X113023809Y-68392857D01*
X112261904Y-69154761D02*
X112261904Y-67630952D01*
D11*
X78852380Y-39942857D02*
X78852380Y-40419047D01*
X77852380Y-40419047D01*
X78328571Y-39609523D02*
X78328571Y-39276190D01*
X78852380Y-39133333D02*
X78852380Y-39609523D01*
X77852380Y-39609523D01*
X77852380Y-39133333D01*
X78852380Y-38704761D02*
X77852380Y-38704761D01*
X77852380Y-38466666D01*
X77900000Y-38323809D01*
X77995238Y-38228571D01*
X78090476Y-38180952D01*
X78280952Y-38133333D01*
X78423809Y-38133333D01*
X78614285Y-38180952D01*
X78709523Y-38228571D01*
X78804761Y-38323809D01*
X78852380Y-38466666D01*
X78852380Y-38704761D01*
X108752380Y-56800000D02*
X107752380Y-56800000D01*
X107752380Y-56133333D02*
X107752380Y-55942857D01*
X107800000Y-55847619D01*
X107895238Y-55752380D01*
X108085714Y-55704761D01*
X108419047Y-55704761D01*
X108609523Y-55752380D01*
X108704761Y-55847619D01*
X108752380Y-55942857D01*
X108752380Y-56133333D01*
X108704761Y-56228571D01*
X108609523Y-56323809D01*
X108419047Y-56371428D01*
X108085714Y-56371428D01*
X107895238Y-56323809D01*
X107800000Y-56228571D01*
X107752380Y-56133333D01*
X107752380Y-54800000D02*
X107752380Y-55276190D01*
X108228571Y-55323809D01*
X108180952Y-55276190D01*
X108133333Y-55180952D01*
X108133333Y-54942857D01*
X108180952Y-54847619D01*
X108228571Y-54800000D01*
X108323809Y-54752380D01*
X108561904Y-54752380D01*
X108657142Y-54800000D01*
X108704761Y-54847619D01*
X108752380Y-54942857D01*
X108752380Y-55180952D01*
X108704761Y-55276190D01*
X108657142Y-55323809D01*
X79685714Y-27952380D02*
X79780952Y-27952380D01*
X79876190Y-28000000D01*
X79923809Y-28047619D01*
X79971428Y-28142857D01*
X80019047Y-28333333D01*
X80019047Y-28571428D01*
X79971428Y-28761904D01*
X79923809Y-28857142D01*
X79876190Y-28904761D01*
X79780952Y-28952380D01*
X79685714Y-28952380D01*
X79590476Y-28904761D01*
X79542857Y-28857142D01*
X79495238Y-28761904D01*
X79447619Y-28571428D01*
X79447619Y-28333333D01*
X79495238Y-28142857D01*
X79542857Y-28047619D01*
X79590476Y-28000000D01*
X79685714Y-27952380D01*
X80447619Y-28857142D02*
X80495238Y-28904761D01*
X80447619Y-28952380D01*
X80400000Y-28904761D01*
X80447619Y-28857142D01*
X80447619Y-28952380D01*
X81447619Y-28952380D02*
X80876190Y-28952380D01*
X81161904Y-28952380D02*
X81161904Y-27952380D01*
X81066666Y-28095238D01*
X80971428Y-28190476D01*
X80876190Y-28238095D01*
X82304761Y-28285714D02*
X82304761Y-28952380D01*
X81876190Y-28285714D02*
X81876190Y-28809523D01*
X81923809Y-28904761D01*
X82019047Y-28952380D01*
X82161904Y-28952380D01*
X82257142Y-28904761D01*
X82304761Y-28857142D01*
X111252380Y-56385714D02*
X110252380Y-56385714D01*
X111252380Y-55814285D01*
X110252380Y-55814285D01*
X111157142Y-54766666D02*
X111204761Y-54814285D01*
X111252380Y-54957142D01*
X111252380Y-55052380D01*
X111204761Y-55195238D01*
X111109523Y-55290476D01*
X111014285Y-55338095D01*
X110823809Y-55385714D01*
X110680952Y-55385714D01*
X110490476Y-55338095D01*
X110395238Y-55290476D01*
X110300000Y-55195238D01*
X110252380Y-55052380D01*
X110252380Y-54957142D01*
X110300000Y-54814285D01*
X110347619Y-54766666D01*
X76252380Y-57676190D02*
X76252380Y-57057142D01*
X76633333Y-57390476D01*
X76633333Y-57247619D01*
X76680952Y-57152380D01*
X76728571Y-57104761D01*
X76823809Y-57057142D01*
X77061904Y-57057142D01*
X77157142Y-57104761D01*
X77204761Y-57152380D01*
X77252380Y-57247619D01*
X77252380Y-57533333D01*
X77204761Y-57628571D01*
X77157142Y-57676190D01*
X77157142Y-56628571D02*
X77204761Y-56580952D01*
X77252380Y-56628571D01*
X77204761Y-56676190D01*
X77157142Y-56628571D01*
X77252380Y-56628571D01*
X76252380Y-56247619D02*
X76252380Y-55628571D01*
X76633333Y-55961904D01*
X76633333Y-55819047D01*
X76680952Y-55723809D01*
X76728571Y-55676190D01*
X76823809Y-55628571D01*
X77061904Y-55628571D01*
X77157142Y-55676190D01*
X77204761Y-55723809D01*
X77252380Y-55819047D01*
X77252380Y-56104761D01*
X77204761Y-56200000D01*
X77157142Y-56247619D01*
X76252380Y-55342857D02*
X77252380Y-55009523D01*
X76252380Y-54676190D01*
X110238095Y-20302380D02*
X110238095Y-21111904D01*
X110285714Y-21207142D01*
X110333333Y-21254761D01*
X110428571Y-21302380D01*
X110619047Y-21302380D01*
X110714285Y-21254761D01*
X110761904Y-21207142D01*
X110809523Y-21111904D01*
X110809523Y-20302380D01*
X111238095Y-21254761D02*
X111380952Y-21302380D01*
X111619047Y-21302380D01*
X111714285Y-21254761D01*
X111761904Y-21207142D01*
X111809523Y-21111904D01*
X111809523Y-21016666D01*
X111761904Y-20921428D01*
X111714285Y-20873809D01*
X111619047Y-20826190D01*
X111428571Y-20778571D01*
X111333333Y-20730952D01*
X111285714Y-20683333D01*
X111238095Y-20588095D01*
X111238095Y-20492857D01*
X111285714Y-20397619D01*
X111333333Y-20350000D01*
X111428571Y-20302380D01*
X111666666Y-20302380D01*
X111809523Y-20350000D01*
X112571428Y-20778571D02*
X112714285Y-20826190D01*
X112761904Y-20873809D01*
X112809523Y-20969047D01*
X112809523Y-21111904D01*
X112761904Y-21207142D01*
X112714285Y-21254761D01*
X112619047Y-21302380D01*
X112238095Y-21302380D01*
X112238095Y-20302380D01*
X112571428Y-20302380D01*
X112666666Y-20350000D01*
X112714285Y-20397619D01*
X112761904Y-20492857D01*
X112761904Y-20588095D01*
X112714285Y-20683333D01*
X112666666Y-20730952D01*
X112571428Y-20778571D01*
X112238095Y-20778571D01*
X109738095Y-22952380D02*
X109738095Y-21952380D01*
X110071428Y-22666666D01*
X110404761Y-21952380D01*
X110404761Y-22952380D01*
X110880952Y-22952380D02*
X110880952Y-22285714D01*
X110880952Y-21952380D02*
X110833333Y-22000000D01*
X110880952Y-22047619D01*
X110928571Y-22000000D01*
X110880952Y-21952380D01*
X110880952Y-22047619D01*
X111785714Y-22904761D02*
X111690476Y-22952380D01*
X111500000Y-22952380D01*
X111404761Y-22904761D01*
X111357142Y-22857142D01*
X111309523Y-22761904D01*
X111309523Y-22476190D01*
X111357142Y-22380952D01*
X111404761Y-22333333D01*
X111500000Y-22285714D01*
X111690476Y-22285714D01*
X111785714Y-22333333D01*
X112214285Y-22952380D02*
X112214285Y-22285714D01*
X112214285Y-22476190D02*
X112261904Y-22380952D01*
X112309523Y-22333333D01*
X112404761Y-22285714D01*
X112500000Y-22285714D01*
X112976190Y-22952380D02*
X112880952Y-22904761D01*
X112833333Y-22857142D01*
X112785714Y-22761904D01*
X112785714Y-22476190D01*
X112833333Y-22380952D01*
X112880952Y-22333333D01*
X112976190Y-22285714D01*
X113119047Y-22285714D01*
X113214285Y-22333333D01*
X113261904Y-22380952D01*
X113309523Y-22476190D01*
X113309523Y-22761904D01*
X113261904Y-22857142D01*
X113214285Y-22904761D01*
X113119047Y-22952380D01*
X112976190Y-22952380D01*
X107214285Y-24983333D02*
X107166666Y-24935714D01*
X107071428Y-24792857D01*
X107023809Y-24697619D01*
X106976190Y-24554761D01*
X106928571Y-24316666D01*
X106928571Y-24126190D01*
X106976190Y-23888095D01*
X107023809Y-23745238D01*
X107071428Y-23650000D01*
X107166666Y-23507142D01*
X107214285Y-23459523D01*
X107595238Y-24602380D02*
X107595238Y-23602380D01*
X107976190Y-23602380D01*
X108071428Y-23650000D01*
X108119047Y-23697619D01*
X108166666Y-23792857D01*
X108166666Y-23935714D01*
X108119047Y-24030952D01*
X108071428Y-24078571D01*
X107976190Y-24126190D01*
X107595238Y-24126190D01*
X108738095Y-24602380D02*
X108642857Y-24554761D01*
X108595238Y-24507142D01*
X108547619Y-24411904D01*
X108547619Y-24126190D01*
X108595238Y-24030952D01*
X108642857Y-23983333D01*
X108738095Y-23935714D01*
X108880952Y-23935714D01*
X108976190Y-23983333D01*
X109023809Y-24030952D01*
X109071428Y-24126190D01*
X109071428Y-24411904D01*
X109023809Y-24507142D01*
X108976190Y-24554761D01*
X108880952Y-24602380D01*
X108738095Y-24602380D01*
X109404761Y-23935714D02*
X109595238Y-24602380D01*
X109785714Y-24126190D01*
X109976190Y-24602380D01*
X110166666Y-23935714D01*
X110928571Y-24554761D02*
X110833333Y-24602380D01*
X110642857Y-24602380D01*
X110547619Y-24554761D01*
X110500000Y-24459523D01*
X110500000Y-24078571D01*
X110547619Y-23983333D01*
X110642857Y-23935714D01*
X110833333Y-23935714D01*
X110928571Y-23983333D01*
X110976190Y-24078571D01*
X110976190Y-24173809D01*
X110500000Y-24269047D01*
X111404761Y-24602380D02*
X111404761Y-23935714D01*
X111404761Y-24126190D02*
X111452380Y-24030952D01*
X111500000Y-23983333D01*
X111595238Y-23935714D01*
X111690476Y-23935714D01*
X112928571Y-24602380D02*
X112833333Y-24554761D01*
X112785714Y-24507142D01*
X112738095Y-24411904D01*
X112738095Y-24126190D01*
X112785714Y-24030952D01*
X112833333Y-23983333D01*
X112928571Y-23935714D01*
X113071428Y-23935714D01*
X113166666Y-23983333D01*
X113214285Y-24030952D01*
X113261904Y-24126190D01*
X113261904Y-24411904D01*
X113214285Y-24507142D01*
X113166666Y-24554761D01*
X113071428Y-24602380D01*
X112928571Y-24602380D01*
X113690476Y-23935714D02*
X113690476Y-24602380D01*
X113690476Y-24030952D02*
X113738095Y-23983333D01*
X113833333Y-23935714D01*
X113976190Y-23935714D01*
X114071428Y-23983333D01*
X114119047Y-24078571D01*
X114119047Y-24602380D01*
X114738095Y-24602380D02*
X114642857Y-24554761D01*
X114595238Y-24459523D01*
X114595238Y-23602380D01*
X115023809Y-23935714D02*
X115261904Y-24602380D01*
X115500000Y-23935714D02*
X115261904Y-24602380D01*
X115166666Y-24840476D01*
X115119047Y-24888095D01*
X115023809Y-24935714D01*
X115785714Y-24983333D02*
X115833333Y-24935714D01*
X115928571Y-24792857D01*
X115976190Y-24697619D01*
X116023809Y-24554761D01*
X116071428Y-24316666D01*
X116071428Y-24126190D01*
X116023809Y-23888095D01*
X115976190Y-23745238D01*
X115928571Y-23650000D01*
X115833333Y-23507142D01*
X115785714Y-23459523D01*
X90838095Y-54202380D02*
X90361904Y-54202380D01*
X90314285Y-54678571D01*
X90361904Y-54630952D01*
X90457142Y-54583333D01*
X90695238Y-54583333D01*
X90790476Y-54630952D01*
X90838095Y-54678571D01*
X90885714Y-54773809D01*
X90885714Y-55011904D01*
X90838095Y-55107142D01*
X90790476Y-55154761D01*
X90695238Y-55202380D01*
X90457142Y-55202380D01*
X90361904Y-55154761D01*
X90314285Y-55107142D01*
X90861904Y-57550000D02*
X90766666Y-57502380D01*
X90623809Y-57502380D01*
X90480952Y-57550000D01*
X90385714Y-57645238D01*
X90338095Y-57740476D01*
X90290476Y-57930952D01*
X90290476Y-58073809D01*
X90338095Y-58264285D01*
X90385714Y-58359523D01*
X90480952Y-58454761D01*
X90623809Y-58502380D01*
X90719047Y-58502380D01*
X90861904Y-58454761D01*
X90909523Y-58407142D01*
X90909523Y-58073809D01*
X90719047Y-58073809D01*
X90909523Y-61802380D02*
X90576190Y-61326190D01*
X90338095Y-61802380D02*
X90338095Y-60802380D01*
X90719047Y-60802380D01*
X90814285Y-60850000D01*
X90861904Y-60897619D01*
X90909523Y-60992857D01*
X90909523Y-61135714D01*
X90861904Y-61230952D01*
X90814285Y-61278571D01*
X90719047Y-61326190D01*
X90338095Y-61326190D01*
X90314285Y-64102380D02*
X90885714Y-64102380D01*
X90600000Y-65102380D02*
X90600000Y-64102380D01*
X70500000Y-62261904D02*
X70452380Y-62357142D01*
X70452380Y-62500000D01*
X70500000Y-62642857D01*
X70595238Y-62738095D01*
X70690476Y-62785714D01*
X70880952Y-62833333D01*
X71023809Y-62833333D01*
X71214285Y-62785714D01*
X71309523Y-62738095D01*
X71404761Y-62642857D01*
X71452380Y-62500000D01*
X71452380Y-62404761D01*
X71404761Y-62261904D01*
X71357142Y-62214285D01*
X71023809Y-62214285D01*
X71023809Y-62404761D01*
X71452380Y-61785714D02*
X70452380Y-61785714D01*
X71452380Y-61214285D01*
X70452380Y-61214285D01*
X71452380Y-60738095D02*
X70452380Y-60738095D01*
X70452380Y-60500000D01*
X70500000Y-60357142D01*
X70595238Y-60261904D01*
X70690476Y-60214285D01*
X70880952Y-60166666D01*
X71023809Y-60166666D01*
X71214285Y-60214285D01*
X71309523Y-60261904D01*
X71404761Y-60357142D01*
X71452380Y-60500000D01*
X71452380Y-60738095D01*
X93642857Y-49928571D02*
X93785714Y-49976190D01*
X93833333Y-50023809D01*
X93880952Y-50119047D01*
X93880952Y-50261904D01*
X93833333Y-50357142D01*
X93785714Y-50404761D01*
X93690476Y-50452380D01*
X93309523Y-50452380D01*
X93309523Y-49452380D01*
X93642857Y-49452380D01*
X93738095Y-49500000D01*
X93785714Y-49547619D01*
X93833333Y-49642857D01*
X93833333Y-49738095D01*
X93785714Y-49833333D01*
X93738095Y-49880952D01*
X93642857Y-49928571D01*
X93309523Y-49928571D01*
X94500000Y-49452380D02*
X94690476Y-49452380D01*
X94785714Y-49500000D01*
X94880952Y-49595238D01*
X94928571Y-49785714D01*
X94928571Y-50119047D01*
X94880952Y-50309523D01*
X94785714Y-50404761D01*
X94690476Y-50452380D01*
X94500000Y-50452380D01*
X94404761Y-50404761D01*
X94309523Y-50309523D01*
X94261904Y-50119047D01*
X94261904Y-49785714D01*
X94309523Y-49595238D01*
X94404761Y-49500000D01*
X94500000Y-49452380D01*
X95547619Y-49452380D02*
X95738095Y-49452380D01*
X95833333Y-49500000D01*
X95928571Y-49595238D01*
X95976190Y-49785714D01*
X95976190Y-50119047D01*
X95928571Y-50309523D01*
X95833333Y-50404761D01*
X95738095Y-50452380D01*
X95547619Y-50452380D01*
X95452380Y-50404761D01*
X95357142Y-50309523D01*
X95309523Y-50119047D01*
X95309523Y-49785714D01*
X95357142Y-49595238D01*
X95452380Y-49500000D01*
X95547619Y-49452380D01*
X96261904Y-49452380D02*
X96833333Y-49452380D01*
X96547619Y-50452380D02*
X96547619Y-49452380D01*
X105785714Y-49452380D02*
X105785714Y-50261904D01*
X105833333Y-50357142D01*
X105880952Y-50404761D01*
X105976190Y-50452380D01*
X106166666Y-50452380D01*
X106261904Y-50404761D01*
X106309523Y-50357142D01*
X106357142Y-50261904D01*
X106357142Y-49452380D01*
X106785714Y-50404761D02*
X106928571Y-50452380D01*
X107166666Y-50452380D01*
X107261904Y-50404761D01*
X107309523Y-50357142D01*
X107357142Y-50261904D01*
X107357142Y-50166666D01*
X107309523Y-50071428D01*
X107261904Y-50023809D01*
X107166666Y-49976190D01*
X106976190Y-49928571D01*
X106880952Y-49880952D01*
X106833333Y-49833333D01*
X106785714Y-49738095D01*
X106785714Y-49642857D01*
X106833333Y-49547619D01*
X106880952Y-49500000D01*
X106976190Y-49452380D01*
X107214285Y-49452380D01*
X107357142Y-49500000D01*
X107785714Y-49928571D02*
X108119047Y-49928571D01*
X108261904Y-50452380D02*
X107785714Y-50452380D01*
X107785714Y-49452380D01*
X108261904Y-49452380D01*
X109261904Y-50452380D02*
X108928571Y-49976190D01*
X108690476Y-50452380D02*
X108690476Y-49452380D01*
X109071428Y-49452380D01*
X109166666Y-49500000D01*
X109214285Y-49547619D01*
X109261904Y-49642857D01*
X109261904Y-49785714D01*
X109214285Y-49880952D01*
X109166666Y-49928571D01*
X109071428Y-49976190D01*
X108690476Y-49976190D01*
D12*
X101078571Y-68500000D02*
X101078571Y-69214285D01*
X101792857Y-69285714D01*
X101721428Y-69214285D01*
X101650000Y-69071428D01*
X101650000Y-68714285D01*
X101721428Y-68571428D01*
X101792857Y-68500000D01*
X101935714Y-68428571D01*
X102292857Y-68428571D01*
X102435714Y-68500000D01*
X102507142Y-68571428D01*
X102578571Y-68714285D01*
X102578571Y-69071428D01*
X102507142Y-69214285D01*
X102435714Y-69285714D01*
X101078571Y-68000000D02*
X102578571Y-67500000D01*
X101078571Y-67000000D01*
X102578571Y-65357142D02*
X101078571Y-65357142D01*
X102578571Y-64642857D02*
X101078571Y-64642857D01*
X102578571Y-63785714D01*
X101078571Y-63785714D01*
D11*
X106647619Y-34952380D02*
X106600000Y-34904761D01*
X106552380Y-34809523D01*
X106552380Y-34571428D01*
X106600000Y-34476190D01*
X106647619Y-34428571D01*
X106742857Y-34380952D01*
X106838095Y-34380952D01*
X106980952Y-34428571D01*
X107552380Y-35000000D01*
X107552380Y-34380952D01*
X107457142Y-33952380D02*
X107504761Y-33904761D01*
X107552380Y-33952380D01*
X107504761Y-34000000D01*
X107457142Y-33952380D01*
X107552380Y-33952380D01*
X106647619Y-33523809D02*
X106600000Y-33476190D01*
X106552380Y-33380952D01*
X106552380Y-33142857D01*
X106600000Y-33047619D01*
X106647619Y-33000000D01*
X106742857Y-32952380D01*
X106838095Y-32952380D01*
X106980952Y-33000000D01*
X107552380Y-33571428D01*
X107552380Y-32952380D01*
X106885714Y-32095238D02*
X107552380Y-32095238D01*
X106885714Y-32523809D02*
X107409523Y-32523809D01*
X107504761Y-32476190D01*
X107552380Y-32380952D01*
X107552380Y-32238095D01*
X107504761Y-32142857D01*
X107457142Y-32095238D01*
X79752380Y-56800000D02*
X78752380Y-56800000D01*
X78752380Y-56133333D02*
X78752380Y-55942857D01*
X78800000Y-55847619D01*
X78895238Y-55752380D01*
X79085714Y-55704761D01*
X79419047Y-55704761D01*
X79609523Y-55752380D01*
X79704761Y-55847619D01*
X79752380Y-55942857D01*
X79752380Y-56133333D01*
X79704761Y-56228571D01*
X79609523Y-56323809D01*
X79419047Y-56371428D01*
X79085714Y-56371428D01*
X78895238Y-56323809D01*
X78800000Y-56228571D01*
X78752380Y-56133333D01*
X79085714Y-54847619D02*
X79752380Y-54847619D01*
X78704761Y-55085714D02*
X79419047Y-55323809D01*
X79419047Y-54704761D01*
X105152380Y-57676190D02*
X105152380Y-57057142D01*
X105533333Y-57390476D01*
X105533333Y-57247619D01*
X105580952Y-57152380D01*
X105628571Y-57104761D01*
X105723809Y-57057142D01*
X105961904Y-57057142D01*
X106057142Y-57104761D01*
X106104761Y-57152380D01*
X106152380Y-57247619D01*
X106152380Y-57533333D01*
X106104761Y-57628571D01*
X106057142Y-57676190D01*
X106057142Y-56628571D02*
X106104761Y-56580952D01*
X106152380Y-56628571D01*
X106104761Y-56676190D01*
X106057142Y-56628571D01*
X106152380Y-56628571D01*
X105152380Y-56247619D02*
X105152380Y-55628571D01*
X105533333Y-55961904D01*
X105533333Y-55819047D01*
X105580952Y-55723809D01*
X105628571Y-55676190D01*
X105723809Y-55628571D01*
X105961904Y-55628571D01*
X106057142Y-55676190D01*
X106104761Y-55723809D01*
X106152380Y-55819047D01*
X106152380Y-56104761D01*
X106104761Y-56200000D01*
X106057142Y-56247619D01*
X105152380Y-55342857D02*
X106152380Y-55009523D01*
X105152380Y-54676190D01*
X78757142Y-33919047D02*
X78804761Y-33966666D01*
X78852380Y-34109523D01*
X78852380Y-34204761D01*
X78804761Y-34347619D01*
X78709523Y-34442857D01*
X78614285Y-34490476D01*
X78423809Y-34538095D01*
X78280952Y-34538095D01*
X78090476Y-34490476D01*
X77995238Y-34442857D01*
X77900000Y-34347619D01*
X77852380Y-34204761D01*
X77852380Y-34109523D01*
X77900000Y-33966666D01*
X77947619Y-33919047D01*
X78852380Y-33061904D02*
X77852380Y-33061904D01*
X78804761Y-33061904D02*
X78852380Y-33157142D01*
X78852380Y-33347619D01*
X78804761Y-33442857D01*
X78757142Y-33490476D01*
X78661904Y-33538095D01*
X78376190Y-33538095D01*
X78280952Y-33490476D01*
X78233333Y-33442857D01*
X78185714Y-33347619D01*
X78185714Y-33157142D01*
X78233333Y-33061904D01*
X78804761Y-32633333D02*
X78852380Y-32490476D01*
X78852380Y-32252380D01*
X78804761Y-32157142D01*
X78757142Y-32109523D01*
X78661904Y-32061904D01*
X78566666Y-32061904D01*
X78471428Y-32109523D01*
X78423809Y-32157142D01*
X78376190Y-32252380D01*
X78328571Y-32442857D01*
X78280952Y-32538095D01*
X78233333Y-32585714D01*
X78138095Y-32633333D01*
X78042857Y-32633333D01*
X77947619Y-32585714D01*
X77900000Y-32538095D01*
X77852380Y-32442857D01*
X77852380Y-32204761D01*
X77900000Y-32061904D01*
X112900000Y-56861904D02*
X112852380Y-56957142D01*
X112852380Y-57100000D01*
X112900000Y-57242857D01*
X112995238Y-57338095D01*
X113090476Y-57385714D01*
X113280952Y-57433333D01*
X113423809Y-57433333D01*
X113614285Y-57385714D01*
X113709523Y-57338095D01*
X113804761Y-57242857D01*
X113852380Y-57100000D01*
X113852380Y-57004761D01*
X113804761Y-56861904D01*
X113757142Y-56814285D01*
X113423809Y-56814285D01*
X113423809Y-57004761D01*
X113852380Y-56385714D02*
X112852380Y-56385714D01*
X113852380Y-55814285D01*
X112852380Y-55814285D01*
X113852380Y-55338095D02*
X112852380Y-55338095D01*
X112852380Y-55100000D01*
X112900000Y-54957142D01*
X112995238Y-54861904D01*
X113090476Y-54814285D01*
X113280952Y-54766666D01*
X113423809Y-54766666D01*
X113614285Y-54814285D01*
X113709523Y-54861904D01*
X113804761Y-54957142D01*
X113852380Y-55100000D01*
X113852380Y-55338095D01*
X83800000Y-56861904D02*
X83752380Y-56957142D01*
X83752380Y-57100000D01*
X83800000Y-57242857D01*
X83895238Y-57338095D01*
X83990476Y-57385714D01*
X84180952Y-57433333D01*
X84323809Y-57433333D01*
X84514285Y-57385714D01*
X84609523Y-57338095D01*
X84704761Y-57242857D01*
X84752380Y-57100000D01*
X84752380Y-57004761D01*
X84704761Y-56861904D01*
X84657142Y-56814285D01*
X84323809Y-56814285D01*
X84323809Y-57004761D01*
X84752380Y-56385714D02*
X83752380Y-56385714D01*
X84752380Y-55814285D01*
X83752380Y-55814285D01*
X84752380Y-55338095D02*
X83752380Y-55338095D01*
X83752380Y-55100000D01*
X83800000Y-54957142D01*
X83895238Y-54861904D01*
X83990476Y-54814285D01*
X84180952Y-54766666D01*
X84323809Y-54766666D01*
X84514285Y-54814285D01*
X84609523Y-54861904D01*
X84704761Y-54957142D01*
X84752380Y-55100000D01*
X84752380Y-55338095D01*
X116752380Y-34638095D02*
X116752380Y-34542857D01*
X116800000Y-34447619D01*
X116847619Y-34400000D01*
X116942857Y-34352380D01*
X117133333Y-34304761D01*
X117371428Y-34304761D01*
X117561904Y-34352380D01*
X117657142Y-34400000D01*
X117704761Y-34447619D01*
X117752380Y-34542857D01*
X117752380Y-34638095D01*
X117704761Y-34733333D01*
X117657142Y-34780952D01*
X117561904Y-34828571D01*
X117371428Y-34876190D01*
X117133333Y-34876190D01*
X116942857Y-34828571D01*
X116847619Y-34780952D01*
X116800000Y-34733333D01*
X116752380Y-34638095D01*
X117657142Y-33876190D02*
X117704761Y-33828571D01*
X117752380Y-33876190D01*
X117704761Y-33923809D01*
X117657142Y-33876190D01*
X117752380Y-33876190D01*
X116752380Y-33495238D02*
X116752380Y-32876190D01*
X117133333Y-33209523D01*
X117133333Y-33066666D01*
X117180952Y-32971428D01*
X117228571Y-32923809D01*
X117323809Y-32876190D01*
X117561904Y-32876190D01*
X117657142Y-32923809D01*
X117704761Y-32971428D01*
X117752380Y-33066666D01*
X117752380Y-33352380D01*
X117704761Y-33447619D01*
X117657142Y-33495238D01*
X116752380Y-32542857D02*
X116752380Y-31923809D01*
X117133333Y-32257142D01*
X117133333Y-32114285D01*
X117180952Y-32019047D01*
X117228571Y-31971428D01*
X117323809Y-31923809D01*
X117561904Y-31923809D01*
X117657142Y-31971428D01*
X117704761Y-32019047D01*
X117752380Y-32114285D01*
X117752380Y-32400000D01*
X117704761Y-32495238D01*
X117657142Y-32542857D01*
D12*
X81404761Y-67838095D02*
X79404761Y-67838095D01*
X79404761Y-67361904D01*
X79500000Y-67076190D01*
X79690476Y-66885714D01*
X79880952Y-66790476D01*
X80261904Y-66695238D01*
X80547619Y-66695238D01*
X80928571Y-66790476D01*
X81119047Y-66885714D01*
X81309523Y-67076190D01*
X81404761Y-67361904D01*
X81404761Y-67838095D01*
X81404761Y-65838095D02*
X79404761Y-65838095D01*
X80357142Y-65838095D02*
X80357142Y-64695238D01*
X81404761Y-64695238D02*
X79404761Y-64695238D01*
X79404761Y-64028571D02*
X79404761Y-62885714D01*
X81404761Y-63457142D02*
X79404761Y-63457142D01*
X81404761Y-61171428D02*
X81404761Y-62314285D01*
X81404761Y-61742857D02*
X79404761Y-61742857D01*
X79690476Y-61933333D01*
X79880952Y-62123809D01*
X79976190Y-62314285D01*
X81404761Y-59266666D02*
X81404761Y-60409523D01*
X81404761Y-59838095D02*
X79404761Y-59838095D01*
X79690476Y-60028571D01*
X79880952Y-60219047D01*
X79976190Y-60409523D01*
D10*
X103500000Y-54500000D02*
X103500000Y-69500000D01*
X74500000Y-51000000D02*
X86500000Y-51000000D01*
X74500000Y-69500000D02*
X86500000Y-69500000D01*
X103500000Y-54500000D02*
X103500000Y-51000000D01*
X86500000Y-51000000D02*
X86500000Y-54500000D01*
X103500000Y-69500000D02*
X115500000Y-69500000D01*
X115500000Y-69500000D02*
X115500000Y-54500000D01*
X74500000Y-54500000D02*
X74500000Y-51000000D01*
X86500000Y-69500000D02*
X86500000Y-54500000D01*
X115500000Y-51000000D02*
X115500000Y-54500000D01*
X86500000Y-54500000D02*
X74500000Y-54500000D01*
X115500000Y-54500000D02*
X103500000Y-54500000D01*
X103500000Y-51000000D02*
X115500000Y-51000000D01*
D11*
X88928571Y-22928571D02*
X89261904Y-22928571D01*
X89404761Y-23452380D02*
X88928571Y-23452380D01*
X88928571Y-22452380D01*
X89404761Y-22452380D01*
X89785714Y-23404761D02*
X89928571Y-23452380D01*
X90166666Y-23452380D01*
X90261904Y-23404761D01*
X90309523Y-23357142D01*
X90357142Y-23261904D01*
X90357142Y-23166666D01*
X90309523Y-23071428D01*
X90261904Y-23023809D01*
X90166666Y-22976190D01*
X89976190Y-22928571D01*
X89880952Y-22880952D01*
X89833333Y-22833333D01*
X89785714Y-22738095D01*
X89785714Y-22642857D01*
X89833333Y-22547619D01*
X89880952Y-22500000D01*
X89976190Y-22452380D01*
X90214285Y-22452380D01*
X90357142Y-22500000D01*
X90785714Y-23452380D02*
X90785714Y-22452380D01*
X91166666Y-22452380D01*
X91261904Y-22500000D01*
X91309523Y-22547619D01*
X91357142Y-22642857D01*
X91357142Y-22785714D01*
X91309523Y-22880952D01*
X91261904Y-22928571D01*
X91166666Y-22976190D01*
X90785714Y-22976190D01*
X91785714Y-23071428D02*
X92547619Y-23071428D01*
X92928571Y-22452380D02*
X93166666Y-23452380D01*
X93357142Y-22738095D01*
X93547619Y-23452380D01*
X93785714Y-22452380D01*
X94738095Y-23452380D02*
X94404761Y-22976190D01*
X94166666Y-23452380D02*
X94166666Y-22452380D01*
X94547619Y-22452380D01*
X94642857Y-22500000D01*
X94690476Y-22547619D01*
X94738095Y-22642857D01*
X94738095Y-22785714D01*
X94690476Y-22880952D01*
X94642857Y-22928571D01*
X94547619Y-22976190D01*
X94166666Y-22976190D01*
X95357142Y-22452380D02*
X95547619Y-22452380D01*
X95642857Y-22500000D01*
X95738095Y-22595238D01*
X95785714Y-22785714D01*
X95785714Y-23119047D01*
X95738095Y-23309523D01*
X95642857Y-23404761D01*
X95547619Y-23452380D01*
X95357142Y-23452380D01*
X95261904Y-23404761D01*
X95166666Y-23309523D01*
X95119047Y-23119047D01*
X95119047Y-22785714D01*
X95166666Y-22595238D01*
X95261904Y-22500000D01*
X95357142Y-22452380D01*
X96404761Y-22452380D02*
X96595238Y-22452380D01*
X96690476Y-22500000D01*
X96785714Y-22595238D01*
X96833333Y-22785714D01*
X96833333Y-23119047D01*
X96785714Y-23309523D01*
X96690476Y-23404761D01*
X96595238Y-23452380D01*
X96404761Y-23452380D01*
X96309523Y-23404761D01*
X96214285Y-23309523D01*
X96166666Y-23119047D01*
X96166666Y-22785714D01*
X96214285Y-22595238D01*
X96309523Y-22500000D01*
X96404761Y-22452380D01*
X97261904Y-23452380D02*
X97261904Y-22452380D01*
X97595238Y-23166666D01*
X97928571Y-22452380D01*
X97928571Y-23452380D01*
X98404761Y-23071428D02*
X99166666Y-23071428D01*
X99833333Y-22452380D02*
X99928571Y-22452380D01*
X100023809Y-22500000D01*
X100071428Y-22547619D01*
X100119047Y-22642857D01*
X100166666Y-22833333D01*
X100166666Y-23071428D01*
X100119047Y-23261904D01*
X100071428Y-23357142D01*
X100023809Y-23404761D01*
X99928571Y-23452380D01*
X99833333Y-23452380D01*
X99738095Y-23404761D01*
X99690476Y-23357142D01*
X99642857Y-23261904D01*
X99595238Y-23071428D01*
X99595238Y-22833333D01*
X99642857Y-22642857D01*
X99690476Y-22547619D01*
X99738095Y-22500000D01*
X99833333Y-22452380D01*
X100547619Y-22547619D02*
X100595238Y-22500000D01*
X100690476Y-22452380D01*
X100928571Y-22452380D01*
X101023809Y-22500000D01*
X101071428Y-22547619D01*
X101119047Y-22642857D01*
X101119047Y-22738095D01*
X101071428Y-22880952D01*
X100500000Y-23452380D01*
X101119047Y-23452380D01*
X111927380Y-33642857D02*
X110927380Y-33642857D01*
X111927380Y-33071428D01*
X110927380Y-33071428D01*
X110927380Y-32309523D02*
X111641666Y-32309523D01*
X111784523Y-32357142D01*
X111879761Y-32452380D01*
X111927380Y-32595238D01*
X111927380Y-32690476D01*
X111927380Y-31833333D02*
X110927380Y-31833333D01*
X111641666Y-31500000D01*
X110927380Y-31166666D01*
X111927380Y-31166666D01*
X111022619Y-30738095D02*
X110975000Y-30690476D01*
X110927380Y-30595238D01*
X110927380Y-30357142D01*
X110975000Y-30261904D01*
X111022619Y-30214285D01*
X111117857Y-30166666D01*
X111213095Y-30166666D01*
X111355952Y-30214285D01*
X111927380Y-30785714D01*
X111927380Y-30166666D01*
X111355952Y-29595238D02*
X111308333Y-29690476D01*
X111260714Y-29738095D01*
X111165476Y-29785714D01*
X111117857Y-29785714D01*
X111022619Y-29738095D01*
X110975000Y-29690476D01*
X110927380Y-29595238D01*
X110927380Y-29404761D01*
X110975000Y-29309523D01*
X111022619Y-29261904D01*
X111117857Y-29214285D01*
X111165476Y-29214285D01*
X111260714Y-29261904D01*
X111308333Y-29309523D01*
X111355952Y-29404761D01*
X111355952Y-29595238D01*
X111403571Y-29690476D01*
X111451190Y-29738095D01*
X111546428Y-29785714D01*
X111736904Y-29785714D01*
X111832142Y-29738095D01*
X111879761Y-29690476D01*
X111927380Y-29595238D01*
X111927380Y-29404761D01*
X111879761Y-29309523D01*
X111832142Y-29261904D01*
X111736904Y-29214285D01*
X111546428Y-29214285D01*
X111451190Y-29261904D01*
X111403571Y-29309523D01*
X111355952Y-29404761D01*
X111260714Y-28357142D02*
X111927380Y-28357142D01*
X110879761Y-28595238D02*
X111594047Y-28833333D01*
X111594047Y-28214285D01*
X110927380Y-27357142D02*
X110927380Y-27833333D01*
X111403571Y-27880952D01*
X111355952Y-27833333D01*
X111308333Y-27738095D01*
X111308333Y-27500000D01*
X111355952Y-27404761D01*
X111403571Y-27357142D01*
X111498809Y-27309523D01*
X111736904Y-27309523D01*
X111832142Y-27357142D01*
X111879761Y-27404761D01*
X111927380Y-27500000D01*
X111927380Y-27738095D01*
X111879761Y-27833333D01*
X111832142Y-27880952D01*
X113577380Y-33214285D02*
X112577380Y-33214285D01*
X112577380Y-32976190D01*
X112625000Y-32833333D01*
X112720238Y-32738095D01*
X112815476Y-32690476D01*
X113005952Y-32642857D01*
X113148809Y-32642857D01*
X113339285Y-32690476D01*
X113434523Y-32738095D01*
X113529761Y-32833333D01*
X113577380Y-32976190D01*
X113577380Y-33214285D01*
X113577380Y-31738095D02*
X113577380Y-32214285D01*
X112577380Y-32214285D01*
X113577380Y-30880952D02*
X113577380Y-31452380D01*
X113577380Y-31166666D02*
X112577380Y-31166666D01*
X112720238Y-31261904D01*
X112815476Y-31357142D01*
X112863095Y-31452380D01*
X113196428Y-30452380D02*
X113196428Y-29690476D01*
X112577380Y-29309523D02*
X112577380Y-28690476D01*
X112958333Y-29023809D01*
X112958333Y-28880952D01*
X113005952Y-28785714D01*
X113053571Y-28738095D01*
X113148809Y-28690476D01*
X113386904Y-28690476D01*
X113482142Y-28738095D01*
X113529761Y-28785714D01*
X113577380Y-28880952D01*
X113577380Y-29166666D01*
X113529761Y-29261904D01*
X113482142Y-29309523D01*
X112577380Y-28357142D02*
X112577380Y-27738095D01*
X112958333Y-28071428D01*
X112958333Y-27928571D01*
X113005952Y-27833333D01*
X113053571Y-27785714D01*
X113148809Y-27738095D01*
X113386904Y-27738095D01*
X113482142Y-27785714D01*
X113529761Y-27833333D01*
X113577380Y-27928571D01*
X113577380Y-28214285D01*
X113529761Y-28309523D01*
X113482142Y-28357142D01*
X71738095Y-31500000D02*
X71642857Y-31452380D01*
X71500000Y-31452380D01*
X71357142Y-31500000D01*
X71261904Y-31595238D01*
X71214285Y-31690476D01*
X71166666Y-31880952D01*
X71166666Y-32023809D01*
X71214285Y-32214285D01*
X71261904Y-32309523D01*
X71357142Y-32404761D01*
X71500000Y-32452380D01*
X71595238Y-32452380D01*
X71738095Y-32404761D01*
X71785714Y-32357142D01*
X71785714Y-32023809D01*
X71595238Y-32023809D01*
X72214285Y-32452380D02*
X72214285Y-31452380D01*
X72785714Y-32452380D01*
X72785714Y-31452380D01*
X73261904Y-32452380D02*
X73261904Y-31452380D01*
X73500000Y-31452380D01*
X73642857Y-31500000D01*
X73738095Y-31595238D01*
X73785714Y-31690476D01*
X73833333Y-31880952D01*
X73833333Y-32023809D01*
X73785714Y-32214285D01*
X73738095Y-32309523D01*
X73642857Y-32404761D01*
X73500000Y-32452380D01*
X73261904Y-32452380D01*
X79119047Y-37471428D02*
X79880952Y-37471428D01*
X79500000Y-37852380D02*
X79500000Y-37090476D01*
X70823809Y-33952380D02*
X71442857Y-33952380D01*
X71109523Y-34333333D01*
X71252380Y-34333333D01*
X71347619Y-34380952D01*
X71395238Y-34428571D01*
X71442857Y-34523809D01*
X71442857Y-34761904D01*
X71395238Y-34857142D01*
X71347619Y-34904761D01*
X71252380Y-34952380D01*
X70966666Y-34952380D01*
X70871428Y-34904761D01*
X70823809Y-34857142D01*
X71871428Y-34857142D02*
X71919047Y-34904761D01*
X71871428Y-34952380D01*
X71823809Y-34904761D01*
X71871428Y-34857142D01*
X71871428Y-34952380D01*
X72252380Y-33952380D02*
X72871428Y-33952380D01*
X72538095Y-34333333D01*
X72680952Y-34333333D01*
X72776190Y-34380952D01*
X72823809Y-34428571D01*
X72871428Y-34523809D01*
X72871428Y-34761904D01*
X72823809Y-34857142D01*
X72776190Y-34904761D01*
X72680952Y-34952380D01*
X72395238Y-34952380D01*
X72300000Y-34904761D01*
X72252380Y-34857142D01*
X73157142Y-33952380D02*
X73490476Y-34952380D01*
X73823809Y-33952380D01*
X72833333Y-30857142D02*
X72785714Y-30904761D01*
X72642857Y-30952380D01*
X72547619Y-30952380D01*
X72404761Y-30904761D01*
X72309523Y-30809523D01*
X72261904Y-30714285D01*
X72214285Y-30523809D01*
X72214285Y-30380952D01*
X72261904Y-30190476D01*
X72309523Y-30095238D01*
X72404761Y-30000000D01*
X72547619Y-29952380D01*
X72642857Y-29952380D01*
X72785714Y-30000000D01*
X72833333Y-30047619D01*
X73214285Y-30904761D02*
X73357142Y-30952380D01*
X73595238Y-30952380D01*
X73690476Y-30904761D01*
X73738095Y-30857142D01*
X73785714Y-30761904D01*
X73785714Y-30666666D01*
X73738095Y-30571428D01*
X73690476Y-30523809D01*
X73595238Y-30476190D01*
X73404761Y-30428571D01*
X73309523Y-30380952D01*
X73261904Y-30333333D01*
X73214285Y-30238095D01*
X73214285Y-30142857D01*
X73261904Y-30047619D01*
X73309523Y-30000000D01*
X73404761Y-29952380D01*
X73642857Y-29952380D01*
X73785714Y-30000000D01*
X70728571Y-26952380D02*
X70728571Y-25952380D01*
X71061904Y-26666666D01*
X71395238Y-25952380D01*
X71395238Y-26952380D01*
X72061904Y-25952380D02*
X72252380Y-25952380D01*
X72347619Y-26000000D01*
X72442857Y-26095238D01*
X72490476Y-26285714D01*
X72490476Y-26619047D01*
X72442857Y-26809523D01*
X72347619Y-26904761D01*
X72252380Y-26952380D01*
X72061904Y-26952380D01*
X71966666Y-26904761D01*
X71871428Y-26809523D01*
X71823809Y-26619047D01*
X71823809Y-26285714D01*
X71871428Y-26095238D01*
X71966666Y-26000000D01*
X72061904Y-25952380D01*
X72871428Y-26904761D02*
X73014285Y-26952380D01*
X73252380Y-26952380D01*
X73347619Y-26904761D01*
X73395238Y-26857142D01*
X73442857Y-26761904D01*
X73442857Y-26666666D01*
X73395238Y-26571428D01*
X73347619Y-26523809D01*
X73252380Y-26476190D01*
X73061904Y-26428571D01*
X72966666Y-26380952D01*
X72919047Y-26333333D01*
X72871428Y-26238095D01*
X72871428Y-26142857D01*
X72919047Y-26047619D01*
X72966666Y-26000000D01*
X73061904Y-25952380D01*
X73300000Y-25952380D01*
X73442857Y-26000000D01*
X73871428Y-26952380D02*
X73871428Y-25952380D01*
X70728571Y-24952380D02*
X70728571Y-23952380D01*
X71061904Y-24666666D01*
X71395238Y-23952380D01*
X71395238Y-24952380D01*
X71871428Y-24952380D02*
X71871428Y-23952380D01*
X72300000Y-24904761D02*
X72442857Y-24952380D01*
X72680952Y-24952380D01*
X72776190Y-24904761D01*
X72823809Y-24857142D01*
X72871428Y-24761904D01*
X72871428Y-24666666D01*
X72823809Y-24571428D01*
X72776190Y-24523809D01*
X72680952Y-24476190D01*
X72490476Y-24428571D01*
X72395238Y-24380952D01*
X72347619Y-24333333D01*
X72300000Y-24238095D01*
X72300000Y-24142857D01*
X72347619Y-24047619D01*
X72395238Y-24000000D01*
X72490476Y-23952380D01*
X72728571Y-23952380D01*
X72871428Y-24000000D01*
X73490476Y-23952380D02*
X73680952Y-23952380D01*
X73776190Y-24000000D01*
X73871428Y-24095238D01*
X73919047Y-24285714D01*
X73919047Y-24619047D01*
X73871428Y-24809523D01*
X73776190Y-24904761D01*
X73680952Y-24952380D01*
X73490476Y-24952380D01*
X73395238Y-24904761D01*
X73300000Y-24809523D01*
X73252380Y-24619047D01*
X73252380Y-24285714D01*
X73300000Y-24095238D01*
X73395238Y-24000000D01*
X73490476Y-23952380D01*
X72104761Y-22357142D02*
X72057142Y-22404761D01*
X71914285Y-22452380D01*
X71819047Y-22452380D01*
X71676190Y-22404761D01*
X71580952Y-22309523D01*
X71533333Y-22214285D01*
X71485714Y-22023809D01*
X71485714Y-21880952D01*
X71533333Y-21690476D01*
X71580952Y-21595238D01*
X71676190Y-21500000D01*
X71819047Y-21452380D01*
X71914285Y-21452380D01*
X72057142Y-21500000D01*
X72104761Y-21547619D01*
X73009523Y-22452380D02*
X72533333Y-22452380D01*
X72533333Y-21452380D01*
X73342857Y-22452380D02*
X73342857Y-21452380D01*
X73914285Y-22452380D02*
X73485714Y-21880952D01*
X73914285Y-21452380D02*
X73342857Y-22023809D01*
X87323809Y-66352380D02*
X87323809Y-65352380D01*
X87704761Y-65352380D01*
X87800000Y-65400000D01*
X87847619Y-65447619D01*
X87895238Y-65542857D01*
X87895238Y-65685714D01*
X87847619Y-65780952D01*
X87800000Y-65828571D01*
X87704761Y-65876190D01*
X87323809Y-65876190D01*
X88323809Y-66352380D02*
X88323809Y-65685714D01*
X88323809Y-65876190D02*
X88371428Y-65780952D01*
X88419047Y-65733333D01*
X88514285Y-65685714D01*
X88609523Y-65685714D01*
X89085714Y-66352380D02*
X88990476Y-66304761D01*
X88942857Y-66257142D01*
X88895238Y-66161904D01*
X88895238Y-65876190D01*
X88942857Y-65780952D01*
X88990476Y-65733333D01*
X89085714Y-65685714D01*
X89228571Y-65685714D01*
X89323809Y-65733333D01*
X89371428Y-65780952D01*
X89419047Y-65876190D01*
X89419047Y-66161904D01*
X89371428Y-66257142D01*
X89323809Y-66304761D01*
X89228571Y-66352380D01*
X89085714Y-66352380D01*
X90276190Y-65685714D02*
X90276190Y-66495238D01*
X90228571Y-66590476D01*
X90180952Y-66638095D01*
X90085714Y-66685714D01*
X89942857Y-66685714D01*
X89847619Y-66638095D01*
X90276190Y-66304761D02*
X90180952Y-66352380D01*
X89990476Y-66352380D01*
X89895238Y-66304761D01*
X89847619Y-66257142D01*
X89800000Y-66161904D01*
X89800000Y-65876190D01*
X89847619Y-65780952D01*
X89895238Y-65733333D01*
X89990476Y-65685714D01*
X90180952Y-65685714D01*
X90276190Y-65733333D01*
X105280952Y-59952380D02*
X105852380Y-59952380D01*
X105566666Y-60952380D02*
X105566666Y-59952380D01*
X106566666Y-60904761D02*
X106471428Y-60952380D01*
X106280952Y-60952380D01*
X106185714Y-60904761D01*
X106138095Y-60809523D01*
X106138095Y-60428571D01*
X106185714Y-60333333D01*
X106280952Y-60285714D01*
X106471428Y-60285714D01*
X106566666Y-60333333D01*
X106614285Y-60428571D01*
X106614285Y-60523809D01*
X106138095Y-60619047D01*
X107042857Y-60952380D02*
X107042857Y-60285714D01*
X107042857Y-60476190D02*
X107090476Y-60380952D01*
X107138095Y-60333333D01*
X107233333Y-60285714D01*
X107328571Y-60285714D01*
X107661904Y-60952380D02*
X107661904Y-60285714D01*
X107661904Y-60380952D02*
X107709523Y-60333333D01*
X107804761Y-60285714D01*
X107947619Y-60285714D01*
X108042857Y-60333333D01*
X108090476Y-60428571D01*
X108090476Y-60952380D01*
X108090476Y-60428571D02*
X108138095Y-60333333D01*
X108233333Y-60285714D01*
X108376190Y-60285714D01*
X108471428Y-60333333D01*
X108519047Y-60428571D01*
X108519047Y-60952380D01*
X110090476Y-60428571D02*
X110233333Y-60476190D01*
X110280952Y-60523809D01*
X110328571Y-60619047D01*
X110328571Y-60761904D01*
X110280952Y-60857142D01*
X110233333Y-60904761D01*
X110138095Y-60952380D01*
X109757142Y-60952380D01*
X109757142Y-59952380D01*
X110090476Y-59952380D01*
X110185714Y-60000000D01*
X110233333Y-60047619D01*
X110280952Y-60142857D01*
X110280952Y-60238095D01*
X110233333Y-60333333D01*
X110185714Y-60380952D01*
X110090476Y-60428571D01*
X109757142Y-60428571D01*
X110900000Y-60952380D02*
X110804761Y-60904761D01*
X110757142Y-60809523D01*
X110757142Y-59952380D01*
X111423809Y-60952380D02*
X111328571Y-60904761D01*
X111280952Y-60857142D01*
X111233333Y-60761904D01*
X111233333Y-60476190D01*
X111280952Y-60380952D01*
X111328571Y-60333333D01*
X111423809Y-60285714D01*
X111566666Y-60285714D01*
X111661904Y-60333333D01*
X111709523Y-60380952D01*
X111757142Y-60476190D01*
X111757142Y-60761904D01*
X111709523Y-60857142D01*
X111661904Y-60904761D01*
X111566666Y-60952380D01*
X111423809Y-60952380D01*
X112614285Y-60904761D02*
X112519047Y-60952380D01*
X112328571Y-60952380D01*
X112233333Y-60904761D01*
X112185714Y-60857142D01*
X112138095Y-60761904D01*
X112138095Y-60476190D01*
X112185714Y-60380952D01*
X112233333Y-60333333D01*
X112328571Y-60285714D01*
X112519047Y-60285714D01*
X112614285Y-60333333D01*
X113042857Y-60952380D02*
X113042857Y-59952380D01*
X113138095Y-60571428D02*
X113423809Y-60952380D01*
X113423809Y-60285714D02*
X113042857Y-60666666D01*
X108066666Y-66152380D02*
X107590476Y-66152380D01*
X107542857Y-66628571D01*
X107590476Y-66580952D01*
X107685714Y-66533333D01*
X107923809Y-66533333D01*
X108019047Y-66580952D01*
X108066666Y-66628571D01*
X108114285Y-66723809D01*
X108114285Y-66961904D01*
X108066666Y-67057142D01*
X108019047Y-67104761D01*
X107923809Y-67152380D01*
X107685714Y-67152380D01*
X107590476Y-67104761D01*
X107542857Y-67057142D01*
X108400000Y-66152380D02*
X108733333Y-67152380D01*
X109066666Y-66152380D01*
X110161904Y-67152380D02*
X110161904Y-66152380D01*
X110638095Y-67152380D02*
X110638095Y-66152380D01*
X111209523Y-67152380D01*
X111209523Y-66152380D01*
X74476190Y-37104761D02*
X74619047Y-37152380D01*
X74857142Y-37152380D01*
X74952380Y-37104761D01*
X75000000Y-37057142D01*
X75047619Y-36961904D01*
X75047619Y-36866666D01*
X75000000Y-36771428D01*
X74952380Y-36723809D01*
X74857142Y-36676190D01*
X74666666Y-36628571D01*
X74571428Y-36580952D01*
X74523809Y-36533333D01*
X74476190Y-36438095D01*
X74476190Y-36342857D01*
X74523809Y-36247619D01*
X74571428Y-36200000D01*
X74666666Y-36152380D01*
X74904761Y-36152380D01*
X75047619Y-36200000D01*
X75476190Y-37152380D02*
X75476190Y-36152380D01*
X75857142Y-36152380D01*
X75952380Y-36200000D01*
X76000000Y-36247619D01*
X76047619Y-36342857D01*
X76047619Y-36485714D01*
X76000000Y-36580952D01*
X75952380Y-36628571D01*
X75857142Y-36676190D01*
X75476190Y-36676190D01*
X76476190Y-37152380D02*
X76476190Y-36152380D01*
X58066666Y-66152380D02*
X57590476Y-66152380D01*
X57542857Y-66628571D01*
X57590476Y-66580952D01*
X57685714Y-66533333D01*
X57923809Y-66533333D01*
X58019047Y-66580952D01*
X58066666Y-66628571D01*
X58114285Y-66723809D01*
X58114285Y-66961904D01*
X58066666Y-67057142D01*
X58019047Y-67104761D01*
X57923809Y-67152380D01*
X57685714Y-67152380D01*
X57590476Y-67104761D01*
X57542857Y-67057142D01*
X58400000Y-66152380D02*
X58733333Y-67152380D01*
X59066666Y-66152380D01*
X60161904Y-67152380D02*
X60161904Y-66152380D01*
X60638095Y-67152380D02*
X60638095Y-66152380D01*
X61209523Y-67152380D01*
X61209523Y-66152380D01*
X55280952Y-59952380D02*
X55852380Y-59952380D01*
X55566666Y-60952380D02*
X55566666Y-59952380D01*
X56566666Y-60904761D02*
X56471428Y-60952380D01*
X56280952Y-60952380D01*
X56185714Y-60904761D01*
X56138095Y-60809523D01*
X56138095Y-60428571D01*
X56185714Y-60333333D01*
X56280952Y-60285714D01*
X56471428Y-60285714D01*
X56566666Y-60333333D01*
X56614285Y-60428571D01*
X56614285Y-60523809D01*
X56138095Y-60619047D01*
X57042857Y-60952380D02*
X57042857Y-60285714D01*
X57042857Y-60476190D02*
X57090476Y-60380952D01*
X57138095Y-60333333D01*
X57233333Y-60285714D01*
X57328571Y-60285714D01*
X57661904Y-60952380D02*
X57661904Y-60285714D01*
X57661904Y-60380952D02*
X57709523Y-60333333D01*
X57804761Y-60285714D01*
X57947619Y-60285714D01*
X58042857Y-60333333D01*
X58090476Y-60428571D01*
X58090476Y-60952380D01*
X58090476Y-60428571D02*
X58138095Y-60333333D01*
X58233333Y-60285714D01*
X58376190Y-60285714D01*
X58471428Y-60333333D01*
X58519047Y-60428571D01*
X58519047Y-60952380D01*
X60090476Y-60428571D02*
X60233333Y-60476190D01*
X60280952Y-60523809D01*
X60328571Y-60619047D01*
X60328571Y-60761904D01*
X60280952Y-60857142D01*
X60233333Y-60904761D01*
X60138095Y-60952380D01*
X59757142Y-60952380D01*
X59757142Y-59952380D01*
X60090476Y-59952380D01*
X60185714Y-60000000D01*
X60233333Y-60047619D01*
X60280952Y-60142857D01*
X60280952Y-60238095D01*
X60233333Y-60333333D01*
X60185714Y-60380952D01*
X60090476Y-60428571D01*
X59757142Y-60428571D01*
X60900000Y-60952380D02*
X60804761Y-60904761D01*
X60757142Y-60809523D01*
X60757142Y-59952380D01*
X61423809Y-60952380D02*
X61328571Y-60904761D01*
X61280952Y-60857142D01*
X61233333Y-60761904D01*
X61233333Y-60476190D01*
X61280952Y-60380952D01*
X61328571Y-60333333D01*
X61423809Y-60285714D01*
X61566666Y-60285714D01*
X61661904Y-60333333D01*
X61709523Y-60380952D01*
X61757142Y-60476190D01*
X61757142Y-60761904D01*
X61709523Y-60857142D01*
X61661904Y-60904761D01*
X61566666Y-60952380D01*
X61423809Y-60952380D01*
X62614285Y-60904761D02*
X62519047Y-60952380D01*
X62328571Y-60952380D01*
X62233333Y-60904761D01*
X62185714Y-60857142D01*
X62138095Y-60761904D01*
X62138095Y-60476190D01*
X62185714Y-60380952D01*
X62233333Y-60333333D01*
X62328571Y-60285714D01*
X62519047Y-60285714D01*
X62614285Y-60333333D01*
X63042857Y-60952380D02*
X63042857Y-59952380D01*
X63138095Y-60571428D02*
X63423809Y-60952380D01*
X63423809Y-60285714D02*
X63042857Y-60666666D01*
X24476190Y-37104761D02*
X24619047Y-37152380D01*
X24857142Y-37152380D01*
X24952380Y-37104761D01*
X25000000Y-37057142D01*
X25047619Y-36961904D01*
X25047619Y-36866666D01*
X25000000Y-36771428D01*
X24952380Y-36723809D01*
X24857142Y-36676190D01*
X24666666Y-36628571D01*
X24571428Y-36580952D01*
X24523809Y-36533333D01*
X24476190Y-36438095D01*
X24476190Y-36342857D01*
X24523809Y-36247619D01*
X24571428Y-36200000D01*
X24666666Y-36152380D01*
X24904761Y-36152380D01*
X25047619Y-36200000D01*
X25476190Y-37152380D02*
X25476190Y-36152380D01*
X25857142Y-36152380D01*
X25952380Y-36200000D01*
X26000000Y-36247619D01*
X26047619Y-36342857D01*
X26047619Y-36485714D01*
X26000000Y-36580952D01*
X25952380Y-36628571D01*
X25857142Y-36676190D01*
X25476190Y-36676190D01*
X26476190Y-37152380D02*
X26476190Y-36152380D01*
X37323809Y-66352380D02*
X37323809Y-65352380D01*
X37704761Y-65352380D01*
X37800000Y-65400000D01*
X37847619Y-65447619D01*
X37895238Y-65542857D01*
X37895238Y-65685714D01*
X37847619Y-65780952D01*
X37800000Y-65828571D01*
X37704761Y-65876190D01*
X37323809Y-65876190D01*
X38323809Y-66352380D02*
X38323809Y-65685714D01*
X38323809Y-65876190D02*
X38371428Y-65780952D01*
X38419047Y-65733333D01*
X38514285Y-65685714D01*
X38609523Y-65685714D01*
X39085714Y-66352380D02*
X38990476Y-66304761D01*
X38942857Y-66257142D01*
X38895238Y-66161904D01*
X38895238Y-65876190D01*
X38942857Y-65780952D01*
X38990476Y-65733333D01*
X39085714Y-65685714D01*
X39228571Y-65685714D01*
X39323809Y-65733333D01*
X39371428Y-65780952D01*
X39419047Y-65876190D01*
X39419047Y-66161904D01*
X39371428Y-66257142D01*
X39323809Y-66304761D01*
X39228571Y-66352380D01*
X39085714Y-66352380D01*
X40276190Y-65685714D02*
X40276190Y-66495238D01*
X40228571Y-66590476D01*
X40180952Y-66638095D01*
X40085714Y-66685714D01*
X39942857Y-66685714D01*
X39847619Y-66638095D01*
X40276190Y-66304761D02*
X40180952Y-66352380D01*
X39990476Y-66352380D01*
X39895238Y-66304761D01*
X39847619Y-66257142D01*
X39800000Y-66161904D01*
X39800000Y-65876190D01*
X39847619Y-65780952D01*
X39895238Y-65733333D01*
X39990476Y-65685714D01*
X40180952Y-65685714D01*
X40276190Y-65733333D01*
X22104761Y-22357142D02*
X22057142Y-22404761D01*
X21914285Y-22452380D01*
X21819047Y-22452380D01*
X21676190Y-22404761D01*
X21580952Y-22309523D01*
X21533333Y-22214285D01*
X21485714Y-22023809D01*
X21485714Y-21880952D01*
X21533333Y-21690476D01*
X21580952Y-21595238D01*
X21676190Y-21500000D01*
X21819047Y-21452380D01*
X21914285Y-21452380D01*
X22057142Y-21500000D01*
X22104761Y-21547619D01*
X23009523Y-22452380D02*
X22533333Y-22452380D01*
X22533333Y-21452380D01*
X23342857Y-22452380D02*
X23342857Y-21452380D01*
X23914285Y-22452380D02*
X23485714Y-21880952D01*
X23914285Y-21452380D02*
X23342857Y-22023809D01*
X20728571Y-24952380D02*
X20728571Y-23952380D01*
X21061904Y-24666666D01*
X21395238Y-23952380D01*
X21395238Y-24952380D01*
X21871428Y-24952380D02*
X21871428Y-23952380D01*
X22300000Y-24904761D02*
X22442857Y-24952380D01*
X22680952Y-24952380D01*
X22776190Y-24904761D01*
X22823809Y-24857142D01*
X22871428Y-24761904D01*
X22871428Y-24666666D01*
X22823809Y-24571428D01*
X22776190Y-24523809D01*
X22680952Y-24476190D01*
X22490476Y-24428571D01*
X22395238Y-24380952D01*
X22347619Y-24333333D01*
X22300000Y-24238095D01*
X22300000Y-24142857D01*
X22347619Y-24047619D01*
X22395238Y-24000000D01*
X22490476Y-23952380D01*
X22728571Y-23952380D01*
X22871428Y-24000000D01*
X23490476Y-23952380D02*
X23680952Y-23952380D01*
X23776190Y-24000000D01*
X23871428Y-24095238D01*
X23919047Y-24285714D01*
X23919047Y-24619047D01*
X23871428Y-24809523D01*
X23776190Y-24904761D01*
X23680952Y-24952380D01*
X23490476Y-24952380D01*
X23395238Y-24904761D01*
X23300000Y-24809523D01*
X23252380Y-24619047D01*
X23252380Y-24285714D01*
X23300000Y-24095238D01*
X23395238Y-24000000D01*
X23490476Y-23952380D01*
X20728571Y-26952380D02*
X20728571Y-25952380D01*
X21061904Y-26666666D01*
X21395238Y-25952380D01*
X21395238Y-26952380D01*
X22061904Y-25952380D02*
X22252380Y-25952380D01*
X22347619Y-26000000D01*
X22442857Y-26095238D01*
X22490476Y-26285714D01*
X22490476Y-26619047D01*
X22442857Y-26809523D01*
X22347619Y-26904761D01*
X22252380Y-26952380D01*
X22061904Y-26952380D01*
X21966666Y-26904761D01*
X21871428Y-26809523D01*
X21823809Y-26619047D01*
X21823809Y-26285714D01*
X21871428Y-26095238D01*
X21966666Y-26000000D01*
X22061904Y-25952380D01*
X22871428Y-26904761D02*
X23014285Y-26952380D01*
X23252380Y-26952380D01*
X23347619Y-26904761D01*
X23395238Y-26857142D01*
X23442857Y-26761904D01*
X23442857Y-26666666D01*
X23395238Y-26571428D01*
X23347619Y-26523809D01*
X23252380Y-26476190D01*
X23061904Y-26428571D01*
X22966666Y-26380952D01*
X22919047Y-26333333D01*
X22871428Y-26238095D01*
X22871428Y-26142857D01*
X22919047Y-26047619D01*
X22966666Y-26000000D01*
X23061904Y-25952380D01*
X23300000Y-25952380D01*
X23442857Y-26000000D01*
X23871428Y-26952380D02*
X23871428Y-25952380D01*
X22833333Y-30857142D02*
X22785714Y-30904761D01*
X22642857Y-30952380D01*
X22547619Y-30952380D01*
X22404761Y-30904761D01*
X22309523Y-30809523D01*
X22261904Y-30714285D01*
X22214285Y-30523809D01*
X22214285Y-30380952D01*
X22261904Y-30190476D01*
X22309523Y-30095238D01*
X22404761Y-30000000D01*
X22547619Y-29952380D01*
X22642857Y-29952380D01*
X22785714Y-30000000D01*
X22833333Y-30047619D01*
X23214285Y-30904761D02*
X23357142Y-30952380D01*
X23595238Y-30952380D01*
X23690476Y-30904761D01*
X23738095Y-30857142D01*
X23785714Y-30761904D01*
X23785714Y-30666666D01*
X23738095Y-30571428D01*
X23690476Y-30523809D01*
X23595238Y-30476190D01*
X23404761Y-30428571D01*
X23309523Y-30380952D01*
X23261904Y-30333333D01*
X23214285Y-30238095D01*
X23214285Y-30142857D01*
X23261904Y-30047619D01*
X23309523Y-30000000D01*
X23404761Y-29952380D01*
X23642857Y-29952380D01*
X23785714Y-30000000D01*
X21738095Y-31500000D02*
X21642857Y-31452380D01*
X21500000Y-31452380D01*
X21357142Y-31500000D01*
X21261904Y-31595238D01*
X21214285Y-31690476D01*
X21166666Y-31880952D01*
X21166666Y-32023809D01*
X21214285Y-32214285D01*
X21261904Y-32309523D01*
X21357142Y-32404761D01*
X21500000Y-32452380D01*
X21595238Y-32452380D01*
X21738095Y-32404761D01*
X21785714Y-32357142D01*
X21785714Y-32023809D01*
X21595238Y-32023809D01*
X22214285Y-32452380D02*
X22214285Y-31452380D01*
X22785714Y-32452380D01*
X22785714Y-31452380D01*
X23261904Y-32452380D02*
X23261904Y-31452380D01*
X23500000Y-31452380D01*
X23642857Y-31500000D01*
X23738095Y-31595238D01*
X23785714Y-31690476D01*
X23833333Y-31880952D01*
X23833333Y-32023809D01*
X23785714Y-32214285D01*
X23738095Y-32309523D01*
X23642857Y-32404761D01*
X23500000Y-32452380D01*
X23261904Y-32452380D01*
X20823809Y-33952380D02*
X21442857Y-33952380D01*
X21109523Y-34333333D01*
X21252380Y-34333333D01*
X21347619Y-34380952D01*
X21395238Y-34428571D01*
X21442857Y-34523809D01*
X21442857Y-34761904D01*
X21395238Y-34857142D01*
X21347619Y-34904761D01*
X21252380Y-34952380D01*
X20966666Y-34952380D01*
X20871428Y-34904761D01*
X20823809Y-34857142D01*
X21871428Y-34857142D02*
X21919047Y-34904761D01*
X21871428Y-34952380D01*
X21823809Y-34904761D01*
X21871428Y-34857142D01*
X21871428Y-34952380D01*
X22252380Y-33952380D02*
X22871428Y-33952380D01*
X22538095Y-34333333D01*
X22680952Y-34333333D01*
X22776190Y-34380952D01*
X22823809Y-34428571D01*
X22871428Y-34523809D01*
X22871428Y-34761904D01*
X22823809Y-34857142D01*
X22776190Y-34904761D01*
X22680952Y-34952380D01*
X22395238Y-34952380D01*
X22300000Y-34904761D01*
X22252380Y-34857142D01*
X23157142Y-33952380D02*
X23490476Y-34952380D01*
X23823809Y-33952380D01*
X29119047Y-37471428D02*
X29880952Y-37471428D01*
X29500000Y-37852380D02*
X29500000Y-37090476D01*
X61927380Y-33642857D02*
X60927380Y-33642857D01*
X61927380Y-33071428D01*
X60927380Y-33071428D01*
X60927380Y-32309523D02*
X61641666Y-32309523D01*
X61784523Y-32357142D01*
X61879761Y-32452380D01*
X61927380Y-32595238D01*
X61927380Y-32690476D01*
X61927380Y-31833333D02*
X60927380Y-31833333D01*
X61641666Y-31500000D01*
X60927380Y-31166666D01*
X61927380Y-31166666D01*
X61022619Y-30738095D02*
X60975000Y-30690476D01*
X60927380Y-30595238D01*
X60927380Y-30357142D01*
X60975000Y-30261904D01*
X61022619Y-30214285D01*
X61117857Y-30166666D01*
X61213095Y-30166666D01*
X61355952Y-30214285D01*
X61927380Y-30785714D01*
X61927380Y-30166666D01*
X61355952Y-29595238D02*
X61308333Y-29690476D01*
X61260714Y-29738095D01*
X61165476Y-29785714D01*
X61117857Y-29785714D01*
X61022619Y-29738095D01*
X60975000Y-29690476D01*
X60927380Y-29595238D01*
X60927380Y-29404761D01*
X60975000Y-29309523D01*
X61022619Y-29261904D01*
X61117857Y-29214285D01*
X61165476Y-29214285D01*
X61260714Y-29261904D01*
X61308333Y-29309523D01*
X61355952Y-29404761D01*
X61355952Y-29595238D01*
X61403571Y-29690476D01*
X61451190Y-29738095D01*
X61546428Y-29785714D01*
X61736904Y-29785714D01*
X61832142Y-29738095D01*
X61879761Y-29690476D01*
X61927380Y-29595238D01*
X61927380Y-29404761D01*
X61879761Y-29309523D01*
X61832142Y-29261904D01*
X61736904Y-29214285D01*
X61546428Y-29214285D01*
X61451190Y-29261904D01*
X61403571Y-29309523D01*
X61355952Y-29404761D01*
X61260714Y-28357142D02*
X61927380Y-28357142D01*
X60879761Y-28595238D02*
X61594047Y-28833333D01*
X61594047Y-28214285D01*
X60927380Y-27357142D02*
X60927380Y-27833333D01*
X61403571Y-27880952D01*
X61355952Y-27833333D01*
X61308333Y-27738095D01*
X61308333Y-27500000D01*
X61355952Y-27404761D01*
X61403571Y-27357142D01*
X61498809Y-27309523D01*
X61736904Y-27309523D01*
X61832142Y-27357142D01*
X61879761Y-27404761D01*
X61927380Y-27500000D01*
X61927380Y-27738095D01*
X61879761Y-27833333D01*
X61832142Y-27880952D01*
X63577380Y-33214285D02*
X62577380Y-33214285D01*
X62577380Y-32976190D01*
X62625000Y-32833333D01*
X62720238Y-32738095D01*
X62815476Y-32690476D01*
X63005952Y-32642857D01*
X63148809Y-32642857D01*
X63339285Y-32690476D01*
X63434523Y-32738095D01*
X63529761Y-32833333D01*
X63577380Y-32976190D01*
X63577380Y-33214285D01*
X63577380Y-31738095D02*
X63577380Y-32214285D01*
X62577380Y-32214285D01*
X63577380Y-30880952D02*
X63577380Y-31452380D01*
X63577380Y-31166666D02*
X62577380Y-31166666D01*
X62720238Y-31261904D01*
X62815476Y-31357142D01*
X62863095Y-31452380D01*
X63196428Y-30452380D02*
X63196428Y-29690476D01*
X62577380Y-29309523D02*
X62577380Y-28690476D01*
X62958333Y-29023809D01*
X62958333Y-28880952D01*
X63005952Y-28785714D01*
X63053571Y-28738095D01*
X63148809Y-28690476D01*
X63386904Y-28690476D01*
X63482142Y-28738095D01*
X63529761Y-28785714D01*
X63577380Y-28880952D01*
X63577380Y-29166666D01*
X63529761Y-29261904D01*
X63482142Y-29309523D01*
X62577380Y-28357142D02*
X62577380Y-27738095D01*
X62958333Y-28071428D01*
X62958333Y-27928571D01*
X63005952Y-27833333D01*
X63053571Y-27785714D01*
X63148809Y-27738095D01*
X63386904Y-27738095D01*
X63482142Y-27785714D01*
X63529761Y-27833333D01*
X63577380Y-27928571D01*
X63577380Y-28214285D01*
X63529761Y-28309523D01*
X63482142Y-28357142D01*
X38928571Y-22928571D02*
X39261904Y-22928571D01*
X39404761Y-23452380D02*
X38928571Y-23452380D01*
X38928571Y-22452380D01*
X39404761Y-22452380D01*
X39785714Y-23404761D02*
X39928571Y-23452380D01*
X40166666Y-23452380D01*
X40261904Y-23404761D01*
X40309523Y-23357142D01*
X40357142Y-23261904D01*
X40357142Y-23166666D01*
X40309523Y-23071428D01*
X40261904Y-23023809D01*
X40166666Y-22976190D01*
X39976190Y-22928571D01*
X39880952Y-22880952D01*
X39833333Y-22833333D01*
X39785714Y-22738095D01*
X39785714Y-22642857D01*
X39833333Y-22547619D01*
X39880952Y-22500000D01*
X39976190Y-22452380D01*
X40214285Y-22452380D01*
X40357142Y-22500000D01*
X40785714Y-23452380D02*
X40785714Y-22452380D01*
X41166666Y-22452380D01*
X41261904Y-22500000D01*
X41309523Y-22547619D01*
X41357142Y-22642857D01*
X41357142Y-22785714D01*
X41309523Y-22880952D01*
X41261904Y-22928571D01*
X41166666Y-22976190D01*
X40785714Y-22976190D01*
X41785714Y-23071428D02*
X42547619Y-23071428D01*
X42928571Y-22452380D02*
X43166666Y-23452380D01*
X43357142Y-22738095D01*
X43547619Y-23452380D01*
X43785714Y-22452380D01*
X44738095Y-23452380D02*
X44404761Y-22976190D01*
X44166666Y-23452380D02*
X44166666Y-22452380D01*
X44547619Y-22452380D01*
X44642857Y-22500000D01*
X44690476Y-22547619D01*
X44738095Y-22642857D01*
X44738095Y-22785714D01*
X44690476Y-22880952D01*
X44642857Y-22928571D01*
X44547619Y-22976190D01*
X44166666Y-22976190D01*
X45357142Y-22452380D02*
X45547619Y-22452380D01*
X45642857Y-22500000D01*
X45738095Y-22595238D01*
X45785714Y-22785714D01*
X45785714Y-23119047D01*
X45738095Y-23309523D01*
X45642857Y-23404761D01*
X45547619Y-23452380D01*
X45357142Y-23452380D01*
X45261904Y-23404761D01*
X45166666Y-23309523D01*
X45119047Y-23119047D01*
X45119047Y-22785714D01*
X45166666Y-22595238D01*
X45261904Y-22500000D01*
X45357142Y-22452380D01*
X46404761Y-22452380D02*
X46595238Y-22452380D01*
X46690476Y-22500000D01*
X46785714Y-22595238D01*
X46833333Y-22785714D01*
X46833333Y-23119047D01*
X46785714Y-23309523D01*
X46690476Y-23404761D01*
X46595238Y-23452380D01*
X46404761Y-23452380D01*
X46309523Y-23404761D01*
X46214285Y-23309523D01*
X46166666Y-23119047D01*
X46166666Y-22785714D01*
X46214285Y-22595238D01*
X46309523Y-22500000D01*
X46404761Y-22452380D01*
X47261904Y-23452380D02*
X47261904Y-22452380D01*
X47595238Y-23166666D01*
X47928571Y-22452380D01*
X47928571Y-23452380D01*
X48404761Y-23071428D02*
X49166666Y-23071428D01*
X49833333Y-22452380D02*
X49928571Y-22452380D01*
X50023809Y-22500000D01*
X50071428Y-22547619D01*
X50119047Y-22642857D01*
X50166666Y-22833333D01*
X50166666Y-23071428D01*
X50119047Y-23261904D01*
X50071428Y-23357142D01*
X50023809Y-23404761D01*
X49928571Y-23452380D01*
X49833333Y-23452380D01*
X49738095Y-23404761D01*
X49690476Y-23357142D01*
X49642857Y-23261904D01*
X49595238Y-23071428D01*
X49595238Y-22833333D01*
X49642857Y-22642857D01*
X49690476Y-22547619D01*
X49738095Y-22500000D01*
X49833333Y-22452380D01*
X50547619Y-22547619D02*
X50595238Y-22500000D01*
X50690476Y-22452380D01*
X50928571Y-22452380D01*
X51023809Y-22500000D01*
X51071428Y-22547619D01*
X51119047Y-22642857D01*
X51119047Y-22738095D01*
X51071428Y-22880952D01*
X50500000Y-23452380D01*
X51119047Y-23452380D01*
X20500000Y-62261904D02*
X20452380Y-62357142D01*
X20452380Y-62500000D01*
X20500000Y-62642857D01*
X20595238Y-62738095D01*
X20690476Y-62785714D01*
X20880952Y-62833333D01*
X21023809Y-62833333D01*
X21214285Y-62785714D01*
X21309523Y-62738095D01*
X21404761Y-62642857D01*
X21452380Y-62500000D01*
X21452380Y-62404761D01*
X21404761Y-62261904D01*
X21357142Y-62214285D01*
X21023809Y-62214285D01*
X21023809Y-62404761D01*
X21452380Y-61785714D02*
X20452380Y-61785714D01*
X21452380Y-61214285D01*
X20452380Y-61214285D01*
X21452380Y-60738095D02*
X20452380Y-60738095D01*
X20452380Y-60500000D01*
X20500000Y-60357142D01*
X20595238Y-60261904D01*
X20690476Y-60214285D01*
X20880952Y-60166666D01*
X21023809Y-60166666D01*
X21214285Y-60214285D01*
X21309523Y-60261904D01*
X21404761Y-60357142D01*
X21452380Y-60500000D01*
X21452380Y-60738095D01*
X68452380Y-28690476D02*
X68452380Y-29166666D01*
X68928571Y-29214285D01*
X68880952Y-29166666D01*
X68833333Y-29071428D01*
X68833333Y-28833333D01*
X68880952Y-28738095D01*
X68928571Y-28690476D01*
X69023809Y-28642857D01*
X69261904Y-28642857D01*
X69357142Y-28690476D01*
X69404761Y-28738095D01*
X69452380Y-28833333D01*
X69452380Y-29071428D01*
X69404761Y-29166666D01*
X69357142Y-29214285D01*
X68452380Y-28357142D02*
X69452380Y-28023809D01*
X68452380Y-27690476D01*
X40838095Y-54202380D02*
X40361904Y-54202380D01*
X40314285Y-54678571D01*
X40361904Y-54630952D01*
X40457142Y-54583333D01*
X40695238Y-54583333D01*
X40790476Y-54630952D01*
X40838095Y-54678571D01*
X40885714Y-54773809D01*
X40885714Y-55011904D01*
X40838095Y-55107142D01*
X40790476Y-55154761D01*
X40695238Y-55202380D01*
X40457142Y-55202380D01*
X40361904Y-55154761D01*
X40314285Y-55107142D01*
X40861904Y-57550000D02*
X40766666Y-57502380D01*
X40623809Y-57502380D01*
X40480952Y-57550000D01*
X40385714Y-57645238D01*
X40338095Y-57740476D01*
X40290476Y-57930952D01*
X40290476Y-58073809D01*
X40338095Y-58264285D01*
X40385714Y-58359523D01*
X40480952Y-58454761D01*
X40623809Y-58502380D01*
X40719047Y-58502380D01*
X40861904Y-58454761D01*
X40909523Y-58407142D01*
X40909523Y-58073809D01*
X40719047Y-58073809D01*
X40909523Y-61802380D02*
X40576190Y-61326190D01*
X40338095Y-61802380D02*
X40338095Y-60802380D01*
X40719047Y-60802380D01*
X40814285Y-60850000D01*
X40861904Y-60897619D01*
X40909523Y-60992857D01*
X40909523Y-61135714D01*
X40861904Y-61230952D01*
X40814285Y-61278571D01*
X40719047Y-61326190D01*
X40338095Y-61326190D01*
X40314285Y-64102380D02*
X40885714Y-64102380D01*
X40600000Y-65102380D02*
X40600000Y-64102380D01*
X60238095Y-20302380D02*
X60238095Y-21111904D01*
X60285714Y-21207142D01*
X60333333Y-21254761D01*
X60428571Y-21302380D01*
X60619047Y-21302380D01*
X60714285Y-21254761D01*
X60761904Y-21207142D01*
X60809523Y-21111904D01*
X60809523Y-20302380D01*
X61238095Y-21254761D02*
X61380952Y-21302380D01*
X61619047Y-21302380D01*
X61714285Y-21254761D01*
X61761904Y-21207142D01*
X61809523Y-21111904D01*
X61809523Y-21016666D01*
X61761904Y-20921428D01*
X61714285Y-20873809D01*
X61619047Y-20826190D01*
X61428571Y-20778571D01*
X61333333Y-20730952D01*
X61285714Y-20683333D01*
X61238095Y-20588095D01*
X61238095Y-20492857D01*
X61285714Y-20397619D01*
X61333333Y-20350000D01*
X61428571Y-20302380D01*
X61666666Y-20302380D01*
X61809523Y-20350000D01*
X62571428Y-20778571D02*
X62714285Y-20826190D01*
X62761904Y-20873809D01*
X62809523Y-20969047D01*
X62809523Y-21111904D01*
X62761904Y-21207142D01*
X62714285Y-21254761D01*
X62619047Y-21302380D01*
X62238095Y-21302380D01*
X62238095Y-20302380D01*
X62571428Y-20302380D01*
X62666666Y-20350000D01*
X62714285Y-20397619D01*
X62761904Y-20492857D01*
X62761904Y-20588095D01*
X62714285Y-20683333D01*
X62666666Y-20730952D01*
X62571428Y-20778571D01*
X62238095Y-20778571D01*
X59738095Y-22952380D02*
X59738095Y-21952380D01*
X60071428Y-22666666D01*
X60404761Y-21952380D01*
X60404761Y-22952380D01*
X60880952Y-22952380D02*
X60880952Y-22285714D01*
X60880952Y-21952380D02*
X60833333Y-22000000D01*
X60880952Y-22047619D01*
X60928571Y-22000000D01*
X60880952Y-21952380D01*
X60880952Y-22047619D01*
X61785714Y-22904761D02*
X61690476Y-22952380D01*
X61500000Y-22952380D01*
X61404761Y-22904761D01*
X61357142Y-22857142D01*
X61309523Y-22761904D01*
X61309523Y-22476190D01*
X61357142Y-22380952D01*
X61404761Y-22333333D01*
X61500000Y-22285714D01*
X61690476Y-22285714D01*
X61785714Y-22333333D01*
X62214285Y-22952380D02*
X62214285Y-22285714D01*
X62214285Y-22476190D02*
X62261904Y-22380952D01*
X62309523Y-22333333D01*
X62404761Y-22285714D01*
X62500000Y-22285714D01*
X62976190Y-22952380D02*
X62880952Y-22904761D01*
X62833333Y-22857142D01*
X62785714Y-22761904D01*
X62785714Y-22476190D01*
X62833333Y-22380952D01*
X62880952Y-22333333D01*
X62976190Y-22285714D01*
X63119047Y-22285714D01*
X63214285Y-22333333D01*
X63261904Y-22380952D01*
X63309523Y-22476190D01*
X63309523Y-22761904D01*
X63261904Y-22857142D01*
X63214285Y-22904761D01*
X63119047Y-22952380D01*
X62976190Y-22952380D01*
X57214285Y-24983333D02*
X57166666Y-24935714D01*
X57071428Y-24792857D01*
X57023809Y-24697619D01*
X56976190Y-24554761D01*
X56928571Y-24316666D01*
X56928571Y-24126190D01*
X56976190Y-23888095D01*
X57023809Y-23745238D01*
X57071428Y-23650000D01*
X57166666Y-23507142D01*
X57214285Y-23459523D01*
X57595238Y-24602380D02*
X57595238Y-23602380D01*
X57976190Y-23602380D01*
X58071428Y-23650000D01*
X58119047Y-23697619D01*
X58166666Y-23792857D01*
X58166666Y-23935714D01*
X58119047Y-24030952D01*
X58071428Y-24078571D01*
X57976190Y-24126190D01*
X57595238Y-24126190D01*
X58738095Y-24602380D02*
X58642857Y-24554761D01*
X58595238Y-24507142D01*
X58547619Y-24411904D01*
X58547619Y-24126190D01*
X58595238Y-24030952D01*
X58642857Y-23983333D01*
X58738095Y-23935714D01*
X58880952Y-23935714D01*
X58976190Y-23983333D01*
X59023809Y-24030952D01*
X59071428Y-24126190D01*
X59071428Y-24411904D01*
X59023809Y-24507142D01*
X58976190Y-24554761D01*
X58880952Y-24602380D01*
X58738095Y-24602380D01*
X59404761Y-23935714D02*
X59595238Y-24602380D01*
X59785714Y-24126190D01*
X59976190Y-24602380D01*
X60166666Y-23935714D01*
X60928571Y-24554761D02*
X60833333Y-24602380D01*
X60642857Y-24602380D01*
X60547619Y-24554761D01*
X60500000Y-24459523D01*
X60500000Y-24078571D01*
X60547619Y-23983333D01*
X60642857Y-23935714D01*
X60833333Y-23935714D01*
X60928571Y-23983333D01*
X60976190Y-24078571D01*
X60976190Y-24173809D01*
X60500000Y-24269047D01*
X61404761Y-24602380D02*
X61404761Y-23935714D01*
X61404761Y-24126190D02*
X61452380Y-24030952D01*
X61500000Y-23983333D01*
X61595238Y-23935714D01*
X61690476Y-23935714D01*
X62928571Y-24602380D02*
X62833333Y-24554761D01*
X62785714Y-24507142D01*
X62738095Y-24411904D01*
X62738095Y-24126190D01*
X62785714Y-24030952D01*
X62833333Y-23983333D01*
X62928571Y-23935714D01*
X63071428Y-23935714D01*
X63166666Y-23983333D01*
X63214285Y-24030952D01*
X63261904Y-24126190D01*
X63261904Y-24411904D01*
X63214285Y-24507142D01*
X63166666Y-24554761D01*
X63071428Y-24602380D01*
X62928571Y-24602380D01*
X63690476Y-23935714D02*
X63690476Y-24602380D01*
X63690476Y-24030952D02*
X63738095Y-23983333D01*
X63833333Y-23935714D01*
X63976190Y-23935714D01*
X64071428Y-23983333D01*
X64119047Y-24078571D01*
X64119047Y-24602380D01*
X64738095Y-24602380D02*
X64642857Y-24554761D01*
X64595238Y-24459523D01*
X64595238Y-23602380D01*
X65023809Y-23935714D02*
X65261904Y-24602380D01*
X65500000Y-23935714D02*
X65261904Y-24602380D01*
X65166666Y-24840476D01*
X65119047Y-24888095D01*
X65023809Y-24935714D01*
X65785714Y-24983333D02*
X65833333Y-24935714D01*
X65928571Y-24792857D01*
X65976190Y-24697619D01*
X66023809Y-24554761D01*
X66071428Y-24316666D01*
X66071428Y-24126190D01*
X66023809Y-23888095D01*
X65976190Y-23745238D01*
X65928571Y-23650000D01*
X65833333Y-23507142D01*
X65785714Y-23459523D01*
X28757142Y-33919047D02*
X28804761Y-33966666D01*
X28852380Y-34109523D01*
X28852380Y-34204761D01*
X28804761Y-34347619D01*
X28709523Y-34442857D01*
X28614285Y-34490476D01*
X28423809Y-34538095D01*
X28280952Y-34538095D01*
X28090476Y-34490476D01*
X27995238Y-34442857D01*
X27900000Y-34347619D01*
X27852380Y-34204761D01*
X27852380Y-34109523D01*
X27900000Y-33966666D01*
X27947619Y-33919047D01*
X28852380Y-33061904D02*
X27852380Y-33061904D01*
X28804761Y-33061904D02*
X28852380Y-33157142D01*
X28852380Y-33347619D01*
X28804761Y-33442857D01*
X28757142Y-33490476D01*
X28661904Y-33538095D01*
X28376190Y-33538095D01*
X28280952Y-33490476D01*
X28233333Y-33442857D01*
X28185714Y-33347619D01*
X28185714Y-33157142D01*
X28233333Y-33061904D01*
X28804761Y-32633333D02*
X28852380Y-32490476D01*
X28852380Y-32252380D01*
X28804761Y-32157142D01*
X28757142Y-32109523D01*
X28661904Y-32061904D01*
X28566666Y-32061904D01*
X28471428Y-32109523D01*
X28423809Y-32157142D01*
X28376190Y-32252380D01*
X28328571Y-32442857D01*
X28280952Y-32538095D01*
X28233333Y-32585714D01*
X28138095Y-32633333D01*
X28042857Y-32633333D01*
X27947619Y-32585714D01*
X27900000Y-32538095D01*
X27852380Y-32442857D01*
X27852380Y-32204761D01*
X27900000Y-32061904D01*
X28852380Y-39942857D02*
X28852380Y-40419047D01*
X27852380Y-40419047D01*
X28328571Y-39609523D02*
X28328571Y-39276190D01*
X28852380Y-39133333D02*
X28852380Y-39609523D01*
X27852380Y-39609523D01*
X27852380Y-39133333D01*
X28852380Y-38704761D02*
X27852380Y-38704761D01*
X27852380Y-38466666D01*
X27900000Y-38323809D01*
X27995238Y-38228571D01*
X28090476Y-38180952D01*
X28280952Y-38133333D01*
X28423809Y-38133333D01*
X28614285Y-38180952D01*
X28709523Y-38228571D01*
X28804761Y-38323809D01*
X28852380Y-38466666D01*
X28852380Y-38704761D01*
X29685714Y-27952380D02*
X29780952Y-27952380D01*
X29876190Y-28000000D01*
X29923809Y-28047619D01*
X29971428Y-28142857D01*
X30019047Y-28333333D01*
X30019047Y-28571428D01*
X29971428Y-28761904D01*
X29923809Y-28857142D01*
X29876190Y-28904761D01*
X29780952Y-28952380D01*
X29685714Y-28952380D01*
X29590476Y-28904761D01*
X29542857Y-28857142D01*
X29495238Y-28761904D01*
X29447619Y-28571428D01*
X29447619Y-28333333D01*
X29495238Y-28142857D01*
X29542857Y-28047619D01*
X29590476Y-28000000D01*
X29685714Y-27952380D01*
X30447619Y-28857142D02*
X30495238Y-28904761D01*
X30447619Y-28952380D01*
X30400000Y-28904761D01*
X30447619Y-28857142D01*
X30447619Y-28952380D01*
X31447619Y-28952380D02*
X30876190Y-28952380D01*
X31161904Y-28952380D02*
X31161904Y-27952380D01*
X31066666Y-28095238D01*
X30971428Y-28190476D01*
X30876190Y-28238095D01*
X32304761Y-28285714D02*
X32304761Y-28952380D01*
X31876190Y-28285714D02*
X31876190Y-28809523D01*
X31923809Y-28904761D01*
X32019047Y-28952380D01*
X32161904Y-28952380D01*
X32257142Y-28904761D01*
X32304761Y-28857142D01*
X66752380Y-34638095D02*
X66752380Y-34542857D01*
X66800000Y-34447619D01*
X66847619Y-34400000D01*
X66942857Y-34352380D01*
X67133333Y-34304761D01*
X67371428Y-34304761D01*
X67561904Y-34352380D01*
X67657142Y-34400000D01*
X67704761Y-34447619D01*
X67752380Y-34542857D01*
X67752380Y-34638095D01*
X67704761Y-34733333D01*
X67657142Y-34780952D01*
X67561904Y-34828571D01*
X67371428Y-34876190D01*
X67133333Y-34876190D01*
X66942857Y-34828571D01*
X66847619Y-34780952D01*
X66800000Y-34733333D01*
X66752380Y-34638095D01*
X67657142Y-33876190D02*
X67704761Y-33828571D01*
X67752380Y-33876190D01*
X67704761Y-33923809D01*
X67657142Y-33876190D01*
X67752380Y-33876190D01*
X66752380Y-33495238D02*
X66752380Y-32876190D01*
X67133333Y-33209523D01*
X67133333Y-33066666D01*
X67180952Y-32971428D01*
X67228571Y-32923809D01*
X67323809Y-32876190D01*
X67561904Y-32876190D01*
X67657142Y-32923809D01*
X67704761Y-32971428D01*
X67752380Y-33066666D01*
X67752380Y-33352380D01*
X67704761Y-33447619D01*
X67657142Y-33495238D01*
X66752380Y-32542857D02*
X66752380Y-31923809D01*
X67133333Y-32257142D01*
X67133333Y-32114285D01*
X67180952Y-32019047D01*
X67228571Y-31971428D01*
X67323809Y-31923809D01*
X67561904Y-31923809D01*
X67657142Y-31971428D01*
X67704761Y-32019047D01*
X67752380Y-32114285D01*
X67752380Y-32400000D01*
X67704761Y-32495238D01*
X67657142Y-32542857D01*
X56647619Y-34952380D02*
X56600000Y-34904761D01*
X56552380Y-34809523D01*
X56552380Y-34571428D01*
X56600000Y-34476190D01*
X56647619Y-34428571D01*
X56742857Y-34380952D01*
X56838095Y-34380952D01*
X56980952Y-34428571D01*
X57552380Y-35000000D01*
X57552380Y-34380952D01*
X57457142Y-33952380D02*
X57504761Y-33904761D01*
X57552380Y-33952380D01*
X57504761Y-34000000D01*
X57457142Y-33952380D01*
X57552380Y-33952380D01*
X56647619Y-33523809D02*
X56600000Y-33476190D01*
X56552380Y-33380952D01*
X56552380Y-33142857D01*
X56600000Y-33047619D01*
X56647619Y-33000000D01*
X56742857Y-32952380D01*
X56838095Y-32952380D01*
X56980952Y-33000000D01*
X57552380Y-33571428D01*
X57552380Y-32952380D01*
X56885714Y-32095238D02*
X57552380Y-32095238D01*
X56885714Y-32523809D02*
X57409523Y-32523809D01*
X57504761Y-32476190D01*
X57552380Y-32380952D01*
X57552380Y-32238095D01*
X57504761Y-32142857D01*
X57457142Y-32095238D01*
X33800000Y-56861904D02*
X33752380Y-56957142D01*
X33752380Y-57100000D01*
X33800000Y-57242857D01*
X33895238Y-57338095D01*
X33990476Y-57385714D01*
X34180952Y-57433333D01*
X34323809Y-57433333D01*
X34514285Y-57385714D01*
X34609523Y-57338095D01*
X34704761Y-57242857D01*
X34752380Y-57100000D01*
X34752380Y-57004761D01*
X34704761Y-56861904D01*
X34657142Y-56814285D01*
X34323809Y-56814285D01*
X34323809Y-57004761D01*
X34752380Y-56385714D02*
X33752380Y-56385714D01*
X34752380Y-55814285D01*
X33752380Y-55814285D01*
X34752380Y-55338095D02*
X33752380Y-55338095D01*
X33752380Y-55100000D01*
X33800000Y-54957142D01*
X33895238Y-54861904D01*
X33990476Y-54814285D01*
X34180952Y-54766666D01*
X34323809Y-54766666D01*
X34514285Y-54814285D01*
X34609523Y-54861904D01*
X34704761Y-54957142D01*
X34752380Y-55100000D01*
X34752380Y-55338095D01*
X32252380Y-56385714D02*
X31252380Y-56385714D01*
X32252380Y-55814285D01*
X31252380Y-55814285D01*
X32157142Y-54766666D02*
X32204761Y-54814285D01*
X32252380Y-54957142D01*
X32252380Y-55052380D01*
X32204761Y-55195238D01*
X32109523Y-55290476D01*
X32014285Y-55338095D01*
X31823809Y-55385714D01*
X31680952Y-55385714D01*
X31490476Y-55338095D01*
X31395238Y-55290476D01*
X31300000Y-55195238D01*
X31252380Y-55052380D01*
X31252380Y-54957142D01*
X31300000Y-54814285D01*
X31347619Y-54766666D01*
X26252380Y-57676190D02*
X26252380Y-57057142D01*
X26633333Y-57390476D01*
X26633333Y-57247619D01*
X26680952Y-57152380D01*
X26728571Y-57104761D01*
X26823809Y-57057142D01*
X27061904Y-57057142D01*
X27157142Y-57104761D01*
X27204761Y-57152380D01*
X27252380Y-57247619D01*
X27252380Y-57533333D01*
X27204761Y-57628571D01*
X27157142Y-57676190D01*
X27157142Y-56628571D02*
X27204761Y-56580952D01*
X27252380Y-56628571D01*
X27204761Y-56676190D01*
X27157142Y-56628571D01*
X27252380Y-56628571D01*
X26252380Y-56247619D02*
X26252380Y-55628571D01*
X26633333Y-55961904D01*
X26633333Y-55819047D01*
X26680952Y-55723809D01*
X26728571Y-55676190D01*
X26823809Y-55628571D01*
X27061904Y-55628571D01*
X27157142Y-55676190D01*
X27204761Y-55723809D01*
X27252380Y-55819047D01*
X27252380Y-56104761D01*
X27204761Y-56200000D01*
X27157142Y-56247619D01*
X26252380Y-55342857D02*
X27252380Y-55009523D01*
X26252380Y-54676190D01*
X62900000Y-56861904D02*
X62852380Y-56957142D01*
X62852380Y-57100000D01*
X62900000Y-57242857D01*
X62995238Y-57338095D01*
X63090476Y-57385714D01*
X63280952Y-57433333D01*
X63423809Y-57433333D01*
X63614285Y-57385714D01*
X63709523Y-57338095D01*
X63804761Y-57242857D01*
X63852380Y-57100000D01*
X63852380Y-57004761D01*
X63804761Y-56861904D01*
X63757142Y-56814285D01*
X63423809Y-56814285D01*
X63423809Y-57004761D01*
X63852380Y-56385714D02*
X62852380Y-56385714D01*
X63852380Y-55814285D01*
X62852380Y-55814285D01*
X63852380Y-55338095D02*
X62852380Y-55338095D01*
X62852380Y-55100000D01*
X62900000Y-54957142D01*
X62995238Y-54861904D01*
X63090476Y-54814285D01*
X63280952Y-54766666D01*
X63423809Y-54766666D01*
X63614285Y-54814285D01*
X63709523Y-54861904D01*
X63804761Y-54957142D01*
X63852380Y-55100000D01*
X63852380Y-55338095D01*
X61252380Y-56385714D02*
X60252380Y-56385714D01*
X61252380Y-55814285D01*
X60252380Y-55814285D01*
X61157142Y-54766666D02*
X61204761Y-54814285D01*
X61252380Y-54957142D01*
X61252380Y-55052380D01*
X61204761Y-55195238D01*
X61109523Y-55290476D01*
X61014285Y-55338095D01*
X60823809Y-55385714D01*
X60680952Y-55385714D01*
X60490476Y-55338095D01*
X60395238Y-55290476D01*
X60300000Y-55195238D01*
X60252380Y-55052380D01*
X60252380Y-54957142D01*
X60300000Y-54814285D01*
X60347619Y-54766666D01*
X58752380Y-56800000D02*
X57752380Y-56800000D01*
X57752380Y-56133333D02*
X57752380Y-55942857D01*
X57800000Y-55847619D01*
X57895238Y-55752380D01*
X58085714Y-55704761D01*
X58419047Y-55704761D01*
X58609523Y-55752380D01*
X58704761Y-55847619D01*
X58752380Y-55942857D01*
X58752380Y-56133333D01*
X58704761Y-56228571D01*
X58609523Y-56323809D01*
X58419047Y-56371428D01*
X58085714Y-56371428D01*
X57895238Y-56323809D01*
X57800000Y-56228571D01*
X57752380Y-56133333D01*
X57752380Y-54800000D02*
X57752380Y-55276190D01*
X58228571Y-55323809D01*
X58180952Y-55276190D01*
X58133333Y-55180952D01*
X58133333Y-54942857D01*
X58180952Y-54847619D01*
X58228571Y-54800000D01*
X58323809Y-54752380D01*
X58561904Y-54752380D01*
X58657142Y-54800000D01*
X58704761Y-54847619D01*
X58752380Y-54942857D01*
X58752380Y-55180952D01*
X58704761Y-55276190D01*
X58657142Y-55323809D01*
X55152380Y-57676190D02*
X55152380Y-57057142D01*
X55533333Y-57390476D01*
X55533333Y-57247619D01*
X55580952Y-57152380D01*
X55628571Y-57104761D01*
X55723809Y-57057142D01*
X55961904Y-57057142D01*
X56057142Y-57104761D01*
X56104761Y-57152380D01*
X56152380Y-57247619D01*
X56152380Y-57533333D01*
X56104761Y-57628571D01*
X56057142Y-57676190D01*
X56057142Y-56628571D02*
X56104761Y-56580952D01*
X56152380Y-56628571D01*
X56104761Y-56676190D01*
X56057142Y-56628571D01*
X56152380Y-56628571D01*
X55152380Y-56247619D02*
X55152380Y-55628571D01*
X55533333Y-55961904D01*
X55533333Y-55819047D01*
X55580952Y-55723809D01*
X55628571Y-55676190D01*
X55723809Y-55628571D01*
X55961904Y-55628571D01*
X56057142Y-55676190D01*
X56104761Y-55723809D01*
X56152380Y-55819047D01*
X56152380Y-56104761D01*
X56104761Y-56200000D01*
X56057142Y-56247619D01*
X55152380Y-55342857D02*
X56152380Y-55009523D01*
X55152380Y-54676190D01*
D10*
X65500000Y-54500000D02*
X53500000Y-54500000D01*
X36500000Y-54500000D02*
X24500000Y-54500000D01*
D11*
X29752380Y-56800000D02*
X28752380Y-56800000D01*
X28752380Y-56133333D02*
X28752380Y-55942857D01*
X28800000Y-55847619D01*
X28895238Y-55752380D01*
X29085714Y-55704761D01*
X29419047Y-55704761D01*
X29609523Y-55752380D01*
X29704761Y-55847619D01*
X29752380Y-55942857D01*
X29752380Y-56133333D01*
X29704761Y-56228571D01*
X29609523Y-56323809D01*
X29419047Y-56371428D01*
X29085714Y-56371428D01*
X28895238Y-56323809D01*
X28800000Y-56228571D01*
X28752380Y-56133333D01*
X29085714Y-54847619D02*
X29752380Y-54847619D01*
X28704761Y-55085714D02*
X29419047Y-55323809D01*
X29419047Y-54704761D01*
D12*
X51078571Y-68500000D02*
X51078571Y-69214285D01*
X51792857Y-69285714D01*
X51721428Y-69214285D01*
X51650000Y-69071428D01*
X51650000Y-68714285D01*
X51721428Y-68571428D01*
X51792857Y-68500000D01*
X51935714Y-68428571D01*
X52292857Y-68428571D01*
X52435714Y-68500000D01*
X52507142Y-68571428D01*
X52578571Y-68714285D01*
X52578571Y-69071428D01*
X52507142Y-69214285D01*
X52435714Y-69285714D01*
X51078571Y-68000000D02*
X52578571Y-67500000D01*
X51078571Y-67000000D01*
X52578571Y-65357142D02*
X51078571Y-65357142D01*
X52578571Y-64642857D02*
X51078571Y-64642857D01*
X52578571Y-63785714D01*
X51078571Y-63785714D01*
D10*
X65500000Y-51000000D02*
X65500000Y-54500000D01*
X53500000Y-51000000D02*
X65500000Y-51000000D01*
X53500000Y-54500000D02*
X53500000Y-51000000D01*
X36500000Y-51000000D02*
X36500000Y-54500000D01*
X24500000Y-51000000D02*
X36500000Y-51000000D01*
X24500000Y-54500000D02*
X24500000Y-51000000D01*
D12*
X55976190Y-68392857D02*
X57500000Y-68392857D01*
X61500000Y-68392857D02*
X63023809Y-68392857D01*
X62261904Y-69154761D02*
X62261904Y-67630952D01*
D11*
X55785714Y-49452380D02*
X55785714Y-50261904D01*
X55833333Y-50357142D01*
X55880952Y-50404761D01*
X55976190Y-50452380D01*
X56166666Y-50452380D01*
X56261904Y-50404761D01*
X56309523Y-50357142D01*
X56357142Y-50261904D01*
X56357142Y-49452380D01*
X56785714Y-50404761D02*
X56928571Y-50452380D01*
X57166666Y-50452380D01*
X57261904Y-50404761D01*
X57309523Y-50357142D01*
X57357142Y-50261904D01*
X57357142Y-50166666D01*
X57309523Y-50071428D01*
X57261904Y-50023809D01*
X57166666Y-49976190D01*
X56976190Y-49928571D01*
X56880952Y-49880952D01*
X56833333Y-49833333D01*
X56785714Y-49738095D01*
X56785714Y-49642857D01*
X56833333Y-49547619D01*
X56880952Y-49500000D01*
X56976190Y-49452380D01*
X57214285Y-49452380D01*
X57357142Y-49500000D01*
X57785714Y-49928571D02*
X58119047Y-49928571D01*
X58261904Y-50452380D02*
X57785714Y-50452380D01*
X57785714Y-49452380D01*
X58261904Y-49452380D01*
X59261904Y-50452380D02*
X58928571Y-49976190D01*
X58690476Y-50452380D02*
X58690476Y-49452380D01*
X59071428Y-49452380D01*
X59166666Y-49500000D01*
X59214285Y-49547619D01*
X59261904Y-49642857D01*
X59261904Y-49785714D01*
X59214285Y-49880952D01*
X59166666Y-49928571D01*
X59071428Y-49976190D01*
X58690476Y-49976190D01*
X43642857Y-49928571D02*
X43785714Y-49976190D01*
X43833333Y-50023809D01*
X43880952Y-50119047D01*
X43880952Y-50261904D01*
X43833333Y-50357142D01*
X43785714Y-50404761D01*
X43690476Y-50452380D01*
X43309523Y-50452380D01*
X43309523Y-49452380D01*
X43642857Y-49452380D01*
X43738095Y-49500000D01*
X43785714Y-49547619D01*
X43833333Y-49642857D01*
X43833333Y-49738095D01*
X43785714Y-49833333D01*
X43738095Y-49880952D01*
X43642857Y-49928571D01*
X43309523Y-49928571D01*
X44500000Y-49452380D02*
X44690476Y-49452380D01*
X44785714Y-49500000D01*
X44880952Y-49595238D01*
X44928571Y-49785714D01*
X44928571Y-50119047D01*
X44880952Y-50309523D01*
X44785714Y-50404761D01*
X44690476Y-50452380D01*
X44500000Y-50452380D01*
X44404761Y-50404761D01*
X44309523Y-50309523D01*
X44261904Y-50119047D01*
X44261904Y-49785714D01*
X44309523Y-49595238D01*
X44404761Y-49500000D01*
X44500000Y-49452380D01*
X45547619Y-49452380D02*
X45738095Y-49452380D01*
X45833333Y-49500000D01*
X45928571Y-49595238D01*
X45976190Y-49785714D01*
X45976190Y-50119047D01*
X45928571Y-50309523D01*
X45833333Y-50404761D01*
X45738095Y-50452380D01*
X45547619Y-50452380D01*
X45452380Y-50404761D01*
X45357142Y-50309523D01*
X45309523Y-50119047D01*
X45309523Y-49785714D01*
X45357142Y-49595238D01*
X45452380Y-49500000D01*
X45547619Y-49452380D01*
X46261904Y-49452380D02*
X46833333Y-49452380D01*
X46547619Y-50452380D02*
X46547619Y-49452380D01*
X31047619Y-50452380D02*
X30714285Y-49976190D01*
X30476190Y-50452380D02*
X30476190Y-49452380D01*
X30857142Y-49452380D01*
X30952380Y-49500000D01*
X31000000Y-49547619D01*
X31047619Y-49642857D01*
X31047619Y-49785714D01*
X31000000Y-49880952D01*
X30952380Y-49928571D01*
X30857142Y-49976190D01*
X30476190Y-49976190D01*
X31476190Y-49928571D02*
X31809523Y-49928571D01*
X31952380Y-50452380D02*
X31476190Y-50452380D01*
X31476190Y-49452380D01*
X31952380Y-49452380D01*
X32333333Y-50404761D02*
X32476190Y-50452380D01*
X32714285Y-50452380D01*
X32809523Y-50404761D01*
X32857142Y-50357142D01*
X32904761Y-50261904D01*
X32904761Y-50166666D01*
X32857142Y-50071428D01*
X32809523Y-50023809D01*
X32714285Y-49976190D01*
X32523809Y-49928571D01*
X32428571Y-49880952D01*
X32380952Y-49833333D01*
X32333333Y-49738095D01*
X32333333Y-49642857D01*
X32380952Y-49547619D01*
X32428571Y-49500000D01*
X32523809Y-49452380D01*
X32761904Y-49452380D01*
X32904761Y-49500000D01*
X33333333Y-49928571D02*
X33666666Y-49928571D01*
X33809523Y-50452380D02*
X33333333Y-50452380D01*
X33333333Y-49452380D01*
X33809523Y-49452380D01*
X34095238Y-49452380D02*
X34666666Y-49452380D01*
X34380952Y-50452380D02*
X34380952Y-49452380D01*
D12*
X31404761Y-67838095D02*
X29404761Y-67838095D01*
X29404761Y-67361904D01*
X29500000Y-67076190D01*
X29690476Y-66885714D01*
X29880952Y-66790476D01*
X30261904Y-66695238D01*
X30547619Y-66695238D01*
X30928571Y-66790476D01*
X31119047Y-66885714D01*
X31309523Y-67076190D01*
X31404761Y-67361904D01*
X31404761Y-67838095D01*
X31404761Y-65838095D02*
X29404761Y-65838095D01*
X30357142Y-65838095D02*
X30357142Y-64695238D01*
X31404761Y-64695238D02*
X29404761Y-64695238D01*
X29404761Y-64028571D02*
X29404761Y-62885714D01*
X31404761Y-63457142D02*
X29404761Y-63457142D01*
X31404761Y-61171428D02*
X31404761Y-62314285D01*
X31404761Y-61742857D02*
X29404761Y-61742857D01*
X29690476Y-61933333D01*
X29880952Y-62123809D01*
X29976190Y-62314285D01*
X31404761Y-59266666D02*
X31404761Y-60409523D01*
X31404761Y-59838095D02*
X29404761Y-59838095D01*
X29690476Y-60028571D01*
X29880952Y-60219047D01*
X29976190Y-60409523D01*
D10*
X65500000Y-69500000D02*
X65500000Y-54500000D01*
X53500000Y-69500000D02*
X65500000Y-69500000D01*
X53500000Y-54500000D02*
X53500000Y-69500000D01*
X36500000Y-69500000D02*
X36500000Y-54500000D01*
X24500000Y-69500000D02*
X36500000Y-69500000D01*
X24500000Y-54500000D02*
X24500000Y-69500000D01*
X82990000Y-82220000D02*
X82990000Y-82064000D01*
X82990000Y-84536000D02*
X82990000Y-84380000D01*
X80388870Y-82220163D02*
G75*
G02X82470961Y-82220000I1041130J-1079837D01*
G01*
X80388870Y-84379837D02*
G75*
G03X82470961Y-84380000I1041130J1079837D01*
G01*
X79757665Y-82221392D02*
G75*
G02X82990000Y-82064484I1672335J-1078608D01*
G01*
X79757665Y-84378608D02*
G75*
G03X82990000Y-84535516I1672335J1078608D01*
G01*
X82990000Y-88120000D02*
X82990000Y-87964000D01*
X82990000Y-90436000D02*
X82990000Y-90280000D01*
X80388870Y-88120163D02*
G75*
G02X82470961Y-88120000I1041130J-1079837D01*
G01*
X80388870Y-90279837D02*
G75*
G03X82470961Y-90280000I1041130J1079837D01*
G01*
X79757665Y-88121392D02*
G75*
G02X82990000Y-87964484I1672335J-1078608D01*
G01*
X79757665Y-90278608D02*
G75*
G03X82990000Y-90435516I1672335J1078608D01*
G01*
X86000000Y-96500000D02*
X86000000Y-95000000D01*
X84750000Y-92500000D02*
X80250000Y-92500000D01*
X79000000Y-95000000D02*
X79000000Y-96500000D01*
X80250000Y-99000000D02*
X84750000Y-99000000D01*
X74170000Y-85800000D02*
X74170000Y-70470000D01*
X76830000Y-70470000D02*
X74170000Y-70470000D01*
X76830000Y-85800000D02*
X76830000Y-70470000D01*
X76833500Y-85800000D02*
X74173500Y-85800000D01*
X111000000Y-96500000D02*
X111000000Y-95000000D01*
X109750000Y-92500000D02*
X105250000Y-92500000D01*
X104000000Y-95000000D02*
X104000000Y-96500000D01*
X105250000Y-99000000D02*
X109750000Y-99000000D01*
X91300000Y-105100000D02*
X93900000Y-105100000D01*
X91300000Y-119800000D02*
X91300000Y-105100000D01*
X100500000Y-105100000D02*
X100500000Y-107000000D01*
X97800000Y-105100000D02*
X100500000Y-105100000D01*
X100500000Y-119800000D02*
X91300000Y-119800000D01*
X100500000Y-111000000D02*
X100500000Y-119800000D01*
X109020000Y-82630000D02*
X109020000Y-81530000D01*
X108750000Y-82630000D02*
X109020000Y-82630000D01*
X108750000Y-84130000D02*
X108750000Y-82630000D01*
X115380000Y-82630000D02*
X115380000Y-79800000D01*
X115650000Y-82630000D02*
X115380000Y-82630000D01*
X115650000Y-84130000D02*
X115650000Y-82630000D01*
X116245000Y-86020000D02*
X115930000Y-86020000D01*
X118670000Y-86020000D02*
X118355000Y-86020000D01*
X116245000Y-80780000D02*
X115930000Y-80780000D01*
X118670000Y-80780000D02*
X118355000Y-80780000D01*
X115930000Y-80780000D02*
X115930000Y-86020000D01*
X118670000Y-80780000D02*
X118670000Y-86020000D01*
X92800000Y-99000000D02*
X97300000Y-99000000D01*
X91550000Y-95000000D02*
X91550000Y-96500000D01*
X97300000Y-92500000D02*
X92800000Y-92500000D01*
X98550000Y-96500000D02*
X98550000Y-95000000D01*
X87270000Y-104700000D02*
X89930000Y-104700000D01*
X87270000Y-104700000D02*
X87270000Y-114950000D01*
X87270000Y-114950000D02*
X89930000Y-114950000D01*
X89930000Y-104700000D02*
X89930000Y-114950000D01*
D13*
X85880000Y-90300000D02*
X85880000Y-90520000D01*
X85880000Y-90520000D02*
X86900000Y-90520000D01*
X104120000Y-90200000D02*
X104120000Y-90500000D01*
X103000000Y-90520000D02*
X104120000Y-90520000D01*
X85880000Y-70280000D02*
X104120000Y-70280000D01*
X104120000Y-70280000D02*
X104120000Y-76800000D01*
X85880000Y-70280000D02*
X85880000Y-76600000D01*
X85880000Y-76600000D02*
X84000000Y-76600000D01*
D10*
X108470000Y-80780000D02*
X108470000Y-86020000D01*
X105730000Y-80780000D02*
X105730000Y-86020000D01*
X108470000Y-80780000D02*
X108155000Y-80780000D01*
X106045000Y-80780000D02*
X105730000Y-80780000D01*
X108470000Y-86020000D02*
X108155000Y-86020000D01*
X106045000Y-86020000D02*
X105730000Y-86020000D01*
X114540000Y-109690000D02*
X104380000Y-109690000D01*
X114540000Y-117310000D02*
X114540000Y-109690000D01*
X104380000Y-117310000D02*
X114540000Y-117310000D01*
X104380000Y-109690000D02*
X104380000Y-117310000D01*
X104380000Y-110960000D02*
X114540000Y-110960000D01*
X78180000Y-77445000D02*
X78180000Y-77130000D01*
X78180000Y-79870000D02*
X78180000Y-79555000D01*
X83420000Y-77445000D02*
X83420000Y-77130000D01*
X83420000Y-79870000D02*
X83420000Y-79555000D01*
X83420000Y-77130000D02*
X78180000Y-77130000D01*
X83420000Y-79870000D02*
X78180000Y-79870000D01*
D13*
X35880000Y-76600000D02*
X34000000Y-76600000D01*
X35880000Y-70280000D02*
X35880000Y-76600000D01*
X54120000Y-70280000D02*
X54120000Y-76800000D01*
X35880000Y-70280000D02*
X54120000Y-70280000D01*
X53000000Y-90520000D02*
X54120000Y-90520000D01*
X54120000Y-90200000D02*
X54120000Y-90500000D01*
X35880000Y-90520000D02*
X36900000Y-90520000D01*
X35880000Y-90300000D02*
X35880000Y-90520000D01*
D10*
X30250000Y-99000000D02*
X34750000Y-99000000D01*
X29000000Y-95000000D02*
X29000000Y-96500000D01*
X34750000Y-92500000D02*
X30250000Y-92500000D01*
X36000000Y-96500000D02*
X36000000Y-95000000D01*
X26833500Y-85800000D02*
X24173500Y-85800000D01*
X26830000Y-85800000D02*
X26830000Y-70470000D01*
X26830000Y-70470000D02*
X24170000Y-70470000D01*
X24170000Y-85800000D02*
X24170000Y-70470000D01*
X68670000Y-80780000D02*
X68670000Y-86020000D01*
X65930000Y-80780000D02*
X65930000Y-86020000D01*
X68670000Y-80780000D02*
X68355000Y-80780000D01*
X66245000Y-80780000D02*
X65930000Y-80780000D01*
X68670000Y-86020000D02*
X68355000Y-86020000D01*
X66245000Y-86020000D02*
X65930000Y-86020000D01*
X29757665Y-84378608D02*
G75*
G03X32990000Y-84535516I1672335J1078608D01*
G01*
X29757665Y-82221392D02*
G75*
G02X32990000Y-82064484I1672335J-1078608D01*
G01*
X30388870Y-84379837D02*
G75*
G03X32470961Y-84380000I1041130J1079837D01*
G01*
X30388870Y-82220163D02*
G75*
G02X32470961Y-82220000I1041130J-1079837D01*
G01*
X32990000Y-84536000D02*
X32990000Y-84380000D01*
X32990000Y-82220000D02*
X32990000Y-82064000D01*
X48550000Y-96500000D02*
X48550000Y-95000000D01*
X47300000Y-92500000D02*
X42800000Y-92500000D01*
X41550000Y-95000000D02*
X41550000Y-96500000D01*
X42800000Y-99000000D02*
X47300000Y-99000000D01*
X65650000Y-84130000D02*
X65650000Y-82630000D01*
X65650000Y-82630000D02*
X65380000Y-82630000D01*
X65380000Y-82630000D02*
X65380000Y-79800000D01*
X58750000Y-84130000D02*
X58750000Y-82630000D01*
X58750000Y-82630000D02*
X59020000Y-82630000D01*
X59020000Y-82630000D02*
X59020000Y-81530000D01*
X50500000Y-111000000D02*
X50500000Y-119800000D01*
X50500000Y-119800000D02*
X41300000Y-119800000D01*
X47800000Y-105100000D02*
X50500000Y-105100000D01*
X50500000Y-105100000D02*
X50500000Y-107000000D01*
X41300000Y-119800000D02*
X41300000Y-105100000D01*
X41300000Y-105100000D02*
X43900000Y-105100000D01*
X55250000Y-99000000D02*
X59750000Y-99000000D01*
X54000000Y-95000000D02*
X54000000Y-96500000D01*
X59750000Y-92500000D02*
X55250000Y-92500000D01*
X61000000Y-96500000D02*
X61000000Y-95000000D01*
X29757665Y-90278608D02*
G75*
G03X32990000Y-90435516I1672335J1078608D01*
G01*
X29757665Y-88121392D02*
G75*
G02X32990000Y-87964484I1672335J-1078608D01*
G01*
X30388870Y-90279837D02*
G75*
G03X32470961Y-90280000I1041130J1079837D01*
G01*
X30388870Y-88120163D02*
G75*
G02X32470961Y-88120000I1041130J-1079837D01*
G01*
X32990000Y-90436000D02*
X32990000Y-90280000D01*
X32990000Y-88120000D02*
X32990000Y-87964000D01*
X39930000Y-104700000D02*
X39930000Y-114950000D01*
X37270000Y-114950000D02*
X39930000Y-114950000D01*
X37270000Y-104700000D02*
X37270000Y-114950000D01*
X37270000Y-104700000D02*
X39930000Y-104700000D01*
X56045000Y-86020000D02*
X55730000Y-86020000D01*
X58470000Y-86020000D02*
X58155000Y-86020000D01*
X56045000Y-80780000D02*
X55730000Y-80780000D01*
X58470000Y-80780000D02*
X58155000Y-80780000D01*
X55730000Y-80780000D02*
X55730000Y-86020000D01*
X58470000Y-80780000D02*
X58470000Y-86020000D01*
X54380000Y-110960000D02*
X64540000Y-110960000D01*
X54380000Y-109690000D02*
X54380000Y-117310000D01*
X54380000Y-117310000D02*
X64540000Y-117310000D01*
X64540000Y-117310000D02*
X64540000Y-109690000D01*
X64540000Y-109690000D02*
X54380000Y-109690000D01*
X33420000Y-79870000D02*
X28180000Y-79870000D01*
X33420000Y-77130000D02*
X28180000Y-77130000D01*
X33420000Y-79870000D02*
X33420000Y-79555000D01*
X33420000Y-77445000D02*
X33420000Y-77130000D01*
X28180000Y-79870000D02*
X28180000Y-79555000D01*
X28180000Y-77445000D02*
X28180000Y-77130000D01*
X109020000Y-32630000D02*
X109020000Y-31530000D01*
X108750000Y-32630000D02*
X109020000Y-32630000D01*
X108750000Y-34130000D02*
X108750000Y-32630000D01*
X115380000Y-32630000D02*
X115380000Y-29800000D01*
X115650000Y-32630000D02*
X115380000Y-32630000D01*
X115650000Y-34130000D02*
X115650000Y-32630000D01*
X86000000Y-46500000D02*
X86000000Y-45000000D01*
X84750000Y-42500000D02*
X80250000Y-42500000D01*
X79000000Y-45000000D02*
X79000000Y-46500000D01*
X80250000Y-49000000D02*
X84750000Y-49000000D01*
D13*
X85880000Y-40300000D02*
X85880000Y-40520000D01*
X85880000Y-40520000D02*
X86900000Y-40520000D01*
X104120000Y-40200000D02*
X104120000Y-40500000D01*
X103000000Y-40520000D02*
X104120000Y-40520000D01*
X85880000Y-20280000D02*
X104120000Y-20280000D01*
X104120000Y-20280000D02*
X104120000Y-26800000D01*
X85880000Y-20280000D02*
X85880000Y-26600000D01*
X85880000Y-26600000D02*
X84000000Y-26600000D01*
D10*
X82990000Y-32220000D02*
X82990000Y-32064000D01*
X82990000Y-34536000D02*
X82990000Y-34380000D01*
X80388870Y-32220163D02*
G75*
G02X82470961Y-32220000I1041130J-1079837D01*
G01*
X80388870Y-34379837D02*
G75*
G03X82470961Y-34380000I1041130J1079837D01*
G01*
X79757665Y-32221392D02*
G75*
G02X82990000Y-32064484I1672335J-1078608D01*
G01*
X79757665Y-34378608D02*
G75*
G03X82990000Y-34535516I1672335J1078608D01*
G01*
X111000000Y-46500000D02*
X111000000Y-45000000D01*
X109750000Y-42500000D02*
X105250000Y-42500000D01*
X104000000Y-45000000D02*
X104000000Y-46500000D01*
X105250000Y-49000000D02*
X109750000Y-49000000D01*
X87270000Y-54700000D02*
X89930000Y-54700000D01*
X87270000Y-54700000D02*
X87270000Y-64950000D01*
X87270000Y-64950000D02*
X89930000Y-64950000D01*
X89930000Y-54700000D02*
X89930000Y-64950000D01*
X92800000Y-49000000D02*
X97300000Y-49000000D01*
X91550000Y-45000000D02*
X91550000Y-46500000D01*
X97300000Y-42500000D02*
X92800000Y-42500000D01*
X98550000Y-46500000D02*
X98550000Y-45000000D01*
X74170000Y-35800000D02*
X74170000Y-20470000D01*
X76830000Y-20470000D02*
X74170000Y-20470000D01*
X76830000Y-35800000D02*
X76830000Y-20470000D01*
X76833500Y-35800000D02*
X74173500Y-35800000D01*
X91300000Y-55100000D02*
X93900000Y-55100000D01*
X91300000Y-69800000D02*
X91300000Y-55100000D01*
X100500000Y-55100000D02*
X100500000Y-57000000D01*
X97800000Y-55100000D02*
X100500000Y-55100000D01*
X100500000Y-69800000D02*
X91300000Y-69800000D01*
X100500000Y-61000000D02*
X100500000Y-69800000D01*
X82990000Y-38120000D02*
X82990000Y-37964000D01*
X82990000Y-40436000D02*
X82990000Y-40280000D01*
X80388870Y-38120163D02*
G75*
G02X82470961Y-38120000I1041130J-1079837D01*
G01*
X80388870Y-40279837D02*
G75*
G03X82470961Y-40280000I1041130J1079837D01*
G01*
X79757665Y-38121392D02*
G75*
G02X82990000Y-37964484I1672335J-1078608D01*
G01*
X79757665Y-40278608D02*
G75*
G03X82990000Y-40435516I1672335J1078608D01*
G01*
X116245000Y-36020000D02*
X115930000Y-36020000D01*
X118670000Y-36020000D02*
X118355000Y-36020000D01*
X116245000Y-30780000D02*
X115930000Y-30780000D01*
X118670000Y-30780000D02*
X118355000Y-30780000D01*
X115930000Y-30780000D02*
X115930000Y-36020000D01*
X118670000Y-30780000D02*
X118670000Y-36020000D01*
X114540000Y-59690000D02*
X104380000Y-59690000D01*
X114540000Y-67310000D02*
X114540000Y-59690000D01*
X104380000Y-67310000D02*
X114540000Y-67310000D01*
X104380000Y-59690000D02*
X104380000Y-67310000D01*
X104380000Y-60960000D02*
X114540000Y-60960000D01*
X78180000Y-27445000D02*
X78180000Y-27130000D01*
X78180000Y-29870000D02*
X78180000Y-29555000D01*
X83420000Y-27445000D02*
X83420000Y-27130000D01*
X83420000Y-29870000D02*
X83420000Y-29555000D01*
X83420000Y-27130000D02*
X78180000Y-27130000D01*
X83420000Y-29870000D02*
X78180000Y-29870000D01*
X108470000Y-30780000D02*
X108470000Y-36020000D01*
X105730000Y-30780000D02*
X105730000Y-36020000D01*
X108470000Y-30780000D02*
X108155000Y-30780000D01*
X106045000Y-30780000D02*
X105730000Y-30780000D01*
X108470000Y-36020000D02*
X108155000Y-36020000D01*
X106045000Y-36020000D02*
X105730000Y-36020000D01*
X26833500Y-35800000D02*
X24173500Y-35800000D01*
X26830000Y-35800000D02*
X26830000Y-20470000D01*
X26830000Y-20470000D02*
X24170000Y-20470000D01*
X24170000Y-35800000D02*
X24170000Y-20470000D01*
X50500000Y-61000000D02*
X50500000Y-69800000D01*
X50500000Y-69800000D02*
X41300000Y-69800000D01*
X47800000Y-55100000D02*
X50500000Y-55100000D01*
X50500000Y-55100000D02*
X50500000Y-57000000D01*
X41300000Y-69800000D02*
X41300000Y-55100000D01*
X41300000Y-55100000D02*
X43900000Y-55100000D01*
X39930000Y-54700000D02*
X39930000Y-64950000D01*
X37270000Y-64950000D02*
X39930000Y-64950000D01*
X37270000Y-54700000D02*
X37270000Y-64950000D01*
X37270000Y-54700000D02*
X39930000Y-54700000D01*
X48550000Y-46500000D02*
X48550000Y-45000000D01*
X47300000Y-42500000D02*
X42800000Y-42500000D01*
X41550000Y-45000000D02*
X41550000Y-46500000D01*
X42800000Y-49000000D02*
X47300000Y-49000000D01*
X68670000Y-30780000D02*
X68670000Y-36020000D01*
X65930000Y-30780000D02*
X65930000Y-36020000D01*
X68670000Y-30780000D02*
X68355000Y-30780000D01*
X66245000Y-30780000D02*
X65930000Y-30780000D01*
X68670000Y-36020000D02*
X68355000Y-36020000D01*
X66245000Y-36020000D02*
X65930000Y-36020000D01*
X56045000Y-36020000D02*
X55730000Y-36020000D01*
X58470000Y-36020000D02*
X58155000Y-36020000D01*
X56045000Y-30780000D02*
X55730000Y-30780000D01*
X58470000Y-30780000D02*
X58155000Y-30780000D01*
X55730000Y-30780000D02*
X55730000Y-36020000D01*
X58470000Y-30780000D02*
X58470000Y-36020000D01*
X33420000Y-29870000D02*
X28180000Y-29870000D01*
X33420000Y-27130000D02*
X28180000Y-27130000D01*
X33420000Y-29870000D02*
X33420000Y-29555000D01*
X33420000Y-27445000D02*
X33420000Y-27130000D01*
X28180000Y-29870000D02*
X28180000Y-29555000D01*
X28180000Y-27445000D02*
X28180000Y-27130000D01*
X29757665Y-40278608D02*
G75*
G03X32990000Y-40435516I1672335J1078608D01*
G01*
X29757665Y-38121392D02*
G75*
G02X32990000Y-37964484I1672335J-1078608D01*
G01*
X30388870Y-40279837D02*
G75*
G03X32470961Y-40280000I1041130J1079837D01*
G01*
X30388870Y-38120163D02*
G75*
G02X32470961Y-38120000I1041130J-1079837D01*
G01*
X32990000Y-40436000D02*
X32990000Y-40280000D01*
X32990000Y-38120000D02*
X32990000Y-37964000D01*
X54380000Y-60960000D02*
X64540000Y-60960000D01*
X54380000Y-59690000D02*
X54380000Y-67310000D01*
X54380000Y-67310000D02*
X64540000Y-67310000D01*
X64540000Y-67310000D02*
X64540000Y-59690000D01*
X64540000Y-59690000D02*
X54380000Y-59690000D01*
X30250000Y-49000000D02*
X34750000Y-49000000D01*
X29000000Y-45000000D02*
X29000000Y-46500000D01*
X34750000Y-42500000D02*
X30250000Y-42500000D01*
X36000000Y-46500000D02*
X36000000Y-45000000D01*
X55250000Y-49000000D02*
X59750000Y-49000000D01*
X54000000Y-45000000D02*
X54000000Y-46500000D01*
X59750000Y-42500000D02*
X55250000Y-42500000D01*
X61000000Y-46500000D02*
X61000000Y-45000000D01*
X65650000Y-34130000D02*
X65650000Y-32630000D01*
X65650000Y-32630000D02*
X65380000Y-32630000D01*
X65380000Y-32630000D02*
X65380000Y-29800000D01*
X58750000Y-34130000D02*
X58750000Y-32630000D01*
X58750000Y-32630000D02*
X59020000Y-32630000D01*
X59020000Y-32630000D02*
X59020000Y-31530000D01*
D13*
X35880000Y-26600000D02*
X34000000Y-26600000D01*
X35880000Y-20280000D02*
X35880000Y-26600000D01*
X54120000Y-20280000D02*
X54120000Y-26800000D01*
X35880000Y-20280000D02*
X54120000Y-20280000D01*
X53000000Y-40520000D02*
X54120000Y-40520000D01*
X54120000Y-40200000D02*
X54120000Y-40500000D01*
X35880000Y-40520000D02*
X36900000Y-40520000D01*
X35880000Y-40300000D02*
X35880000Y-40520000D01*
D10*
X29757665Y-34378608D02*
G75*
G03X32990000Y-34535516I1672335J1078608D01*
G01*
X29757665Y-32221392D02*
G75*
G02X32990000Y-32064484I1672335J-1078608D01*
G01*
X30388870Y-34379837D02*
G75*
G03X32470961Y-34380000I1041130J1079837D01*
G01*
X30388870Y-32220163D02*
G75*
G02X32470961Y-32220000I1041130J-1079837D01*
G01*
X32990000Y-34536000D02*
X32990000Y-34380000D01*
X32990000Y-32220000D02*
X32990000Y-32064000D01*
M02*
