M48
; DRILL file {KiCad (5.1.5)-3} date 2021/05/27 15:59:19
; FORMAT={-:-/ absolute / metric / decimal}
; #@! TF.CreationDate,2021-05-27T15:59:19+09:00
; #@! TF.GenerationSoftware,Kicad,Pcbnew,(5.1.5)-3
FMAT,2
METRIC
T1C0.400
T2C0.450
T3C0.800
T4C0.900
T5C1.000
T6C1.020
T7C1.100
T8C1.520
%
G90
G05
T1
X51.515Y-30.5
X51.515Y-80.5
X101.515Y-30.5
X101.515Y-80.5
T3
X40.0Y-91.6
X50.16Y-91.6
X90.0Y-49.9
X100.16Y-49.9
X90.0Y-41.6
X100.16Y-41.6
X67.3Y-80.9
X67.3Y-85.9
X102.6Y-95.7
X112.76Y-95.7
X117.3Y-80.9
X117.3Y-85.9
X28.3Y-28.5
X33.3Y-28.5
X52.54Y-41.6
X62.7Y-41.6
X27.34Y-91.6
X37.5Y-91.6
X102.54Y-41.6
X112.7Y-41.6
X78.3Y-78.5
X83.3Y-78.5
X102.54Y-91.6
X112.7Y-91.6
X57.1Y-30.9
X57.1Y-35.9
X107.1Y-30.9
X107.1Y-35.9
X40.04Y-95.7
X50.2Y-95.7
X90.04Y-95.7
X100.2Y-95.7
X90.0Y-99.9
X100.16Y-99.9
X67.3Y-30.9
X67.3Y-35.9
X52.5Y-49.9
X62.66Y-49.9
X40.0Y-41.6
X50.16Y-41.6
X52.6Y-95.7
X62.76Y-95.7
X28.3Y-78.5
X33.3Y-78.5
X90.0Y-91.6
X100.16Y-91.6
X52.5Y-99.9
X62.66Y-99.9
X77.4Y-95.8
X87.56Y-95.8
X27.4Y-45.8
X37.56Y-45.8
X27.34Y-41.6
X37.5Y-41.6
X77.4Y-49.9
X87.56Y-49.9
X102.6Y-45.7
X112.76Y-45.7
X90.04Y-45.7
X100.2Y-45.7
X107.1Y-80.9
X107.1Y-85.9
X40.04Y-45.7
X50.2Y-45.7
X40.0Y-49.9
X50.16Y-49.9
X57.1Y-80.9
X57.1Y-85.9
X102.5Y-49.9
X112.66Y-49.9
X40.0Y-99.9
X50.16Y-99.9
X77.34Y-41.6
X87.5Y-41.6
X77.34Y-91.6
X87.5Y-91.6
X52.6Y-45.7
X62.76Y-45.7
X27.4Y-49.9
X37.56Y-49.9
X27.4Y-99.9
X37.56Y-99.9
X77.4Y-45.8
X87.56Y-45.8
X52.54Y-91.6
X62.7Y-91.6
X78.3Y-28.5
X83.3Y-28.5
X117.3Y-30.9
X117.3Y-35.9
X27.4Y-95.8
X37.56Y-95.8
X77.4Y-99.9
X87.56Y-99.9
X102.5Y-99.9
X112.66Y-99.9
T4
X80.16Y-89.2
X82.7Y-89.2
X80.16Y-83.3
X82.7Y-83.3
X80.16Y-33.3
X82.7Y-33.3
X30.16Y-39.2
X32.7Y-39.2
X30.16Y-33.3
X32.7Y-33.3
X80.16Y-39.2
X82.7Y-39.2
X30.16Y-83.3
X32.7Y-83.3
X30.16Y-89.2
X32.7Y-89.2
T5
X88.6Y-106.0
X88.6Y-108.54
X88.6Y-111.08
X88.6Y-113.62
X38.6Y-56.0
X38.6Y-58.54
X38.6Y-61.08
X38.6Y-63.62
X75.5Y-71.8
X75.5Y-74.34
X75.5Y-76.88
X75.5Y-79.42
X75.5Y-81.96
X75.5Y-84.5
X26.75Y-52.5
X29.29Y-52.5
X31.83Y-52.5
X34.37Y-52.5
X25.5Y-21.8
X25.5Y-24.34
X25.5Y-26.88
X25.5Y-29.42
X25.5Y-31.96
X25.5Y-34.5
X55.75Y-102.5
X58.29Y-102.5
X60.83Y-102.5
X63.37Y-102.5
X75.5Y-21.8
X75.5Y-24.34
X75.5Y-26.88
X75.5Y-29.42
X75.5Y-31.96
X75.5Y-34.5
X88.6Y-56.0
X88.6Y-58.54
X88.6Y-61.08
X88.6Y-63.62
X105.75Y-102.5
X108.29Y-102.5
X110.83Y-102.5
X113.37Y-102.5
X38.6Y-106.0
X38.6Y-108.54
X38.6Y-111.08
X38.6Y-113.62
X76.75Y-102.5
X79.29Y-102.5
X81.83Y-102.5
X84.37Y-102.5
X76.75Y-52.5
X79.29Y-52.5
X81.83Y-52.5
X84.37Y-52.5
X26.75Y-102.5
X29.29Y-102.5
X31.83Y-102.5
X34.37Y-102.5
X105.75Y-52.5
X108.29Y-52.5
X110.83Y-52.5
X113.37Y-52.5
X25.5Y-71.8
X25.5Y-74.34
X25.5Y-76.88
X25.5Y-79.42
X25.5Y-81.96
X25.5Y-84.5
X55.75Y-52.5
X58.29Y-52.5
X60.83Y-52.5
X63.37Y-52.5
T6
X22.6Y-111.5
X67.3Y-111.5
X72.6Y-61.5
X117.3Y-61.5
X72.6Y-111.5
X117.3Y-111.5
X72.6Y-95.0
X117.3Y-95.0
X72.6Y-45.0
X117.3Y-45.0
X72.6Y-28.5
X117.3Y-28.5
X22.6Y-61.5
X67.3Y-61.5
X22.6Y-78.5
X67.3Y-78.5
X72.6Y-78.5
X117.3Y-78.5
X22.6Y-28.5
X67.3Y-28.5
X22.6Y-95.0
X67.3Y-95.0
X22.6Y-45.0
X67.3Y-45.0
T7
X29.25Y-93.5
X29.25Y-98.0
X35.75Y-93.5
X35.75Y-98.0
X79.25Y-93.5
X79.25Y-98.0
X85.75Y-93.5
X85.75Y-98.0
X91.8Y-43.5
X91.8Y-48.0
X98.3Y-43.5
X98.3Y-48.0
X41.8Y-43.5
X41.8Y-48.0
X48.3Y-43.5
X48.3Y-48.0
X104.25Y-43.5
X104.25Y-48.0
X110.75Y-43.5
X110.75Y-48.0
X54.25Y-93.5
X54.25Y-98.0
X60.75Y-93.5
X60.75Y-98.0
X41.8Y-93.5
X41.8Y-98.0
X48.3Y-93.5
X48.3Y-98.0
X91.8Y-93.5
X91.8Y-98.0
X98.3Y-93.5
X98.3Y-98.0
X29.25Y-43.5
X29.25Y-48.0
X35.75Y-43.5
X35.75Y-48.0
X54.25Y-43.5
X54.25Y-48.0
X60.75Y-43.5
X60.75Y-48.0
X79.25Y-43.5
X79.25Y-48.0
X85.75Y-43.5
X85.75Y-48.0
X104.25Y-93.5
X104.25Y-98.0
X110.75Y-93.5
X110.75Y-98.0
T8
X106.92Y-63.5
X112.0Y-63.5
X106.92Y-113.5
X112.0Y-113.5
X56.92Y-63.5
X62.0Y-63.5
X56.92Y-113.5
X62.0Y-113.5
T2
G00X107.925Y-71.95
M15
G01X107.925Y-71.15
M16
G05
G00X115.075Y-71.15
M15
G01X115.075Y-71.95
M16
G05
G00X107.925Y-21.95
M15
G01X107.925Y-21.15
M16
G05
G00X115.075Y-21.15
M15
G01X115.075Y-21.95
M16
G05
G00X57.925Y-71.95
M15
G01X57.925Y-71.15
M16
G05
G00X65.075Y-71.15
M15
G01X65.075Y-71.95
M16
G05
G00X57.925Y-21.95
M15
G01X57.925Y-21.15
M16
G05
G00X65.075Y-21.15
M15
G01X65.075Y-21.95
M16
G05
T5
G00X44.9Y-56.0
M15
G01X46.9Y-56.0
M16
G05
G00X44.9Y-62.0
M15
G01X46.9Y-62.0
M16
G05
G00X50.6Y-60.0
M15
G01X50.6Y-58.0
M16
G05
G00X44.9Y-106.0
M15
G01X46.9Y-106.0
M16
G05
G00X44.9Y-112.0
M15
G01X46.9Y-112.0
M16
G05
G00X50.6Y-110.0
M15
G01X50.6Y-108.0
M16
G05
G00X94.9Y-106.0
M15
G01X96.9Y-106.0
M16
G05
G00X94.9Y-112.0
M15
G01X96.9Y-112.0
M16
G05
G00X100.6Y-110.0
M15
G01X100.6Y-108.0
M16
G05
G00X94.9Y-56.0
M15
G01X96.9Y-56.0
M16
G05
G00X94.9Y-62.0
M15
G01X96.9Y-62.0
M16
G05
G00X100.6Y-60.0
M15
G01X100.6Y-58.0
M16
G05
T0
M30
